<?xml version="1.0" standalone="no"?>
<!DOCTYPE svg PUBLIC "-//W3C//DTD SVG 1.1//EN" "http://www.w3.org/Graphics/SVG/1.1/DTD/svg11.dtd" >
<svg xmlns="http://www.w3.org/2000/svg">
<metadata></metadata>
<defs>
<font id="zetta_sansbold" horiz-adv-x="1187" >
<font-face units-per-em="2048" ascent="1536" descent="-512" />
<missing-glyph horiz-adv-x="512" />
<glyph unicode="&#xfb01;" horiz-adv-x="1302" d="M20 809v182h187v160q0 303 430 303q39 0 125 -4v-182q-32 4 -57 4q-127 0 -169 -31t-42 -135v-115h247v-182h-247v-809h-287v809h-187zM860 0v991h287v-991h-287zM860 1192v242h287v-242h-287z" />
<glyph unicode="&#xfb02;" horiz-adv-x="1302" d="M20 809v182h187v160q0 303 430 303q39 0 125 -4v-182q-32 4 -57 4q-127 0 -169 -31t-42 -135v-115h247v-182h-247v-809h-287v809h-187zM860 164v1270h287v-1188q0 -36 14.5 -56t63.5 -20h41v-170h-209q-197 0 -197 164z" />
<glyph unicode="&#xfb03;" horiz-adv-x="1955" d="M20 809v182h187v160q0 303 430 303q59 0 145 -4v-182q-32 4 -77 4q-127 0 -169 -31t-42 -135v-115h366v160q0 303 430 303q39 0 125 -4v-182q-32 4 -57 4q-127 0 -169 -31t-42 -135v-115h248v-182h-248v-809h-287v809h-366v-809h-287v809h-187zM1513 0v991h287v-991h-287 zM1513 1192v242h287v-242h-287z" />
<glyph unicode="&#xfb04;" horiz-adv-x="1955" d="M20 809v182h187v160q0 303 430 303q59 0 145 -4v-182q-32 4 -77 4q-127 0 -169 -31t-42 -135v-115h366v160q0 303 430 303q39 0 125 -4v-182q-32 4 -57 4q-127 0 -169 -31t-42 -135v-115h248v-182h-248v-809h-287v809h-366v-809h-287v809h-187zM1513 164v1270h287v-1188 q0 -36 14.5 -56t63.5 -20h41v-170h-209q-197 0 -197 164z" />
<glyph horiz-adv-x="2048" />
<glyph horiz-adv-x="2048" />
<glyph unicode="&#xd;" horiz-adv-x="2048" />
<glyph unicode=" "  horiz-adv-x="512" />
<glyph unicode="&#x09;" horiz-adv-x="512" />
<glyph unicode="&#xa0;" horiz-adv-x="512" />
<glyph unicode="!" horiz-adv-x="604" d="M123 1329h358l-88 -923h-182zM143 0v283h320v-283h-320z" />
<glyph unicode="&#x22;" horiz-adv-x="913" d="M141 858v471h242v-471h-242zM530 858v471h242v-471h-242z" />
<glyph unicode="#" d="M123 395v162h209l45 213h-254v164h287l75 375h177l-76 -375h131l76 375h176l-76 -375h172v-164h-207l-43 -213h250v-162h-283l-80 -395h-176l80 395h-131l-80 -395h-176l80 395h-176zM508 557h131l45 213h-133z" />
<glyph unicode="$" d="M86 332h254v-56q0 -29 4 -47t17.5 -35t42.5 -24.5t75 -7.5h25v397h-39q-104 0 -176.5 22t-114.5 65.5t-60 100t-18 132.5v59q0 48 2.5 80t11.5 70t25 62.5t45.5 48.5t71 38t102 22.5t138.5 8.5h12v143h192v-143h45q53 0 96 -6t75 -15.5t57 -26.5t41.5 -32.5t28 -40.5 t17.5 -44t9 -49.5t3.5 -50.5t0.5 -53h-254q0 34 -0.5 48.5t-2.5 36t-6.5 29t-12.5 18.5t-21.5 14t-31.5 5.5t-44 2.5v-369h47q107 0 179.5 -20t112.5 -61.5t56.5 -96t16.5 -133.5v-49q0 -119 -15.5 -187.5t-61.5 -113t-121.5 -59.5t-204.5 -15h-9v-246h-192v246h-90 q-67 0 -119.5 11t-86.5 26.5t-58 44t-36.5 52.5t-19 63.5t-7.5 65.5t-1 69zM350 868q0 -54 9.5 -79.5t42.5 -39.5t102 -14l-4 369q-53 0 -81.5 -6t-44.5 -28.5t-20 -52.5t-4 -91v-58zM696 162q44 1 72 7.5t45.5 17.5t25.5 35t10.5 50t2.5 72v59q0 47 -4 72t-19.5 46.5 t-47 29.5t-85.5 8v-397z" />
<glyph unicode="%" horiz-adv-x="1892" d="M94 848v231q0 60 18 103t47.5 67.5t77.5 38.5t96 18.5t116 4.5t115.5 -4.5t95.5 -18.5t76.5 -38.5t46.5 -67.5t18 -103v-231q0 -60 -18 -103t-46.5 -67.5t-76.5 -38.5t-95.5 -18.5t-115.5 -4.5t-116 4.5t-96 18.5t-77.5 38.5t-47.5 67.5t-18 103zM307 836q0 -23 8 -39 t18.5 -24.5t31.5 -12.5t37.5 -5t46.5 -1t46 1t37 5t31 12.5t17.5 24.5t7.5 39v256q0 23 -7.5 39t-17.5 24.5t-31 12.5t-37 5t-46 1t-46.5 -1t-37.5 -5t-31.5 -12.5t-18.5 -24.5t-8 -39v-256zM496 -20l714 1370h205l-715 -1370h-204zM1092 211v231q0 60 18 103t47 67.5 t77.5 38.5t96 18.5t115.5 4.5t115.5 -4.5t95.5 -18.5t76.5 -38.5t46.5 -67.5t18 -103v-231q0 -60 -18 -102.5t-46.5 -67.5t-76.5 -39t-95.5 -18t-115.5 -4t-115.5 4t-96 18t-77.5 39t-47 67.5t-18 102.5zM1305 199q0 -23 7.5 -39t18 -24.5t32 -12.5t37.5 -5t46 -1t46 1t37 5 t31 12.5t17.5 24.5t7.5 39v256q0 23 -7.5 39t-17.5 24.5t-31 12.5t-37 5t-46 1t-46 -1t-37.5 -5t-32 -12.5t-18 -24.5t-7.5 -39v-256z" />
<glyph unicode="&#x26;" horiz-adv-x="1343" d="M102 250v248q0 50 23.5 91t65 70t83.5 48t95 36l-62 66q-63 70 -63 147v162q0 116 103.5 174t289.5 58h92q94 -1 162 -17.5t107.5 -42t62.5 -66t30 -79.5t7 -92h-295q0 64 -23.5 89t-87.5 25h-43q-58 0 -87.5 -20.5t-29.5 -54.5v-64q0 -47 13 -72.5t55 -72.5l381 -412 v244h229v-269q0 -104 -32 -192q28 -31 59.5 -42t79.5 -11h26v-201h-124q-66 0 -111 13t-78 46l-14 15q-84 -43 -193.5 -68.5t-216.5 -25.5q-109 0 -197 14.5t-158.5 45t-109.5 84t-39 126.5zM410 281q0 -59 49 -89t184 -30q136 0 231 43l-397 420q-67 -24 -67 -95v-249z" />
<glyph unicode="'" horiz-adv-x="524" d="M141 858v471h242v-471h-242z" />
<glyph unicode="(" horiz-adv-x="712" d="M197 565q0 239 54 436.5t173 389.5h258q-107 -202 -160 -401.5t-53 -424.5q0 -229 53 -427.5t162 -397.5h-260q-119 187 -173 387t-54 438z" />
<glyph unicode=")" horiz-adv-x="712" d="M29 -260q109 199 162 397.5t53 427.5q0 225 -53 424.5t-160 401.5h258q119 -192 173 -389.5t54 -436.5q0 -238 -54 -438t-173 -387h-260z" />
<glyph unicode="*" horiz-adv-x="854" d="M61 985l70 205l215 -90l-22 229h217l-21 -227l207 88l66 -205l-224 -49l154 -176l-182 -121l-113 195l-115 -195l-180 123l158 174z" />
<glyph unicode="+" d="M145 489v207h340v346h215v-346h342v-207h-340v-346h-215v346h-342z" />
<glyph unicode="," horiz-adv-x="524" d="M39 -229l94 512h311l-192 -512h-213z" />
<glyph unicode="-" horiz-adv-x="692" d="M61 492v204h570v-204h-570z" />
<glyph unicode="." horiz-adv-x="524" d="M102 0v283h320v-283h-320z" />
<glyph unicode="/" horiz-adv-x="882" d="M20 -20l623 1370h219l-622 -1370h-220z" />
<glyph unicode="0" d="M94 303v703q0 81 23 139t62.5 93.5t105 56t137.5 27.5t172 7t172 -7t137.5 -27.5t105 -56t62.5 -93.5t23 -139v-703q0 -81 -23 -139t-62.5 -93.5t-105 -56t-137.5 -27.5t-172 -7t-172 7t-137.5 27.5t-105 56t-62.5 93.5t-23 139zM381 342q0 -79 16 -115t59.5 -50.5 t137.5 -14.5t137.5 14.5t59.5 50.5t16 115v625q0 79 -16 115t-59.5 50.5t-137.5 14.5t-137.5 -14.5t-59.5 -50.5t-16 -115v-625z" />
<glyph unicode="1" d="M231 872v215l330 222h238v-1309h-281v1034z" />
<glyph unicode="2" d="M109 0v188q0 105 28.5 172.5t83 110.5t158.5 90l213 98q182 82 182 213v101q0 57 -5 86t-26 51.5t-60 29.5t-110 7q-50 0 -83.5 -6.5t-53 -16.5t-29.5 -29.5t-13 -39t-3 -51.5h-282q0 67 8.5 112.5t36.5 89t78 68.5t135.5 40t207.5 15q262 0 374 -69t112 -238v-197 q0 -107 -71 -178t-216 -139l-217 -102q-116 -55 -150 -88.5t-34 -90.5v-26h688v-201h-952z" />
<glyph unicode="3" d="M59 307h283q0 -33 3.5 -53t15 -40t35 -30t63 -16t98.5 -6q41 0 61.5 0.5t49.5 3t42 8.5t30 17t23.5 27.5t11.5 40.5t5 56v160q0 65 -43.5 90t-132.5 25h-231v180h233q75 0 108.5 22.5t33.5 96.5v149q0 69 -41.5 89t-141.5 20q-68 0 -105.5 -4t-61 -18.5t-30 -37 t-6.5 -63.5h-268q0 55 7 94.5t25.5 76t52.5 60t87 41t129.5 25.5t179.5 8q95 0 173.5 -12t145.5 -39.5t104.5 -78t37.5 -120.5v-192q0 -69 -54 -119t-124 -61v-9q42 -6 77 -19t66 -35t48.5 -58t17.5 -82v-201q0 -83 -27.5 -143t-71 -94t-113 -54t-138 -26t-162.5 -6 q-95 0 -170.5 10.5t-127 27t-88.5 43t-58 53t-33 62t-15.5 64.5t-3.5 67z" />
<glyph unicode="4" d="M68 229v224l602 856h331v-877h103v-203h-103v-229h-272v229h-661zM293 432h436v639h-4z" />
<glyph unicode="5" d="M117 260v80h278v-33q0 -90 30.5 -117.5t123.5 -27.5h61q97 0 135.5 33t38.5 141v123q0 162 -166 162h-65q-84 0 -112.5 -14.5t-39.5 -59.5h-254v762h889v-193h-610v-395q16 37 63 61.5t117 24.5h94q191 0 281 -75t90 -226v-201q0 -181 -102.5 -253t-345.5 -72h-86 q-81 0 -145 7.5t-107.5 20t-75 33.5t-49 42t-27.5 52.5t-13 59t-3 65.5z" />
<glyph unicode="6" d="M98 319v644q0 200 121.5 283t407.5 83q112 0 194 -15.5t132.5 -41.5t81 -68t41.5 -88t11 -108h-288q0 90 -39.5 114.5t-167.5 24.5q-126 0 -166.5 -33t-40.5 -139v-174h256q76 0 129 -3t103.5 -11.5t83 -24.5t60.5 -40.5t43.5 -61t23.5 -85t8 -112.5v-144q0 -65 -13 -116 t-35 -86.5t-58.5 -60.5t-74.5 -40t-92 -23t-102.5 -10.5t-114.5 -2.5q-68 0 -117.5 2.5t-105.5 10.5t-94.5 22.5t-76.5 39.5t-60.5 60.5t-36 87t-13.5 116.5zM385 319q0 -90 48 -123.5t173 -33.5q110 0 154.5 34t44.5 123v150q0 82 -42 114.5t-159 32.5h-219v-297z" />
<glyph unicode="7" d="M76 1116v193h966v-154l-464 -1155h-302l472 1116h-672z" />
<glyph unicode="8" d="M76 301v166q0 180 203 240q-77 26 -114.5 78t-37.5 114v154q0 54 16 96.5t41 71t64.5 49.5t77 32t88.5 17.5t89.5 8t88.5 1.5t88.5 -1.5t89.5 -8t88.5 -17.5t77 -32t64.5 -49.5t41 -71t16 -96.5v-154q0 -62 -37.5 -114t-114.5 -78q203 -60 203 -240v-166q0 -61 -14 -109 t-38 -81t-62 -57.5t-78.5 -38.5t-97 -22t-107.5 -10.5t-119 -2.5t-119 2.5t-107.5 10.5t-97 22t-78.5 38.5t-62 57.5t-38 81t-14 109zM362 315q0 -43 12 -72.5t29.5 -45t51 -24t61.5 -10t76 -1.5t76 1.5t61 10t50.5 24t29.5 45t12 72.5v113q0 46 -11.5 78t-29.5 50t-49.5 28 t-62 13t-76.5 3t-76.5 -3t-62 -13t-50 -28t-30 -50t-11.5 -78v-113zM416 885q0 -67 43.5 -90t132.5 -23t132.5 23t43.5 90v157q0 28 -9.5 47.5t-24 31t-39 17.5t-47 7.5t-56.5 1.5t-56.5 -1.5t-47 -7.5t-39 -17.5t-24 -31t-9.5 -47.5v-157z" />
<glyph unicode="9" d="M96 846v143q0 64 15.5 116t40.5 87t64.5 60.5t79.5 40t93.5 23t98.5 11t102 2.5q59 0 105 -2.5t101 -10.5t95.5 -22.5t81 -40t66 -61t41.5 -87t16 -116.5v-643q0 -200 -122.5 -283t-408.5 -83q-139 0 -232.5 22t-143.5 67t-69.5 99.5t-19.5 132.5h289q0 -74 44.5 -106.5 t164.5 -32.5q127 0 169 33t42 139v184h-258q-68 0 -116 2.5t-99 10.5t-85 22t-66 38.5t-50 59t-28.5 83.5t-10.5 112zM383 840q0 -81 43.5 -112.5t161.5 -31.5h221v293q0 90 -49 124t-174 34q-111 0 -157 -34.5t-46 -123.5v-149z" />
<glyph unicode=":" horiz-adv-x="524" d="M102 0v283h320v-283h-320zM102 709v282h320v-282h-320z" />
<glyph unicode=";" horiz-adv-x="524" d="M39 -229l94 512h311l-192 -512h-213zM102 709v282h320v-282h-320z" />
<glyph unicode="&#x3c;" d="M145 479v230l897 395v-238l-704 -272l704 -272v-238z" />
<glyph unicode="=" d="M145 276v207h897v-207h-897zM145 702v207h897v-207h-897z" />
<glyph unicode="&#x3e;" d="M145 84v238l705 272l-705 272v238l897 -395v-230z" />
<glyph unicode="?" horiz-adv-x="1083" d="M80 1049q0 49 3 80.5t13 66.5t30 56.5t53.5 42t83 31.5t119 17.5t161.5 6.5q245 0 350.5 -59t105.5 -191v-199q0 -61 -37.5 -119.5t-90.5 -103t-106 -85t-90.5 -81t-37.5 -76.5v-30h-258v57q0 58 18 107t47.5 83t64.5 63.5t70 55t64.5 51t47.5 57.5t18 68v125 q0 48 -39 71t-140 23q-106 0 -137 -20.5t-31 -97.5h-282zM348 0v283h320v-283h-320z" />
<glyph unicode="@" horiz-adv-x="1591" d="M102 340v629q0 81 22 143t67.5 103.5t102 68.5t138.5 41t162.5 19.5t187.5 5.5q94 0 167 -3.5t149 -13.5t132 -27.5t107 -46t83 -68t50.5 -95t18.5 -125.5v-498q0 -170 -264 -170h-64q-74 0 -138.5 20.5t-74.5 51.5q-15 -35 -55.5 -55.5t-136.5 -20.5q-90 0 -143.5 9 t-92.5 36t-54 76t-15 129v231q0 149 71 198.5t275 49.5q107 0 169 -11t98 -41.5t47 -74.5t11 -121v-293q0 -29 18.5 -39t61.5 -10t59.5 9.5t16.5 39.5v478q0 45 -10 78.5t-27 57.5t-50 40t-67.5 26t-92 15t-111 6.5t-136.5 1.5q-98 0 -156 -2t-116.5 -10t-89 -22 t-55.5 -39.5t-34 -62t-9 -89.5v-609q0 -41 9.5 -72t25 -53.5t46 -37.5t63 -24.5t86 -14t104.5 -6t128 -1.5q154 0 336 37v-170q-160 -34 -340 -34q-100 0 -175 3.5t-149 13t-126.5 26.5t-98 44t-73 65t-43 90t-15.5 118zM672 539q0 -69 15.5 -83t90.5 -14h23q28 0 41 0.5 t28.5 4.5t21 10.5t11.5 20.5t7 32.5t1 48.5v209q0 87 -19 108t-101 21q-78 0 -98.5 -22t-20.5 -107v-229z" />
<glyph unicode="A" horiz-adv-x="1335" d="M4 0l479 1329h369l479 -1329h-323l-117 350h-477l-115 -350h-295zM481 555h342l-170 518z" />
<glyph unicode="B" horiz-adv-x="1306" d="M152 0v1329h587q105 0 182.5 -12.5t124.5 -34t75 -54.5t38 -68.5t10 -82.5v-168q0 -159 -182 -200v-9q107 -18 172.5 -72t65.5 -141v-223q0 -145 -110.5 -204.5t-360.5 -59.5h-602zM453 201h280q117 0 154 29t37 106v119q0 74 -44 101.5t-147 27.5h-280v-383zM453 786 h272q95 0 123.5 26t28.5 114v73q0 78 -31 103.5t-127 25.5h-266v-342z" />
<glyph unicode="C" horiz-adv-x="1329" d="M123 340v631q0 115 32.5 188.5t108.5 116t184 58.5t277 16q158 0 258.5 -17.5t162 -61t85.5 -109t24 -169.5h-292q0 81 -54.5 118.5t-203.5 37.5q-72 0 -115.5 -5t-79 -18.5t-52.5 -41t-25.5 -68.5t-8.5 -105v-501q0 -74 13.5 -117.5t50 -69.5t89.5 -34.5t144 -8.5 q82 0 131 8t73 29.5t31 47t7 71.5h292q0 -105 -28.5 -173.5t-94 -109t-160 -57t-237.5 -16.5q-130 0 -220.5 8.5t-169 31.5t-125 63t-72 103.5t-25.5 153.5z" />
<glyph unicode="D" horiz-adv-x="1449" d="M152 0v1329h608q86 0 151.5 -5.5t133.5 -19.5t116.5 -41t87.5 -68t58.5 -103.5t19.5 -143.5v-588q0 -90 -28.5 -155.5t-76 -104.5t-123 -62t-153.5 -30.5t-184 -7.5h-610zM453 201h295q74 0 122.5 8.5t85.5 31t53.5 64t16.5 105.5v497q0 135 -55.5 178t-212.5 43h-305 v-927z" />
<glyph unicode="E" horiz-adv-x="1208" d="M152 0v1329h974v-201h-673v-342h606v-202h-606v-383h694v-201h-995z" />
<glyph unicode="F" horiz-adv-x="1191" d="M152 0v1329h1001v-201h-700v-342h632v-202h-632v-584h-301z" />
<glyph unicode="G" horiz-adv-x="1447" d="M123 336v655q0 76 17.5 133t55.5 96.5t88 65t125 39.5t155 19.5t190 5.5q309 0 435 -82t126 -275h-293q0 78 -64 117t-215 39q-177 0 -248 -39t-71 -158v-565q0 -41 6 -72t15.5 -53.5t29.5 -37t40 -23.5t55 -13.5t67.5 -6t83.5 -1.5h63q141 0 197.5 37.5t56.5 138.5v215 h-209v185h496v-756h-235l-31 100h-8q-25 -65 -114.5 -92.5t-246.5 -27.5q-111 0 -192 8t-155.5 30.5t-120 62t-72.5 103t-27 152.5z" />
<glyph unicode="H" horiz-adv-x="1509" d="M152 0v1329h301v-543h604v543h301v-1329h-301v584h-604v-584h-301z" />
<glyph unicode="I" horiz-adv-x="636" d="M168 0v1329h301v-1329h-301z" />
<glyph unicode="J" horiz-adv-x="1069" d="M41 317h293q0 -81 31 -109t106 -28q78 0 111.5 32.5t33.5 113.5v1003h302v-995q0 -195 -100 -274.5t-349 -79.5q-108 0 -185.5 16.5t-124 44.5t-73.5 73t-36 92t-9 111z" />
<glyph unicode="K" horiz-adv-x="1388" d="M152 0v1329h301v-610l538 610h326l-488 -559l568 -770h-363l-397 573l-184 -215v-358h-301z" />
<glyph unicode="L" horiz-adv-x="1130" d="M152 0v1329h301v-1128h653v-201h-954z" />
<glyph unicode="M" horiz-adv-x="1863" d="M152 0v1329h477l313 -1044l6 -2l291 1046h473v-1329h-282v1124h-11l-325 -1124h-338l-338 1124h-10v-1124h-256z" />
<glyph unicode="N" horiz-adv-x="1511" d="M152 0v1329h380l564 -930v930h264v-1329h-320l-624 1030v-1030h-264z" />
<glyph unicode="O" horiz-adv-x="1478" d="M123 350v631q0 70 14 124.5t38.5 93.5t67 66.5t88.5 44t114.5 25.5t135 12t158.5 3t158.5 -3t135 -12t115 -25.5t89 -44t67 -66.5t38.5 -93.5t14 -124.5v-631q0 -62 -10 -111t-31.5 -86.5t-49.5 -65t-70.5 -46t-87 -30.5t-107 -18.5t-121.5 -8.5t-140 -2q-93 0 -158.5 3 t-134.5 12t-115 25.5t-88.5 43.5t-67 66t-38.5 93.5t-14 124.5zM424 375q0 -50 9.5 -83t29.5 -55.5t59.5 -34t89 -16t127.5 -4.5t128 4.5t89 16t59 34t30 55.5t10 83v581q0 50 -10 83t-30 55.5t-59 34t-89 16t-128 4.5t-127.5 -4.5t-89 -16t-59.5 -34t-29.5 -55.5t-9.5 -83 v-581z" />
<glyph unicode="P" horiz-adv-x="1320" d="M152 0v1329h618q68 0 118 -3t108.5 -11.5t98.5 -26.5t74.5 -46t52 -72.5t17.5 -102.5v-256q0 -173 -114.5 -242t-350.5 -69h-321v-500h-301zM453 700h286q54 0 86.5 5.5t60.5 22t40 49t12 85.5v125q0 91 -37.5 116t-165.5 25h-282v-428z" />
<glyph unicode="Q" horiz-adv-x="1490" d="M123 360v629q0 55 9.5 100t25 79.5t42.5 61.5t56.5 46t72.5 32.5t84 21.5t98 12.5t108 6t120 1.5q78 0 134 -2t119 -7.5t106.5 -17t88 -29.5t73 -45t52 -63.5t34 -86t10.5 -110.5v-495q0 -130 -59 -200t-150 -93h332v-201h-740q-124 0 -212 7.5t-169 30t-129.5 62 t-77 104.5t-28.5 156zM424 410q0 -41 6.5 -72t17 -53.5t31.5 -37.5t43 -24.5t58.5 -14t71 -6t87.5 -1.5q62 0 101 2t78.5 9t62 21t41 37t26 57.5t7.5 82.5v534q0 41 -6 71.5t-16.5 52.5t-31.5 36.5t-43 23.5t-58.5 13.5t-71.5 6t-89 1.5q-47 0 -79 -1t-66 -4.5t-55 -9.5 t-42.5 -16.5t-33 -25.5t-21.5 -36t-14 -48.5t-4 -63.5v-534z" />
<glyph unicode="R" horiz-adv-x="1363" d="M152 0v1329h610q265 0 366 -58t101 -216v-187q0 -84 -53.5 -138.5t-141.5 -74.5v-8q101 -17 148 -69.5t47 -143.5v-434h-301v391q0 51 -9 81t-34 43.5t-50.5 16.5t-78.5 3h-303v-535h-301zM453 735h282q84 0 126.5 18t54.5 49t12 91v106q0 51 -15.5 77t-62 39t-139.5 13 h-258v-393z" />
<glyph unicode="S" horiz-adv-x="1228" d="M80 350h295q2 -45 6 -69t16.5 -47t37 -32.5t64 -15.5t101.5 -6q87 0 136 7.5t76 30.5t34.5 54.5t7.5 89.5v66q0 61 -12 91.5t-52.5 47.5t-121.5 17h-174q-208 0 -309 79.5t-101 229.5v135q0 63 12 109t46.5 88t93.5 68t154.5 41.5t227.5 15.5q95 0 169.5 -9t126.5 -24.5 t88.5 -41.5t57.5 -53t33 -66.5t15.5 -75t3.5 -85.5h-295q0 35 -2 55t-9 40t-20 29.5t-37 17t-56.5 10t-82.5 2.5q-79 0 -121.5 -6.5t-67 -28.5t-30.5 -52.5t-6 -90.5v-39q0 -61 16 -90t63 -42.5t146 -13.5h135q213 0 311.5 -79t98.5 -232v-131q0 -76 -12.5 -132t-42 -97 t-71.5 -67t-107.5 -41t-142 -21t-183.5 -6q-101 0 -178 8.5t-132 22.5t-92.5 39.5t-60 52.5t-34.5 69t-15.5 81t-3.5 97z" />
<glyph unicode="T" horiz-adv-x="1241" d="M41 1128v201h1159v-201h-428v-1128h-301v1128h-430z" />
<glyph unicode="U" horiz-adv-x="1396" d="M143 340v989h301v-936q0 -49 4.5 -82t17.5 -57.5t30.5 -38.5t51 -22t71.5 -10.5t98 -2.5t97.5 2.5t70 11t49.5 21.5t29 38.5t16 57.5t4 82v936h270v-989q0 -91 -25 -155.5t-68.5 -104t-116.5 -62t-154 -30.5t-197 -8q-93 0 -161.5 5.5t-134 19.5t-109.5 39.5t-78 65 t-50 97t-16 133.5z" />
<glyph unicode="V" horiz-adv-x="1335" d="M4 1329h324l354 -1053l354 1053h295l-479 -1329h-369z" />
<glyph unicode="W" horiz-adv-x="2113" d="M25 1329h323l275 -1001h10l252 1001h352l254 -1001h8l293 1001h297l-432 -1329h-357l-249 983l-263 -983h-366z" />
<glyph unicode="X" horiz-adv-x="1386" d="M41 0l494 670l-474 659h353l309 -430l297 430h328l-465 -653l485 -676h-354l-320 444l-323 -444h-330z" />
<glyph unicode="Y" horiz-adv-x="1325" d="M20 1329h355l309 -543l309 543h314l-488 -792v-537h-313v532z" />
<glyph unicode="Z" horiz-adv-x="1249" d="M92 0v168l690 960h-669v201h1032v-168l-690 -960h702v-201h-1065z" />
<glyph unicode="[" horiz-adv-x="798" d="M254 -389v1896h504v-180h-223v-1536h223v-180h-504z" />
<glyph unicode="\" horiz-adv-x="882" d="M20 1350h220l622 -1370h-219z" />
<glyph unicode="]" horiz-adv-x="798" d="M41 -209h223v1536h-223v180h504v-1896h-504v180z" />
<glyph unicode="^" horiz-adv-x="698" d="M41 928l115 401h383l118 -401h-200l-109 319l-106 -319h-201z" />
<glyph unicode="_" d="M145 -143h897v-207h-897v207z" />
<glyph unicode="`" horiz-adv-x="591" d="M61 1393h306l163 -260h-254z" />
<glyph unicode="a" horiz-adv-x="1163" d="M78 287q0 112 30.5 173.5t108.5 91.5t223 30h297v114q0 80 -34.5 106.5t-133.5 26.5q-107 0 -137.5 -18t-30.5 -80h-286q0 103 43 163t145.5 89t280.5 29q85 0 150.5 -8.5t112 -23t79 -39.5t51.5 -51.5t29.5 -66t14 -76t3.5 -88.5v-659h-272v94h-4q-7 -34 -32 -57.5 t-67 -35t-88 -16.5t-106 -5q-84 0 -140 6.5t-104.5 25.5t-75.5 53t-42 88.5t-15 133.5zM365 281q0 -79 31 -99t124 -20h58q90 0 124.5 17t34.5 67v170h-223q-99 0 -124 -22.5t-25 -112.5z" />
<glyph unicode="b" horiz-adv-x="1259" d="M139 352v1082h287v-541q27 66 104 92.5t228 26.5q201 0 295 -81.5t94 -275.5v-336q0 -86 -23.5 -147.5t-63.5 -98.5t-107 -58t-139 -28t-175 -7q-53 0 -88 1t-79.5 3.5t-74.5 8.5t-64.5 15.5t-57.5 24t-47 34.5t-38.5 47.5t-27 62t-18 78.5t-5.5 97zM426 307 q0 -87 41.5 -116t173.5 -29q92 0 138 13.5t63.5 43.5t17.5 90v385q0 84 -43 109.5t-178 25.5q-90 0 -136 -13.5t-61.5 -41t-15.5 -80.5v-387z" />
<glyph unicode="c" horiz-adv-x="1110" d="M113 303v365q0 85 19.5 144.5t56.5 98.5t100 61.5t139.5 31t185.5 8.5q239 0 337 -70t98 -248h-283q0 47 -4.5 70.5t-23 39.5t-49.5 20.5t-91 4.5q-125 0 -162 -23t-37 -114v-362q0 -74 14 -107t55 -47t130 -14q61 0 92.5 4t49.5 21t22 39.5t4 70.5h283 q0 -117 -39 -183.5t-137.5 -100t-272.5 -33.5q-65 0 -104.5 1.5t-97 8t-93 18.5t-76 35.5t-63 57.5t-38 85t-15.5 117z" />
<glyph unicode="d" horiz-adv-x="1253" d="M113 311v326q0 105 17 173t61 115t117.5 67t187.5 20q151 0 227.5 -26.5t103.5 -92.5v541h287v-1082q0 -70 -12 -125t-33 -94t-57 -66.5t-75 -44.5t-96 -26.5t-112.5 -12.5t-130.5 -3q-105 0 -176.5 7.5t-134 28t-98.5 57.5t-56 95.5t-20 142.5zM399 297q0 -60 16 -87 t58.5 -37.5t136.5 -10.5q133 0 175 29.5t42 115.5v387q0 78 -42 106.5t-173 28.5q-94 0 -139.5 -13.5t-59.5 -41t-14 -86.5v-391z" />
<glyph unicode="e" horiz-adv-x="1193" d="M113 315v359q0 100 29.5 166t94 103.5t151.5 53t216 15.5q250 0 363.5 -74t113.5 -264v-246h-682v-115q0 -93 40.5 -122t170.5 -29q110 0 144 25.5t34 109.5h283q0 -180 -100.5 -248.5t-341.5 -68.5q-108 0 -185.5 8.5t-143 30t-105 59t-61 96.5t-21.5 141zM399 588h396 v96q0 84 -39 114.5t-156 30.5q-120 0 -160.5 -26.5t-40.5 -118.5v-96z" />
<glyph unicode="f" horiz-adv-x="761" d="M20 809v182h187v160q0 303 430 303q59 0 145 -4v-182q-32 4 -77 4q-127 0 -169 -31t-42 -135v-115h268v-182h-268v-809h-287v809h-187z" />
<glyph unicode="g" horiz-adv-x="1241" d="M98 -111q0 84 33.5 125t99.5 62q-38 5 -62.5 22t-34.5 44t-13.5 49.5t-3.5 54.5q0 60 20 94.5t80 54.5q-53 33 -78.5 96.5t-25.5 170.5v16q0 96 27 161.5t63 99t109 50.5t126 20t154 3h622v-183h-122q22 -64 22 -151v-16q0 -65 -14.5 -115t-34.5 -83t-61 -56t-74 -34.5 t-94.5 -17.5t-101 -7t-113.5 -1h-11q-102 0 -142.5 -4.5t-56.5 -19t-16 -50.5q0 -28 14.5 -40.5t62.5 -18.5t151 -6q70 0 117.5 -1t98 -4t83 -7.5t67 -13.5t54.5 -21.5t40 -30.5t30.5 -40.5t19 -52.5t11.5 -65.5t3 -81.5v-59q0 -72 -28.5 -124.5t-73.5 -82.5t-116.5 -47.5 t-141.5 -23t-164 -5.5q-67 0 -116.5 2t-107.5 9t-99 18.5t-81.5 33t-65.5 51t-40 72.5t-15 97v57zM385 -121v-41q0 -45 18 -69t70 -37t150 -13q99 0 149 10.5t69 35t19 73.5v41q0 38 -6.5 60t-18.5 37t-43.5 21.5t-66.5 8.5t-102 2q-110 0 -160.5 -13t-64 -37t-13.5 -79z M399 647q0 -54 13.5 -79t58.5 -37.5t139 -12.5q96 0 141 11.5t60.5 37t15.5 80.5v60q0 78 -40 100t-177 22q-130 0 -170.5 -22t-40.5 -100v-60z" />
<glyph unicode="h" horiz-adv-x="1234" d="M139 0v1434h287v-564q33 142 326 142q103 0 171.5 -18t105.5 -55.5t52 -85.5t15 -118v-735h-287v696q0 81 -39 107t-154 26q-82 0 -124 -16t-54 -44t-12 -83v-686h-287z" />
<glyph unicode="i" horiz-adv-x="598" d="M156 0v991h286v-991h-286zM156 1139v241h286v-241h-286z" />
<glyph unicode="j" horiz-adv-x="565" d="M0 -274q60 1 88 14t39.5 48t11.5 110v1093h287v-1141q0 -75 -20 -129.5t-53 -87t-85.5 -52t-108.5 -26t-132 -6.5h-27v177zM141 1139v241h287v-241h-287z" />
<glyph unicode="k" horiz-adv-x="1150" d="M139 0v1434h287v-908l389 465h293l-324 -366l367 -625h-322l-235 440l-168 -190v-250h-287z" />
<glyph unicode="l" horiz-adv-x="598" d="M156 164v1270h286v-1188q0 -36 14.5 -56t63.5 -20h41v-170h-209q-196 0 -196 164z" />
<glyph unicode="m" horiz-adv-x="1863" d="M139 0v991h283v-121h4q30 142 305 142q143 0 220 -36t104 -108q26 77 104 110.5t221 33.5q103 0 171.5 -18t105.5 -55.5t52 -85.5t15 -118v-735h-286v709q0 79 -32 99.5t-142 20.5q-87 0 -127 -13t-51 -38t-11 -80v-698h-287v709q0 79 -32 99.5t-142 20.5 q-67 0 -104 -5.5t-56 -23t-23.5 -39t-4.5 -63.5v-698h-287z" />
<glyph unicode="n" horiz-adv-x="1234" d="M139 0v991h281v-121h8q30 142 324 142q103 0 171.5 -18t105.5 -55.5t52 -85.5t15 -118v-735h-287v696q0 81 -39 107t-154 26q-82 0 -124 -16t-54 -44t-12 -83v-686h-287z" />
<glyph unicode="o" horiz-adv-x="1232" d="M113 334v323q0 105 26 172.5t88 108.5t154 57.5t235 16.5t235.5 -16.5t154.5 -57.5t88 -108.5t26 -172.5v-323q0 -204 -111 -279t-393 -75q-114 0 -194.5 10.5t-141.5 34.5t-96.5 65.5t-53 100.5t-17.5 143zM399 336q0 -41 3 -68t13 -47.5t23.5 -31t40.5 -17.5t57 -8.5 t80 -1.5t80 2t57 8.5t40.5 17t24 31t13.5 47.5t3 68v303q0 46 -2.5 75.5t-13 52t-23.5 34t-40.5 18.5t-57 8.5t-81.5 1.5t-81.5 -1.5t-57 -9t-40 -18.5t-23 -33.5t-13 -52t-2.5 -75.5v-303z" />
<glyph unicode="p" horiz-adv-x="1259" d="M139 -430v1069q0 65 7 115.5t24 89t38 65.5t57 46t71.5 30t92 17t108.5 8t129 2q68 0 114.5 -1.5t97 -7t83.5 -15.5t66.5 -27t53.5 -41.5t36 -58.5t23 -79t7 -102v-326q0 -51 -3 -89.5t-13 -79.5t-27 -70t-46.5 -56t-69.5 -43.5t-97.5 -26t-130.5 -9.5q-152 0 -229.5 26 t-104.5 92v-528h-287zM426 297q0 -80 44 -113.5t173 -33.5q75 0 114 4.5t64.5 21t32 43.5t6.5 78v397q0 60 -16.5 90t-62 44t-136.5 14q-132 0 -175.5 -30.5t-43.5 -117.5v-397z" />
<glyph unicode="q" horiz-adv-x="1259" d="M113 313v326q0 57 6 103t16.5 82.5t30.5 64t41.5 47.5t55.5 33.5t67 22t82.5 13t95 6t110.5 1.5q76 0 127 -2t105 -8t88 -17t67.5 -30t52.5 -46t34.5 -65.5t21.5 -89t6 -115.5v-1069h-286v528q-27 -66 -104.5 -92t-229.5 -26q-86 0 -149 9t-105.5 29.5t-69 46t-40.5 66.5 t-18.5 81.5t-4.5 100.5zM399 297q0 -51 6.5 -78t32 -43.5t64.5 -21t114 -4.5q129 0 173.5 33.5t44.5 113.5v397q0 86 -43.5 117t-176.5 31q-91 0 -136.5 -14t-62 -44t-16.5 -90v-397z" />
<glyph unicode="r" horiz-adv-x="813" d="M139 0v991h273v-200h10q0 80 75 150.5t185 70.5h106v-226h-102q-121 0 -190.5 -48t-69.5 -142v-596h-287z" />
<glyph unicode="s" horiz-adv-x="1101" d="M66 293h286q0 -41 4.5 -62.5t23.5 -39t55.5 -23.5t101.5 -6q67 0 103 4.5t59 20t29.5 39.5t6.5 69q0 76 -39 98.5t-143 22.5h-107q-196 0 -281 55.5t-85 185.5v101q0 136 100.5 195t351.5 59q134 0 221 -17t137.5 -54t70.5 -90.5t20 -135.5h-283q0 78 -28.5 96t-139.5 18 q-41 0 -62.5 -0.5t-43 -5t-30 -10.5t-16.5 -20t-9.5 -31.5t-1.5 -46.5q0 -72 28.5 -98.5t120.5 -26.5h117q203 0 296 -53.5t93 -182.5v-112q0 -90 -43.5 -146t-151.5 -86t-290 -30q-131 0 -216 13.5t-144.5 49t-85 96t-25.5 154.5z" />
<glyph unicode="t" horiz-adv-x="813" d="M20 809v182h201v226l287 122v-348h285v-182h-285v-471q0 -59 4.5 -89t22.5 -54t53 -31.5t98 -7.5q34 0 107 10v-176q-85 -10 -166 -10q-70 0 -122.5 5.5t-109 24t-92 51t-59 90.5t-23.5 138v520h-201z" />
<glyph unicode="u" horiz-adv-x="1212" d="M139 256v735h287v-708q0 -78 36.5 -99.5t139.5 -21.5q83 0 122 13t50.5 38t11.5 80v698h287v-991h-285v121h-4q-30 -141 -313 -141q-103 0 -169.5 17.5t-101.5 55.5t-48 85t-13 118z" />
<glyph unicode="v" horiz-adv-x="1056" d="M16 991h293l226 -696l231 696h274l-366 -991h-291z" />
<glyph unicode="w" horiz-adv-x="1671" d="M25 991h260l211 -719l196 719h279l205 -719l210 719h261l-324 -991h-307l-197 670l-192 -670h-279z" />
<glyph unicode="x" horiz-adv-x="1116" d="M0 0l403 504l-383 487h314l235 -299l226 299h301l-381 -483l401 -508h-313l-250 315l-252 -315h-301z" />
<glyph unicode="y" horiz-adv-x="1069" d="M25 991h292l220 -680l231 680h276l-413 -1118q-69 -186 -155.5 -255t-237.5 -69q-104 0 -170 17v190q58 -8 96 -8q76 0 116.5 31.5t79.5 136.5l33 86z" />
<glyph unicode="z" horiz-adv-x="962" d="M37 0v147l520 662h-500v182h861v-147l-521 -662h533v-182h-893z" />
<glyph unicode="{" horiz-adv-x="786" d="M131 498v188q71 0 89 34.5t18 151.5v283q0 89 20.5 155t51 103t76.5 59t87.5 28.5t93.5 6.5h88v-178h-20q-49 0 -77 -33.5t-28 -99.5v-313q0 -126 -33.5 -190.5t-127.5 -96.5v-8q94 -31 127.5 -96t33.5 -191v-379q0 -66 28 -99.5t77 -33.5h20v-178h-88q-52 0 -93.5 6.5 t-87.5 28.5t-76.5 59t-51 103t-20.5 155v348q0 117 -18 152t-89 35z" />
<glyph unicode="|" horiz-adv-x="686" d="M287 -20v1370h112v-1370h-112z" />
<glyph unicode="}" horiz-adv-x="786" d="M131 -211h21q49 0 76.5 33.5t27.5 99.5v400q0 126 33.5 190.5t128.5 95.5v8q-95 33 -128.5 97t-33.5 190v293q0 66 -27.5 99.5t-76.5 33.5h-21v178h88q52 0 93.5 -6.5t87.5 -28.5t77 -59t51.5 -103t20.5 -155v-262q0 -118 17.5 -152t88.5 -34v-189q-71 0 -88.5 -34 t-17.5 -152v-369q0 -89 -20.5 -155t-51.5 -103t-77 -59t-87.5 -28.5t-93.5 -6.5h-88v178z" />
<glyph unicode="~" d="M139 451v227q76 92 250 92q49 0 111.5 -19t111 -41.5t103 -41.5t90.5 -19q88 0 145.5 30t98.5 97v-227q-38 -50 -97 -72t-155 -22q-65 0 -209.5 60t-206.5 60q-87 0 -143 -29.5t-99 -94.5z" />
<glyph unicode="&#xa1;" horiz-adv-x="604" d="M123 -340l88 924h182l88 -924h-358zM143 707v282h320v-282h-320z" />
<glyph unicode="&#xa2;" d="M113 485v365q0 93 25 156.5t79 102t127.5 57.5t179.5 24v160h191v-158q197 -11 286 -83t89 -232h-283q0 85 -36.5 110t-152.5 25q-129 0 -174 -24.5t-45 -113.5v-362q0 -103 43.5 -135.5t175.5 -32.5q118 0 153.5 25t35.5 110h283q0 -156 -85.5 -229.5t-289.5 -85.5v-182 h-191v180q-58 2 -104 7.5t-95.5 18t-85.5 35.5t-66 57.5t-45 86t-15 118.5z" />
<glyph unicode="&#xa3;" d="M104 0v201h146v383h-146v202h146v156q0 97 25.5 167.5t66 112t104 66.5t126.5 33t145 8q208 0 306.5 -69t98.5 -228h-274q0 71 -34 93t-122 22q-97 0 -126 -36.5t-29 -141.5v-183h329v-202h-329v-383h591v-201h-1024z" />
<glyph unicode="&#xa4;" horiz-adv-x="1064" d="M25 690q0 175 127 334l-111 111l53 53l111 -111q156 121 323 121q183 0 334 -117l111 111l53 -53l-111 -111q127 -159 127 -334t-127 -334l111 -110l-53 -53l-111 110q-161 -125 -334 -125q-167 0 -323 121l-111 -110l-53 53l111 110q-127 159 -127 334zM106 690 q0 -179 126 -302.5t305 -123.5q116 0 214 59t154 158t56 213q0 172 -124 297t-298 125q-181 0 -307 -122t-126 -304z" />
<glyph unicode="&#xa5;" d="M35 1309h317l242 -514l237 514h322l-309 -568h219v-194h-326v-156h326v-192h-326v-199h-291v199h-323v192h323v156h-323v194h215z" />
<glyph unicode="&#xa6;" horiz-adv-x="686" d="M205 -389v799h276v-799h-276zM205 676v758h276v-758h-276z" />
<glyph unicode="&#xa7;" d="M78 496v143q0 51 41 101t94 69q-39 20 -66.5 62.5t-27.5 82.5v125q0 110 111 180t350 70q135 0 227 -24t139 -70t65.5 -100t18.5 -127h-289q0 82 -35.5 110.5t-127.5 28.5q-97 0 -134.5 -20t-37.5 -64v-64q0 -50 37.5 -70t138.5 -20h155q181 0 277 -68.5t96 -203.5v-96 q0 -62 -43.5 -122.5t-93.5 -78.5q43 -13 69.5 -54.5t26.5 -86.5v-117q0 -104 -61.5 -172.5t-166 -97.5t-251.5 -29q-140 0 -234 22t-144 67t-69.5 99.5t-19.5 132.5h287q0 -73 45 -106t161 -33q166 0 166 109v78q0 31 -34 58.5t-115 27.5h-164q-179 0 -285 64t-106 194z M365 492q0 -24 32 -31.5t90 -7.5h234q59 0 80.5 14t21.5 45v127q0 29 -28 43t-107 14h-244q-79 0 -79 -53v-151z" />
<glyph unicode="&#xa8;" horiz-adv-x="811" d="M82 1157v242h258v-242h-258zM471 1157v242h258v-242h-258z" />
<glyph unicode="&#xa9;" horiz-adv-x="1591" d="M102 340v629q0 81 23.5 143t71.5 103.5t107 68.5t143.5 41t166.5 19.5t189 5.5q93 0 165.5 -3.5t146.5 -14t128 -28t102.5 -46t78.5 -68t47.5 -94.5t17.5 -125v-631q0 -75 -22 -133t-67.5 -97t-102.5 -65t-138.5 -40t-164.5 -19.5t-191 -5.5q-110 0 -194.5 5.5t-168 19 t-142 39.5t-104.5 65t-69 97t-23 134zM324 356q0 -41 9.5 -72t25.5 -53.5t47.5 -37.5t65 -24.5t90 -14t110 -6t135.5 -1.5q63 0 100 0.5t85 2.5t75.5 6t61 11t51 18t37 26.5t28.5 36.5t15 47.5t6 60.5v609q0 45 -8 78t-22.5 57.5t-43.5 40.5t-60.5 26t-85.5 15t-106.5 6.5 t-134.5 1.5q-73 0 -121.5 -1t-100 -4.5t-84 -10.5t-65 -18.5t-50.5 -27.5t-33 -39.5t-21 -54t-6 -69.5v-609zM477 520v320q0 118 73 161t253 43q181 0 243 -39.5t62 -156.5v-86h-211v39q0 57 -16.5 72.5t-83.5 15.5q-59 0 -79 -15.5t-20 -80.5v-226q0 -69 16.5 -84.5 t82.5 -15.5q67 0 83.5 13t16.5 75v41h211v-88q0 -64 -11.5 -100t-46.5 -59t-91.5 -30.5t-155.5 -7.5q-57 0 -94 1.5t-75 6t-60.5 14t-43.5 24.5t-31 37.5t-16 53t-6 72.5z" />
<glyph unicode="&#xaa;" horiz-adv-x="745" d="M59 512v131h570v-131h-570zM61 895q0 100 44 138t171 38h179v88q0 40 -17 52t-65 12h-43q-43 0 -59.5 -13t-16.5 -49h-170q0 40 2.5 61t14 45t35 35.5t65.5 19t106 7.5h94q93 0 142.5 -20.5t66.5 -58.5t17 -107v-420h-164v55h-2q-12 -67 -176 -67q-64 0 -102 6.5 t-68 25.5t-42 55.5t-12 96.5zM231 891q0 -47 19 -59.5t74 -12.5h34q55 0 76 9.5t21 39.5v99h-133q-62 0 -76.5 -11.5t-14.5 -64.5z" />
<glyph unicode="&#xab;" horiz-adv-x="1040" d="M82 496l205 393h237l-188 -393l188 -394h-237zM516 496l205 393h237l-188 -393l188 -394h-237z" />
<glyph unicode="&#xac;" d="M145 489v207h897v-716h-213v509h-684z" />
<glyph unicode="&#xad;" horiz-adv-x="0" />
<glyph unicode="&#xae;" horiz-adv-x="1591" d="M102 340v629q0 81 23.5 143t71.5 103.5t107 68.5t143.5 41t166.5 19.5t189 5.5q93 0 165.5 -3.5t146.5 -14t128 -28t102.5 -46t78.5 -68t47.5 -94.5t17.5 -125v-631q0 -75 -22 -133t-67.5 -97t-102.5 -65t-138.5 -40t-164.5 -19.5t-191 -5.5q-110 0 -194.5 5.5t-168 19 t-142 39.5t-104.5 65t-69 97t-23 134zM324 356q0 -41 9.5 -72t25.5 -53.5t47.5 -37.5t65 -24.5t90 -14t110 -6t135.5 -1.5q63 0 100 0.5t85 2.5t75.5 6t61 11t51 18t37 26.5t28.5 36.5t15 47.5t6 60.5v609q0 45 -8 78t-22.5 57.5t-43.5 40.5t-60.5 26t-85.5 15t-106.5 6.5 t-134.5 1.5q-73 0 -121.5 -1t-100 -4.5t-84 -10.5t-65 -18.5t-50.5 -27.5t-33 -39.5t-21 -54t-6 -69.5v-609zM514 328v714h301q61 0 99.5 -2.5t76.5 -11.5t58.5 -25.5t33.5 -45t13 -70.5v-115q0 -72 -36.5 -104.5t-109.5 -49.5l174 -290h-217l-147 276h-45v-276h-201z M715 723h96q55 0 69.5 14t14.5 66v51q0 42 -15.5 56t-58.5 14h-106v-201z" />
<glyph unicode="&#xaf;" horiz-adv-x="651" d="M61 1147v182h529v-182h-529z" />
<glyph unicode="&#xb0;" horiz-adv-x="894" d="M94 848v231q0 60 18 103t47.5 67.5t77.5 38.5t96 18.5t116 4.5t115.5 -4.5t95.5 -18.5t76.5 -38.5t46.5 -67.5t18 -103v-231q0 -60 -18 -103t-46.5 -67.5t-76.5 -38.5t-95.5 -18.5t-115.5 -4.5t-116 4.5t-96 18.5t-77.5 38.5t-47.5 67.5t-18 103zM307 836q0 -23 8 -39 t18.5 -24.5t31.5 -12.5t37.5 -5t46.5 -1t46 1t37 5t31 12.5t17.5 24.5t7.5 39v256q0 23 -7.5 39t-17.5 24.5t-31 12.5t-37 5t-46 1t-46.5 -1t-37.5 -5t-31.5 -12.5t-18.5 -24.5t-8 -39v-256z" />
<glyph unicode="&#xb1;" d="M145 0v186h897v-186h-897zM145 489v207h340v346h215v-346h342v-207h-340v-223h-215v223h-342z" />
<glyph unicode="&#xb2;" horiz-adv-x="712" d="M47 614v115q0 84 36 124t134 81l123 51q47 20 69.5 40t22.5 54v51q0 44 -15.5 57t-78.5 13q-54 0 -68 -16t-14 -56h-209q0 52 9.5 84.5t39 61.5t89.5 42t155 13q163 0 233 -39t70 -137v-98q0 -61 -45 -103t-135 -78l-127 -51q-55 -23 -72.5 -37t-19.5 -34h399v-138h-596z " />
<glyph unicode="&#xb3;" horiz-adv-x="712" d="M18 807h207q0 -42 18.5 -58t84.5 -16q27 0 40 0.5t29 3.5t22.5 9.5t11.5 18.5t5 30v79q0 44 -80 44h-157v124h159q30 0 44 8t14 35v78q0 24 -18 30.5t-64 6.5q-62 0 -79 -11t-17 -52h-199q0 53 10.5 86t42 58.5t92 36.5t156.5 11q289 0 289 -145v-101q0 -52 -66 -90 q82 -29 82 -104v-103q0 -47 -17 -80.5t-44 -53t-70 -30.5t-85.5 -14.5t-100.5 -3.5q-82 0 -141.5 12.5t-91 31t-50 48t-23 54t-4.5 57.5z" />
<glyph unicode="&#xb4;" horiz-adv-x="591" d="M61 1133l164 260h305l-215 -260h-254z" />
<glyph unicode="&#xb6;" horiz-adv-x="940" d="M82 1026q0 175 46 239t173 64h557v-33l-47 -34q-43 -32 -43 -76v-1616h-109v1671h-143v-1671h-108v1151q-71 0 -119 4.5t-86.5 18t-60 34t-36 56t-19.5 80.5t-5 112z" />
<glyph unicode="&#xb7;" horiz-adv-x="524" d="M102 504v282h320v-282h-320z" />
<glyph unicode="&#xb8;" horiz-adv-x="485" d="M61 -307q4 -1 27 -6.5t40.5 -9.5t41.5 -7.5t41 -3.5q45 0 63.5 15.5t18.5 50.5q0 31 -18.5 46t-67.5 15h-111v207h162v-88h10q104 0 150.5 -39t46.5 -135q0 -98 -59 -143.5t-187 -45.5q-28 0 -59 3.5t-61.5 9t-37.5 6.5v125z" />
<glyph unicode="&#xb9;" horiz-adv-x="712" d="M119 1047v149l203 123h167v-705h-204v516z" />
<glyph unicode="&#xba;" horiz-adv-x="731" d="M59 512v131h613v-131h-613zM61 909v207q0 43 9 76t22.5 55t37.5 38t47 24.5t58 13t62.5 5.5t69.5 1t69.5 -1t62.5 -5.5t57.5 -13t46.5 -24.5t37.5 -38t22.5 -55t9 -76v-207q0 -55 -17 -93t-42 -58t-69 -31t-81 -13.5t-96 -2.5q-42 0 -70 1t-63 5.5t-57.5 12.5t-46.5 22.5 t-38 35t-22.5 51.5t-8.5 70zM236 911q0 -63 22.5 -77.5t108.5 -14.5q84 0 106.5 14.5t22.5 77.5v207q0 70 -21.5 85.5t-107.5 15.5q-87 0 -109 -15.5t-22 -85.5v-207z" />
<glyph unicode="&#xbb;" horiz-adv-x="1040" d="M82 102l188 394l-188 393h237l205 -393l-205 -394h-237zM516 102l189 394l-189 393h238l204 -393l-204 -394h-238z" />
<glyph unicode="&#xbc;" horiz-adv-x="1689" d="M119 1047v149l203 123h167v-705h-204v516zM414 -20l622 1370h197l-623 -1370h-196zM936 117v137l354 451h228v-449h59v-139h-59v-117h-199v117h-383zM1126 256h193l-4 248z" />
<glyph unicode="&#xbd;" horiz-adv-x="1689" d="M119 1047v149l203 123h167v-705h-204v516zM414 -20l622 1370h197l-623 -1370h-196zM958 0v115q0 84 36 123.5t134 80.5l123 52q47 20 69.5 40t22.5 54v51q0 44 -15.5 57t-78.5 13q-54 0 -68 -16t-14 -56h-209q0 52 9.5 84.5t39 61.5t89.5 42t155 13q163 0 233 -39 t70 -137v-99q0 -61 -45 -102t-135 -78l-127 -51q-55 -23 -72.5 -37t-19.5 -35h399v-137h-596z" />
<glyph unicode="&#xbe;" horiz-adv-x="1689" d="M18 807h207q0 -42 18.5 -58t84.5 -16q27 0 40 0.5t29 3.5t22.5 9.5t11.5 18.5t5 30v79q0 44 -80 44h-157v124h159q30 0 44 8t14 35v78q0 24 -18 30.5t-64 6.5q-62 0 -79 -11t-17 -52h-199q0 53 10.5 86t42 58.5t92 36.5t156.5 11q289 0 289 -145v-101q0 -52 -66 -90 q82 -29 82 -104v-103q0 -47 -17 -80.5t-44 -53t-70 -30.5t-85.5 -14.5t-100.5 -3.5q-82 0 -141.5 12.5t-91 31t-50 48t-23 54t-4.5 57.5zM414 -20l622 1370h197l-623 -1370h-196zM936 117v137l354 451h228v-449h59v-139h-59v-117h-199v117h-383zM1126 256h193l-4 248z" />
<glyph unicode="&#xbf;" horiz-adv-x="1083" d="M84 90q0 61 37.5 119.5t90.5 103t106 85t90.5 81t37.5 76.5v31h259v-58q0 -58 -18 -107t-47.5 -83t-64.5 -63.5t-70 -55t-64.5 -51t-47.5 -57.5t-18 -68v-125q0 -49 38.5 -71.5t139.5 -22.5q106 0 137 21t31 98h283q0 -49 -3 -80.5t-13 -66.5t-30 -56.5t-53.5 -42 t-83 -31.5t-119 -17.5t-161.5 -6.5q-245 0 -351 58.5t-106 190.5v199zM416 709v282h319v-282h-319z" />
<glyph unicode="&#xc0;" horiz-adv-x="1335" d="M4 0l479 1329h369l479 -1329h-323l-117 350h-477l-115 -350h-295zM330 1731h305l164 -261h-254zM481 555h342l-170 518z" />
<glyph unicode="&#xc1;" horiz-adv-x="1335" d="M4 0l479 1329h369l479 -1329h-323l-117 350h-477l-115 -350h-295zM481 555h342l-170 518zM535 1470l163 261h306l-216 -261h-253z" />
<glyph unicode="&#xc2;" horiz-adv-x="1335" d="M4 0l479 1329h369l479 -1329h-323l-117 350h-477l-115 -350h-295zM358 1470l115 261h383l119 -261h-201l-108 179l-107 -179h-201zM481 555h342l-170 518z" />
<glyph unicode="&#xc3;" horiz-adv-x="1335" d="M4 0l479 1329h369l479 -1329h-323l-117 350h-477l-115 -350h-295zM385 1442v192q21 26 63 43t91 17q50 0 133.5 -35t122.5 -35q94 0 153 88v-184q-21 -36 -64 -58t-89 -22q-52 0 -134.5 37t-121.5 37q-47 0 -90.5 -24t-63.5 -56zM481 555h342l-170 518z" />
<glyph unicode="&#xc4;" horiz-adv-x="1335" d="M4 0l479 1329h369l479 -1329h-323l-117 350h-477l-115 -350h-295zM344 1495v242h258v-242h-258zM481 555h342l-170 518zM733 1495v242h258v-242h-258z" />
<glyph unicode="&#xc5;" horiz-adv-x="1335" d="M4 0l436 1212q-61 70 -61 172q0 115 80.5 198t197.5 83q114 0 197.5 -83.5t83.5 -197.5q0 -89 -51 -155l444 -1229h-323l-117 350h-477l-115 -350h-295zM481 555h342l-170 518zM545 1382q0 -46 33 -79t79 -33q45 0 79 33.5t34 78.5q0 44 -34.5 78.5t-78.5 34.5 q-45 0 -78.5 -34t-33.5 -79z" />
<glyph unicode="&#xc6;" horiz-adv-x="2054" d="M-8 0l758 1329h1224v-201h-674v-342h607v-202h-607v-383h695v-201h-996v371h-503l-197 -371h-307zM606 578h393v550h-100z" />
<glyph unicode="&#xc7;" horiz-adv-x="1329" d="M123 340v631q0 115 32.5 188.5t108.5 116t184 58.5t277 16q158 0 258.5 -17.5t162 -61t85.5 -109t24 -169.5h-292q0 81 -54.5 118.5t-203.5 37.5q-72 0 -115.5 -5t-79 -18.5t-52.5 -41t-25.5 -68.5t-8.5 -105v-501q0 -74 13.5 -117.5t50 -69.5t89.5 -34.5t144 -8.5 q82 0 131 8t73 29.5t31 47t7 71.5h292q0 -105 -28.5 -173.5t-94 -109t-160 -57t-237.5 -16.5q-130 0 -220.5 8.5t-169 31.5t-125 63t-72 103.5t-25.5 153.5zM463 -307q4 -1 27 -6.5t40 -9.5t41 -7.5t41 -3.5q45 0 63.5 15.5t18.5 50.5q0 31 -18.5 46t-67.5 15h-110v207h161 v-88h11q104 0 150 -39t46 -135q0 -98 -59 -143.5t-186 -45.5q-28 0 -59 3.5t-61.5 9t-37.5 6.5v125z" />
<glyph unicode="&#xc8;" horiz-adv-x="1208" d="M152 0v1329h974v-201h-673v-342h606v-202h-606v-383h694v-201h-995zM369 1731h305l164 -261h-254z" />
<glyph unicode="&#xc9;" horiz-adv-x="1208" d="M152 0v1329h974v-201h-673v-342h606v-202h-606v-383h694v-201h-995zM369 1470l163 261h306l-215 -261h-254z" />
<glyph unicode="&#xca;" horiz-adv-x="1208" d="M152 0v1329h974v-201h-673v-342h606v-202h-606v-383h694v-201h-995zM295 1470l115 261h383l118 -261h-200l-109 179l-106 -179h-201z" />
<glyph unicode="&#xcb;" horiz-adv-x="1208" d="M152 0v1329h974v-201h-673v-342h606v-202h-606v-383h694v-201h-995zM281 1495v242h258v-242h-258zM670 1495v242h258v-242h-258z" />
<glyph unicode="&#xcc;" horiz-adv-x="636" d="M84 1731h305l164 -261h-254zM168 0v1329h301v-1329h-301z" />
<glyph unicode="&#xcd;" horiz-adv-x="636" d="M84 1470l164 261h305l-215 -261h-254zM168 0v1329h301v-1329h-301z" />
<glyph unicode="&#xce;" horiz-adv-x="636" d="M10 1470l115 261h383l119 -261h-201l-109 179l-106 -179h-201zM168 0v1329h301v-1329h-301z" />
<glyph unicode="&#xcf;" horiz-adv-x="636" d="M-4 1495v242h258v-242h-258zM168 0v1329h301v-1329h-301zM385 1495v242h258v-242h-258z" />
<glyph unicode="&#xd0;" horiz-adv-x="1449" d="M47 582v204h105v543h608q86 0 151.5 -5.5t133.5 -19.5t116.5 -41t87.5 -68t58.5 -103.5t19.5 -143.5v-588q0 -90 -28.5 -155.5t-76 -104.5t-123 -62t-153.5 -30.5t-184 -7.5h-610v582h-105zM453 201h295q74 0 122.5 8.5t85.5 31t53.5 64t16.5 105.5v497q0 135 -55.5 178 t-212.5 43h-305v-342h204v-204h-204v-381z" />
<glyph unicode="&#xd1;" horiz-adv-x="1511" d="M152 0v1329h380l564 -930v930h264v-1329h-320l-624 1030v-1030h-264zM473 1442v192q21 26 63 43t91 17q50 0 133.5 -35t122.5 -35q94 0 153 88v-184q-21 -36 -64 -58t-89 -22q-52 0 -134.5 37t-121.5 37q-47 0 -90.5 -24t-63.5 -56z" />
<glyph unicode="&#xd2;" horiz-adv-x="1478" d="M123 350v631q0 70 14 124.5t38.5 93.5t67 66.5t88.5 44t114.5 25.5t135 12t158.5 3t158.5 -3t135 -12t115 -25.5t89 -44t67 -66.5t38.5 -93.5t14 -124.5v-631q0 -62 -10 -111t-31.5 -86.5t-49.5 -65t-70.5 -46t-87 -30.5t-107 -18.5t-121.5 -8.5t-140 -2q-93 0 -158.5 3 t-134.5 12t-115 25.5t-88.5 43.5t-67 66t-38.5 93.5t-14 124.5zM424 375q0 -50 9.5 -83t29.5 -55.5t59.5 -34t89 -16t127.5 -4.5t128 4.5t89 16t59 34t30 55.5t10 83v581q0 50 -10 83t-30 55.5t-59 34t-89 16t-128 4.5t-127.5 -4.5t-89 -16t-59.5 -34t-29.5 -55.5t-9.5 -83 v-581zM504 1731h305l164 -261h-254z" />
<glyph unicode="&#xd3;" horiz-adv-x="1478" d="M123 350v631q0 70 14 124.5t38.5 93.5t67 66.5t88.5 44t114.5 25.5t135 12t158.5 3t158.5 -3t135 -12t115 -25.5t89 -44t67 -66.5t38.5 -93.5t14 -124.5v-631q0 -62 -10 -111t-31.5 -86.5t-49.5 -65t-70.5 -46t-87 -30.5t-107 -18.5t-121.5 -8.5t-140 -2q-93 0 -158.5 3 t-134.5 12t-115 25.5t-88.5 43.5t-67 66t-38.5 93.5t-14 124.5zM424 375q0 -50 9.5 -83t29.5 -55.5t59.5 -34t89 -16t127.5 -4.5t128 4.5t89 16t59 34t30 55.5t10 83v581q0 50 -10 83t-30 55.5t-59 34t-89 16t-128 4.5t-127.5 -4.5t-89 -16t-59.5 -34t-29.5 -55.5t-9.5 -83 v-581zM504 1470l164 261h305l-215 -261h-254z" />
<glyph unicode="&#xd4;" horiz-adv-x="1478" d="M123 350v631q0 70 14 124.5t38.5 93.5t67 66.5t88.5 44t114.5 25.5t135 12t158.5 3t158.5 -3t135 -12t115 -25.5t89 -44t67 -66.5t38.5 -93.5t14 -124.5v-631q0 -62 -10 -111t-31.5 -86.5t-49.5 -65t-70.5 -46t-87 -30.5t-107 -18.5t-121.5 -8.5t-140 -2q-93 0 -158.5 3 t-134.5 12t-115 25.5t-88.5 43.5t-67 66t-38.5 93.5t-14 124.5zM424 375q0 -50 9.5 -83t29.5 -55.5t59.5 -34t89 -16t127.5 -4.5t128 4.5t89 16t59 34t30 55.5t10 83v581q0 50 -10 83t-30 55.5t-59 34t-89 16t-128 4.5t-127.5 -4.5t-89 -16t-59.5 -34t-29.5 -55.5t-9.5 -83 v-581zM430 1470l115 261h383l119 -261h-201l-109 179l-106 -179h-201z" />
<glyph unicode="&#xd5;" horiz-adv-x="1478" d="M123 350v631q0 70 14 124.5t38.5 93.5t67 66.5t88.5 44t114.5 25.5t135 12t158.5 3t158.5 -3t135 -12t115 -25.5t89 -44t67 -66.5t38.5 -93.5t14 -124.5v-631q0 -62 -10 -111t-31.5 -86.5t-49.5 -65t-70.5 -46t-87 -30.5t-107 -18.5t-121.5 -8.5t-140 -2q-93 0 -158.5 3 t-134.5 12t-115 25.5t-88.5 43.5t-67 66t-38.5 93.5t-14 124.5zM424 375q0 -50 9.5 -83t29.5 -55.5t59.5 -34t89 -16t127.5 -4.5t128 4.5t89 16t59 34t30 55.5t10 83v581q0 50 -10 83t-30 55.5t-59 34t-89 16t-128 4.5t-127.5 -4.5t-89 -16t-59.5 -34t-29.5 -55.5t-9.5 -83 v-581zM457 1442v192q21 26 62.5 43t90.5 17q50 0 133.5 -35t122.5 -35q95 0 154 88v-184q-21 -36 -64 -58t-90 -22q-52 0 -134.5 37t-121.5 37q-47 0 -90 -24t-63 -56z" />
<glyph unicode="&#xd6;" horiz-adv-x="1478" d="M123 350v631q0 70 14 124.5t38.5 93.5t67 66.5t88.5 44t114.5 25.5t135 12t158.5 3t158.5 -3t135 -12t115 -25.5t89 -44t67 -66.5t38.5 -93.5t14 -124.5v-631q0 -62 -10 -111t-31.5 -86.5t-49.5 -65t-70.5 -46t-87 -30.5t-107 -18.5t-121.5 -8.5t-140 -2q-93 0 -158.5 3 t-134.5 12t-115 25.5t-88.5 43.5t-67 66t-38.5 93.5t-14 124.5zM416 1495v242h258v-242h-258zM424 375q0 -50 9.5 -83t29.5 -55.5t59.5 -34t89 -16t127.5 -4.5t128 4.5t89 16t59 34t30 55.5t10 83v581q0 50 -10 83t-30 55.5t-59 34t-89 16t-128 4.5t-127.5 -4.5t-89 -16 t-59.5 -34t-29.5 -55.5t-9.5 -83v-581zM805 1495v242h258v-242h-258z" />
<glyph unicode="&#xd7;" d="M201 834l151 151l244 -244l242 242l147 -145l-242 -242l244 -244l-151 -151l-244 243l-242 -241l-147 145l241 242z" />
<glyph unicode="&#xd8;" horiz-adv-x="1478" d="M123 350v631q0 70 14 124.5t38.5 93.5t67 66.5t88.5 44t114.5 25.5t135 12t158.5 3t158.5 -3t135 -12t115 -25.5t89 -44t67 -66.5t38.5 -93.5t14 -124.5v-631q0 -62 -10 -111t-31.5 -86.5t-49.5 -65t-70.5 -46t-87 -30.5t-107 -18.5t-121.5 -8.5t-140 -2q-93 0 -158.5 3 t-134.5 12t-115 25.5t-88.5 43.5t-67 66t-38.5 93.5t-14 124.5zM424 418l559 698q-65 33 -244 33q-78 0 -127.5 -4.5t-89 -16t-59.5 -34t-29.5 -55.5t-9.5 -83v-538zM487 217q35 -21 93 -28t159 -7q78 0 128 4.5t89 16t59 34t30 55.5t10 83v553z" />
<glyph unicode="&#xd9;" horiz-adv-x="1396" d="M143 340v989h301v-936q0 -49 4.5 -82t17.5 -57.5t30.5 -38.5t51 -22t71.5 -10.5t98 -2.5t97.5 2.5t70 11t49.5 21.5t29 38.5t16 57.5t4 82v936h270v-989q0 -91 -25 -155.5t-68.5 -104t-116.5 -62t-154 -30.5t-197 -8q-93 0 -161.5 5.5t-134 19.5t-109.5 39.5t-78 65 t-50 97t-16 133.5zM463 1731h305l164 -261h-254z" />
<glyph unicode="&#xda;" horiz-adv-x="1396" d="M143 340v989h301v-936q0 -49 4.5 -82t17.5 -57.5t30.5 -38.5t51 -22t71.5 -10.5t98 -2.5t97.5 2.5t70 11t49.5 21.5t29 38.5t16 57.5t4 82v936h270v-989q0 -91 -25 -155.5t-68.5 -104t-116.5 -62t-154 -30.5t-197 -8q-93 0 -161.5 5.5t-134 19.5t-109.5 39.5t-78 65 t-50 97t-16 133.5zM463 1470l164 261h305l-215 -261h-254z" />
<glyph unicode="&#xdb;" horiz-adv-x="1396" d="M143 340v989h301v-936q0 -49 4.5 -82t17.5 -57.5t30.5 -38.5t51 -22t71.5 -10.5t98 -2.5t97.5 2.5t70 11t49.5 21.5t29 38.5t16 57.5t4 82v936h270v-989q0 -91 -25 -155.5t-68.5 -104t-116.5 -62t-154 -30.5t-197 -8q-93 0 -161.5 5.5t-134 19.5t-109.5 39.5t-78 65 t-50 97t-16 133.5zM389 1470l115 261h383l119 -261h-201l-109 179l-106 -179h-201z" />
<glyph unicode="&#xdc;" horiz-adv-x="1396" d="M143 340v989h301v-936q0 -49 4.5 -82t17.5 -57.5t30.5 -38.5t51 -22t71.5 -10.5t98 -2.5t97.5 2.5t70 11t49.5 21.5t29 38.5t16 57.5t4 82v936h270v-989q0 -91 -25 -155.5t-68.5 -104t-116.5 -62t-154 -30.5t-197 -8q-93 0 -161.5 5.5t-134 19.5t-109.5 39.5t-78 65 t-50 97t-16 133.5zM375 1495v242h258v-242h-258zM764 1495v242h258v-242h-258z" />
<glyph unicode="&#xdd;" horiz-adv-x="1325" d="M20 1329h355l309 -543l309 543h314l-488 -792v-537h-313v532zM428 1470l164 261h305l-215 -261h-254z" />
<glyph unicode="&#xde;" horiz-adv-x="1320" d="M152 0v1329h301v-205h317q68 0 118 -3t108.5 -11.5t98.5 -26.5t74.5 -46t52 -72.5t17.5 -102.5v-256q0 -173 -114.5 -242t-350.5 -69h-321v-295h-301zM453 496h286q54 0 86.5 5t60.5 21.5t40 49t12 85.5v125q0 91 -37.5 116.5t-165.5 25.5h-282v-428z" />
<glyph unicode="&#xdf;" horiz-adv-x="1308" d="M131 0v1044q0 65 11 109t44 84t91.5 63t154 36.5t232.5 13.5q138 0 233 -19t149.5 -57.5t77.5 -88.5t23 -120v-184q0 -58 -45.5 -107t-102.5 -65v-11q73 -8 140 -65.5t67 -130.5v-205q0 -70 -24.5 -121.5t-68 -85t-111 -54t-145.5 -28.5t-179 -8h-111v182h111 q99 0 153 15.5t71.5 41.5t17.5 70v178q0 41 -32.5 68t-74.5 36t-92 9h-154v182h103q78 0 121 12.5t56 31t13 48.5v199q0 46 -46.5 70t-168.5 24q-130 0 -178.5 -21.5t-48.5 -72.5v-1073h-287z" />
<glyph unicode="&#xe0;" horiz-adv-x="1163" d="M78 287q0 112 30.5 173.5t108.5 91.5t223 30h297v114q0 80 -34.5 106.5t-133.5 26.5q-107 0 -137.5 -18t-30.5 -80h-286q0 103 43 163t145.5 89t280.5 29q85 0 150.5 -8.5t112 -23t79 -39.5t51.5 -51.5t29.5 -66t14 -76t3.5 -88.5v-659h-272v94h-4q-7 -34 -32 -57.5 t-67 -35t-88 -16.5t-106 -5q-84 0 -140 6.5t-104.5 25.5t-75.5 53t-42 88.5t-15 133.5zM285 1393h305l164 -260h-254zM365 281q0 -79 31 -99t124 -20h58q90 0 124.5 17t34.5 67v170h-223q-99 0 -124 -22.5t-25 -112.5z" />
<glyph unicode="&#xe1;" horiz-adv-x="1163" d="M78 287q0 112 30.5 173.5t108.5 91.5t223 30h297v114q0 80 -34.5 106.5t-133.5 26.5q-107 0 -137.5 -18t-30.5 -80h-286q0 103 43 163t145.5 89t280.5 29q85 0 150.5 -8.5t112 -23t79 -39.5t51.5 -51.5t29.5 -66t14 -76t3.5 -88.5v-659h-272v94h-4q-7 -34 -32 -57.5 t-67 -35t-88 -16.5t-106 -5q-84 0 -140 6.5t-104.5 25.5t-75.5 53t-42 88.5t-15 133.5zM365 281q0 -79 31 -99t124 -20h58q90 0 124.5 17t34.5 67v170h-223q-99 0 -124 -22.5t-25 -112.5zM408 1133l163 260h306l-215 -260h-254z" />
<glyph unicode="&#xe2;" horiz-adv-x="1163" d="M78 287q0 112 30.5 173.5t108.5 91.5t223 30h297v114q0 80 -34.5 106.5t-133.5 26.5q-107 0 -137.5 -18t-30.5 -80h-286q0 103 43 163t145.5 89t280.5 29q85 0 150.5 -8.5t112 -23t79 -39.5t51.5 -51.5t29.5 -66t14 -76t3.5 -88.5v-659h-272v94h-4q-7 -34 -32 -57.5 t-67 -35t-88 -16.5t-106 -5q-84 0 -140 6.5t-104.5 25.5t-75.5 53t-42 88.5t-15 133.5zM272 1133l115 260h383l119 -260h-201l-108 178l-107 -178h-201zM365 281q0 -79 31 -99t124 -20h58q90 0 124.5 17t34.5 67v170h-223q-99 0 -124 -22.5t-25 -112.5z" />
<glyph unicode="&#xe3;" horiz-adv-x="1163" d="M78 287q0 112 30.5 173.5t108.5 91.5t223 30h297v114q0 80 -34.5 106.5t-133.5 26.5q-107 0 -137.5 -18t-30.5 -80h-286q0 103 43 163t145.5 89t280.5 29q85 0 150.5 -8.5t112 -23t79 -39.5t51.5 -51.5t29.5 -66t14 -76t3.5 -88.5v-659h-272v94h-4q-7 -34 -32 -57.5 t-67 -35t-88 -16.5t-106 -5q-84 0 -140 6.5t-104.5 25.5t-75.5 53t-42 88.5t-15 133.5zM299 1104v192q21 26 63 43t91 17q50 0 133.5 -35t122.5 -35q94 0 153 88v-184q-21 -36 -64 -58t-89 -22q-52 0 -134.5 37t-121.5 37q-47 0 -90.5 -24t-63.5 -56zM365 281q0 -79 31 -99 t124 -20h58q90 0 124.5 17t34.5 67v170h-223q-99 0 -124 -22.5t-25 -112.5z" />
<glyph unicode="&#xe4;" horiz-adv-x="1163" d="M78 287q0 112 30.5 173.5t108.5 91.5t223 30h297v114q0 80 -34.5 106.5t-133.5 26.5q-107 0 -137.5 -18t-30.5 -80h-286q0 103 43 163t145.5 89t280.5 29q85 0 150.5 -8.5t112 -23t79 -39.5t51.5 -51.5t29.5 -66t14 -76t3.5 -88.5v-659h-272v94h-4q-7 -34 -32 -57.5 t-67 -35t-88 -16.5t-106 -5q-84 0 -140 6.5t-104.5 25.5t-75.5 53t-42 88.5t-15 133.5zM258 1157v242h258v-242h-258zM365 281q0 -79 31 -99t124 -20h58q90 0 124.5 17t34.5 67v170h-223q-99 0 -124 -22.5t-25 -112.5zM647 1157v242h258v-242h-258z" />
<glyph unicode="&#xe5;" horiz-adv-x="1163" d="M78 287q0 112 30.5 173.5t108.5 91.5t223 30h297v114q0 80 -34.5 106.5t-133.5 26.5q-107 0 -137.5 -18t-30.5 -80h-286q0 103 43 163t145.5 89t280.5 29q85 0 150.5 -8.5t112 -23t79 -39.5t51.5 -51.5t29.5 -66t14 -76t3.5 -88.5v-659h-272v94h-4q-7 -34 -32 -57.5 t-67 -35t-88 -16.5t-106 -5q-84 0 -140 6.5t-104.5 25.5t-75.5 53t-42 88.5t-15 133.5zM365 281q0 -79 31 -99t124 -20h58q90 0 124.5 17t34.5 67v170h-223q-99 0 -124 -22.5t-25 -112.5zM377 1272q0 85 58.5 146t144.5 61q85 0 145.5 -61t60.5 -146q0 -86 -60.5 -144.5 t-145.5 -58.5q-86 0 -144.5 58.5t-58.5 144.5zM492 1272q0 -35 26.5 -61.5t61.5 -26.5t61.5 26.5t26.5 61.5t-26.5 61.5t-61.5 26.5t-61.5 -26.5t-26.5 -61.5z" />
<glyph unicode="&#xe6;" horiz-adv-x="1798" d="M78 287q0 112 30.5 173.5t108.5 91.5t223 30h297v114q0 80 -34.5 106.5t-133.5 26.5q-107 0 -137.5 -18t-30.5 -80h-286q0 103 43 163t145.5 89t280.5 29q207 0 301 -51q102 51 323 51q250 0 364 -74t114 -264v-246h-682v-115q0 -93 40 -122t170 -29q110 0 144.5 25.5 t34.5 109.5h282q0 -180 -100.5 -248.5t-341.5 -68.5q-172 0 -273.5 24t-154.5 86q-23 -59 -104.5 -84.5t-245.5 -25.5q-84 0 -140 6.5t-104.5 25.5t-75.5 53t-42 88.5t-15 133.5zM365 281q0 -79 31 -99t124 -20h58q90 0 124.5 17t34.5 67v170h-223q-99 0 -124 -22.5 t-25 -112.5zM1004 588h395v96q0 84 -39 114.5t-156 30.5q-120 0 -160 -26.5t-40 -118.5v-96z" />
<glyph unicode="&#xe7;" horiz-adv-x="1110" d="M113 303v365q0 85 19.5 144.5t56.5 98.5t100 61.5t139.5 31t185.5 8.5q239 0 337 -70t98 -248h-283q0 47 -4.5 70.5t-23 39.5t-49.5 20.5t-91 4.5q-125 0 -162 -23t-37 -114v-362q0 -74 14 -107t55 -47t130 -14q61 0 92.5 4t49.5 21t22 39.5t4 70.5h283 q0 -112 -35.5 -178t-124.5 -100t-246 -37v-70h10q104 0 150.5 -39t46.5 -135q0 -98 -59 -143.5t-187 -45.5q-28 0 -59 3.5t-61.5 9t-37.5 6.5v125q4 -1 27 -6.5t40.5 -9.5t41.5 -7.5t41 -3.5q45 0 63.5 15.5t18.5 50.5q0 31 -18.5 46t-67.5 15h-111v189q-66 3 -115.5 11.5 t-99.5 30t-81.5 55.5t-51.5 90.5t-20 133.5z" />
<glyph unicode="&#xe8;" horiz-adv-x="1193" d="M113 315v359q0 100 29.5 166t94 103.5t151.5 53t216 15.5q250 0 363.5 -74t113.5 -264v-246h-682v-115q0 -93 40.5 -122t170.5 -29q110 0 144 25.5t34 109.5h283q0 -180 -100.5 -248.5t-341.5 -68.5q-108 0 -185.5 8.5t-143 30t-105 59t-61 96.5t-21.5 141zM281 1393h305 l164 -260h-254zM399 588h396v96q0 84 -39 114.5t-156 30.5q-120 0 -160.5 -26.5t-40.5 -118.5v-96z" />
<glyph unicode="&#xe9;" horiz-adv-x="1193" d="M113 315v359q0 100 29.5 166t94 103.5t151.5 53t216 15.5q250 0 363.5 -74t113.5 -264v-246h-682v-115q0 -93 40.5 -122t170.5 -29q110 0 144 25.5t34 109.5h283q0 -180 -100.5 -248.5t-341.5 -68.5q-108 0 -185.5 8.5t-143 30t-105 59t-61 96.5t-21.5 141zM399 588h396 v96q0 84 -39 114.5t-156 30.5q-120 0 -160.5 -26.5t-40.5 -118.5v-96zM444 1133l164 260h305l-215 -260h-254z" />
<glyph unicode="&#xea;" horiz-adv-x="1193" d="M113 315v359q0 100 29.5 166t94 103.5t151.5 53t216 15.5q250 0 363.5 -74t113.5 -264v-246h-682v-115q0 -93 40.5 -122t170.5 -29q110 0 144 25.5t34 109.5h283q0 -180 -100.5 -248.5t-341.5 -68.5q-108 0 -185.5 8.5t-143 30t-105 59t-61 96.5t-21.5 141zM289 1133 l114 260h383l119 -260h-200l-109 178l-107 -178h-200zM399 588h396v96q0 84 -39 114.5t-156 30.5q-120 0 -160.5 -26.5t-40.5 -118.5v-96z" />
<glyph unicode="&#xeb;" horiz-adv-x="1193" d="M113 315v359q0 100 29.5 166t94 103.5t151.5 53t216 15.5q250 0 363.5 -74t113.5 -264v-246h-682v-115q0 -93 40.5 -122t170.5 -29q110 0 144 25.5t34 109.5h283q0 -180 -100.5 -248.5t-341.5 -68.5q-108 0 -185.5 8.5t-143 30t-105 59t-61 96.5t-21.5 141zM272 1157v242 h258v-242h-258zM399 588h396v96q0 84 -39 114.5t-156 30.5q-120 0 -160.5 -26.5t-40.5 -118.5v-96zM662 1157v242h258v-242h-258z" />
<glyph unicode="&#xec;" horiz-adv-x="598" d="M63 1393h306l163 -260h-253zM156 0v991h286v-991h-286z" />
<glyph unicode="&#xed;" horiz-adv-x="598" d="M63 1133l164 260h305l-215 -260h-254zM156 0v991h286v-991h-286z" />
<glyph unicode="&#xee;" horiz-adv-x="598" d="M-8 1133l114 260h383l119 -260h-200l-109 178l-106 -178h-201zM156 0v991h286v-991h-286z" />
<glyph unicode="&#xef;" horiz-adv-x="598" d="M-25 1157v242h258v-242h-258zM156 0v991h286v-991h-286zM365 1157v242h258v-242h-258z" />
<glyph unicode="&#xf0;" horiz-adv-x="1232" d="M113 313v344q0 71 14.5 126t37 92t62 63.5t76.5 40.5t95 21.5t103.5 9.5t114.5 2q97 0 144 -4q-47 87 -119 178l-209 -70v125l125 41q-72 75 -168 152h287q60 -43 100 -78l207 71v-124l-113 -39q250 -270 250 -607v-344q0 -64 -14 -114.5t-37 -85t-61 -59.5t-77 -39 t-95 -22t-104.5 -10.5t-115.5 -2.5t-115.5 2.5t-104.5 10t-94.5 21.5t-76.5 39t-61 59.5t-37 85.5t-14 115zM399 336q0 -41 3 -68t13 -47.5t23.5 -31t40.5 -17.5t57 -8.5t80 -1.5t80 2t57 8.5t40.5 17t24 31t13.5 47.5t3 68v303q0 46 -2.5 75.5t-13 52t-23.5 34t-40.5 18.5 t-57 8.5t-81.5 1.5t-81.5 -1.5t-57 -9t-40 -18.5t-23 -33.5t-13 -52t-2.5 -75.5v-303z" />
<glyph unicode="&#xf1;" horiz-adv-x="1234" d="M139 0v991h281v-121h8q30 142 324 142q103 0 171.5 -18t105.5 -55.5t52 -85.5t15 -118v-735h-287v696q0 81 -39 107t-154 26q-82 0 -124 -16t-54 -44t-12 -83v-686h-287zM336 1104v192q21 26 62.5 43t90.5 17q50 0 133.5 -35t122.5 -35q95 0 154 88v-184q-21 -36 -64 -58 t-90 -22q-52 0 -134.5 37t-121.5 37q-47 0 -90 -24t-63 -56z" />
<glyph unicode="&#xf2;" horiz-adv-x="1232" d="M113 334v323q0 105 26 172.5t88 108.5t154 57.5t235 16.5t235.5 -16.5t154.5 -57.5t88 -108.5t26 -172.5v-323q0 -204 -111 -279t-393 -75q-114 0 -194.5 10.5t-141.5 34.5t-96.5 65.5t-53 100.5t-17.5 143zM299 1393h305l164 -260h-254zM399 336q0 -41 3 -68t13 -47.5 t23.5 -31t40.5 -17.5t57 -8.5t80 -1.5t80 2t57 8.5t40.5 17t24 31t13.5 47.5t3 68v303q0 46 -2.5 75.5t-13 52t-23.5 34t-40.5 18.5t-57 8.5t-81.5 1.5t-81.5 -1.5t-57 -9t-40 -18.5t-23 -33.5t-13 -52t-2.5 -75.5v-303z" />
<glyph unicode="&#xf3;" horiz-adv-x="1232" d="M113 334v323q0 105 26 172.5t88 108.5t154 57.5t235 16.5t235.5 -16.5t154.5 -57.5t88 -108.5t26 -172.5v-323q0 -204 -111 -279t-393 -75q-114 0 -194.5 10.5t-141.5 34.5t-96.5 65.5t-53 100.5t-17.5 143zM399 336q0 -41 3 -68t13 -47.5t23.5 -31t40.5 -17.5t57 -8.5 t80 -1.5t80 2t57 8.5t40.5 17t24 31t13.5 47.5t3 68v303q0 46 -2.5 75.5t-13 52t-23.5 34t-40.5 18.5t-57 8.5t-81.5 1.5t-81.5 -1.5t-57 -9t-40 -18.5t-23 -33.5t-13 -52t-2.5 -75.5v-303zM463 1133l164 260h305l-215 -260h-254z" />
<glyph unicode="&#xf4;" horiz-adv-x="1232" d="M113 334v323q0 105 26 172.5t88 108.5t154 57.5t235 16.5t235.5 -16.5t154.5 -57.5t88 -108.5t26 -172.5v-323q0 -204 -111 -279t-393 -75q-114 0 -194.5 10.5t-141.5 34.5t-96.5 65.5t-53 100.5t-17.5 143zM307 1133l115 260h383l119 -260h-201l-109 178l-106 -178h-201 zM399 336q0 -41 3 -68t13 -47.5t23.5 -31t40.5 -17.5t57 -8.5t80 -1.5t80 2t57 8.5t40.5 17t24 31t13.5 47.5t3 68v303q0 46 -2.5 75.5t-13 52t-23.5 34t-40.5 18.5t-57 8.5t-81.5 1.5t-81.5 -1.5t-57 -9t-40 -18.5t-23 -33.5t-13 -52t-2.5 -75.5v-303z" />
<glyph unicode="&#xf5;" horiz-adv-x="1232" d="M113 334v323q0 105 26 172.5t88 108.5t154 57.5t235 16.5t235.5 -16.5t154.5 -57.5t88 -108.5t26 -172.5v-323q0 -204 -111 -279t-393 -75q-114 0 -194.5 10.5t-141.5 34.5t-96.5 65.5t-53 100.5t-17.5 143zM334 1104v192q21 26 62.5 43t90.5 17q50 0 133.5 -35 t122.5 -35q95 0 154 88v-184q-21 -36 -64 -58t-90 -22q-52 0 -134.5 37t-121.5 37q-47 0 -90 -24t-63 -56zM399 336q0 -41 3 -68t13 -47.5t23.5 -31t40.5 -17.5t57 -8.5t80 -1.5t80 2t57 8.5t40.5 17t24 31t13.5 47.5t3 68v303q0 46 -2.5 75.5t-13 52t-23.5 34t-40.5 18.5 t-57 8.5t-81.5 1.5t-81.5 -1.5t-57 -9t-40 -18.5t-23 -33.5t-13 -52t-2.5 -75.5v-303z" />
<glyph unicode="&#xf6;" horiz-adv-x="1232" d="M113 334v323q0 105 26 172.5t88 108.5t154 57.5t235 16.5t235.5 -16.5t154.5 -57.5t88 -108.5t26 -172.5v-323q0 -204 -111 -279t-393 -75q-114 0 -194.5 10.5t-141.5 34.5t-96.5 65.5t-53 100.5t-17.5 143zM293 1157v242h258v-242h-258zM399 336q0 -41 3 -68t13 -47.5 t23.5 -31t40.5 -17.5t57 -8.5t80 -1.5t80 2t57 8.5t40.5 17t24 31t13.5 47.5t3 68v303q0 46 -2.5 75.5t-13 52t-23.5 34t-40.5 18.5t-57 8.5t-81.5 1.5t-81.5 -1.5t-57 -9t-40 -18.5t-23 -33.5t-13 -52t-2.5 -75.5v-303zM682 1157v242h258v-242h-258z" />
<glyph unicode="&#xf7;" d="M145 489v207h897v-207h-897zM434 94v283h320v-283h-320zM434 803v282h320v-282h-320z" />
<glyph unicode="&#xf8;" horiz-adv-x="1232" d="M113 334v323q0 105 26 172.5t88 108.5t154 57.5t235 16.5t235.5 -16.5t154.5 -57.5t88 -108.5t26 -172.5v-323q0 -204 -111 -279t-393 -75q-114 0 -194.5 10.5t-141.5 34.5t-96.5 65.5t-53 100.5t-17.5 143zM399 367l379 444q-37 18 -162 18q-52 0 -81.5 -1.5t-57 -9 t-40 -18.5t-23 -33.5t-13 -52t-2.5 -75.5v-272zM449 184q40 -22 167 -22q50 0 80 2t57 8.5t40.5 17t24 31t13.5 47.5t3 68v295z" />
<glyph unicode="&#xf9;" horiz-adv-x="1212" d="M139 256v735h287v-708q0 -78 36.5 -99.5t139.5 -21.5q83 0 122 13t50.5 38t11.5 80v698h287v-991h-285v121h-4q-30 -141 -313 -141q-103 0 -169.5 17.5t-101.5 55.5t-48 85t-13 118zM371 1393h305l164 -260h-254z" />
<glyph unicode="&#xfa;" horiz-adv-x="1212" d="M139 256v735h287v-708q0 -78 36.5 -99.5t139.5 -21.5q83 0 122 13t50.5 38t11.5 80v698h287v-991h-285v121h-4q-30 -141 -313 -141q-103 0 -169.5 17.5t-101.5 55.5t-48 85t-13 118zM371 1133l164 260h305l-215 -260h-254z" />
<glyph unicode="&#xfb;" horiz-adv-x="1212" d="M139 256v735h287v-708q0 -78 36.5 -99.5t139.5 -21.5q83 0 122 13t50.5 38t11.5 80v698h287v-991h-285v121h-4q-30 -141 -313 -141q-103 0 -169.5 17.5t-101.5 55.5t-48 85t-13 118zM297 1133l115 260h383l118 -260h-200l-109 178l-106 -178h-201z" />
<glyph unicode="&#xfc;" horiz-adv-x="1212" d="M139 256v735h287v-708q0 -78 36.5 -99.5t139.5 -21.5q83 0 122 13t50.5 38t11.5 80v698h287v-991h-285v121h-4q-30 -141 -313 -141q-103 0 -169.5 17.5t-101.5 55.5t-48 85t-13 118zM283 1157v242h258v-242h-258zM672 1157v242h258v-242h-258z" />
<glyph unicode="&#xfd;" horiz-adv-x="1069" d="M25 991h292l220 -680l231 680h276l-413 -1118q-69 -186 -155.5 -255t-237.5 -69q-104 0 -170 17v190q58 -8 96 -8q76 0 116.5 31.5t79.5 136.5l33 86zM299 1133l164 260h305l-215 -260h-254z" />
<glyph unicode="&#xfe;" horiz-adv-x="1259" d="M139 -430v1864h287v-541q27 66 104 92.5t228 26.5q201 0 295 -81.5t94 -275.5v-301q0 -51 -3 -89.5t-13 -79.5t-27 -70t-46.5 -56t-69.5 -43.5t-97.5 -26t-130.5 -9.5q-152 0 -229.5 26t-104.5 92v-528h-287zM426 297q0 -80 44 -113.5t173 -33.5q75 0 114 4.5t64.5 21 t32 43.5t6.5 78v397q0 84 -43 109.5t-178 25.5q-90 0 -136 -13.5t-61.5 -41t-15.5 -80.5v-397z" />
<glyph unicode="&#xff;" horiz-adv-x="1069" d="M25 991h292l220 -680l231 680h276l-413 -1118q-69 -186 -155.5 -255t-237.5 -69q-104 0 -170 17v190q58 -8 96 -8q76 0 116.5 31.5t79.5 136.5l33 86zM211 1157v242h258v-242h-258zM600 1157v242h258v-242h-258z" />
<glyph unicode="&#x152;" horiz-adv-x="2035" d="M123 360v588q0 69 16.5 125.5t43.5 95.5t67 68.5t82.5 46.5t95.5 27.5t100 14t101 3.5h1325v-201h-694v-342h626v-202h-626v-383h714v-201h-1347q-81 0 -146.5 7.5t-134.5 30.5t-116 61.5t-77 105t-30 155.5zM424 410q0 -126 56 -167.5t202 -41.5h276v927h-286 q-153 0 -200.5 -42t-47.5 -179v-497z" />
<glyph unicode="&#x153;" horiz-adv-x="1904" d="M113 313v344q0 69 14.5 123.5t37 91.5t61.5 63.5t77.5 41t94.5 22.5t103.5 10.5t114.5 2.5q138 0 223.5 -14t141.5 -60q110 74 334 74q107 0 190 -16.5t149.5 -54t102 -105t35.5 -162.5v-242h-682v-119q0 -93 40.5 -122t170.5 -29q110 0 144 25.5t34 109.5h283 q0 -180 -101 -248.5t-342 -68.5q-140 0 -228 12.5t-142 44.5q-56 -35 -139.5 -46t-213.5 -11q-67 0 -115.5 2.5t-104 10.5t-94.5 22t-77 39t-61 59.5t-37 85t-14 114.5zM399 336q0 -41 3 -68t13 -47.5t23.5 -31t40.5 -17.5t57 -8.5t80 -1.5t80 2t57 8.5t40.5 17t24 31 t13.5 47.5t3 68v303q0 46 -2.5 75.5t-13 52t-23.5 34t-40.5 18.5t-57 8.5t-81.5 1.5t-81.5 -1.5t-57 -9t-40 -18.5t-23 -33.5t-13 -52t-2.5 -75.5v-303zM1110 588h395v96q0 84 -38.5 114.5t-155.5 30.5q-64 0 -97.5 -4t-60 -19t-35 -43.5t-8.5 -78.5v-96z" />
<glyph unicode="&#x178;" horiz-adv-x="1325" d="M20 1329h355l309 -543l309 543h314l-488 -792v-537h-313v532zM338 1495v242h258v-242h-258zM727 1495v242h258v-242h-258z" />
<glyph unicode="&#x2c6;" horiz-adv-x="698" d="M41 1133l115 260h383l118 -260h-200l-109 178l-106 -178h-201z" />
<glyph unicode="&#x2dc;" horiz-adv-x="686" d="M61 1104v192q21 26 63 43t91 17q50 0 133.5 -35t122.5 -35q95 0 154 88v-184q-21 -36 -64 -58t-90 -22q-52 0 -134.5 37t-121.5 37q-47 0 -90.5 -24t-63.5 -56z" />
<glyph unicode="&#x2000;" horiz-adv-x="868" />
<glyph unicode="&#x2001;" horiz-adv-x="1737" />
<glyph unicode="&#x2002;" horiz-adv-x="868" />
<glyph unicode="&#x2003;" horiz-adv-x="1737" />
<glyph unicode="&#x2004;" horiz-adv-x="579" />
<glyph unicode="&#x2005;" horiz-adv-x="434" />
<glyph unicode="&#x2006;" horiz-adv-x="289" />
<glyph unicode="&#x2007;" horiz-adv-x="289" />
<glyph unicode="&#x2008;" horiz-adv-x="217" />
<glyph unicode="&#x2009;" horiz-adv-x="347" />
<glyph unicode="&#x200a;" horiz-adv-x="96" />
<glyph unicode="&#x2010;" horiz-adv-x="692" d="M61 492v204h570v-204h-570z" />
<glyph unicode="&#x2011;" horiz-adv-x="692" d="M61 492v204h570v-204h-570z" />
<glyph unicode="&#x2012;" horiz-adv-x="692" d="M61 492v204h570v-204h-570z" />
<glyph unicode="&#x2013;" d="M145 489v207h897v-207h-897z" />
<glyph unicode="&#x2014;" horiz-adv-x="2048" d="M145 489v207h1758v-207h-1758z" />
<glyph unicode="&#x2018;" horiz-adv-x="524" d="M76 858l184 471h213l-86 -471h-311z" />
<glyph unicode="&#x2019;" horiz-adv-x="524" d="M76 858l86 471h311l-184 -471h-213z" />
<glyph unicode="&#x201a;" horiz-adv-x="524" d="M39 -188l94 471h311l-192 -471h-213z" />
<glyph unicode="&#x201c;" horiz-adv-x="933" d="M76 858l184 471h213l-86 -471h-311zM485 858l185 471h213l-86 -471h-312z" />
<glyph unicode="&#x201d;" horiz-adv-x="933" d="M76 858l86 471h311l-184 -471h-213zM485 858l86 471h312l-185 -471h-213z" />
<glyph unicode="&#x201e;" horiz-adv-x="933" d="M39 -188l94 471h311l-192 -471h-213zM449 -188l94 471h311l-192 -471h-213z" />
<glyph unicode="&#x2022;" horiz-adv-x="980" d="M131 592q0 149 104.5 253.5t253.5 104.5q151 0 256 -104.5t105 -253.5q0 -150 -104.5 -255.5t-253.5 -105.5q-150 0 -255.5 105.5t-105.5 255.5z" />
<glyph unicode="&#x2026;" horiz-adv-x="1572" d="M102 0v283h320v-283h-320zM627 0v283h319v-283h-319zM1151 0v283h319v-283h-319z" />
<glyph unicode="&#x202f;" horiz-adv-x="347" />
<glyph unicode="&#x2039;" horiz-adv-x="606" d="M82 496l205 393h237l-188 -393l188 -394h-237z" />
<glyph unicode="&#x203a;" horiz-adv-x="606" d="M82 102l188 394l-188 393h237l205 -393l-205 -394h-237z" />
<glyph unicode="&#x205f;" horiz-adv-x="434" />
<glyph unicode="&#x20ac;" d="M72 403v183h161v135h-161v182h161v78q0 60 12.5 108.5t37.5 83.5t54.5 61.5t70.5 43t79 27.5t87.5 16t87.5 6.5t86 1.5q123 0 376 -37l-59 -194q-178 35 -313 35q-53 0 -83.5 -2.5t-63 -11.5t-48.5 -27t-26.5 -50t-10.5 -79v-60h492l-51 -182h-441v-135h408l-51 -183 h-357v-65q0 -43 13.5 -73t34 -47t57 -26t70 -11.5t85.5 -2.5q75 0 170.5 9.5t145.5 21.5v-203q-130 -26 -348 -26q-58 0 -102 2t-100.5 10.5t-97.5 23t-84 42t-70 65t-44 94t-17 127.5v59h-161z" />
<glyph unicode="&#x2122;" horiz-adv-x="1341" d="M41 1212v117h514v-117h-180v-419h-152v419h-182zM600 793v536h186l152 -362l141 362h181v-536h-140v307l-125 -307h-123l-131 313v-313h-141z" />
<glyph unicode="&#xe000;" horiz-adv-x="993" d="M0 0v993h993v-993h-993z" />
</font>
</defs>
</svg>
