<?xml version="1.0" standalone="no"?>
<!DOCTYPE svg PUBLIC "-//W3C//DTD SVG 1.1//EN" "http://www.w3.org/Graphics/SVG/1.1/DTD/svg11.dtd" >
<svg xmlns="http://www.w3.org/2000/svg">
<metadata></metadata>
<defs>
<font id="zetta_serifregular" horiz-adv-x="1187" >
<font-face units-per-em="2048" ascent="1556" descent="-492" />
<missing-glyph horiz-adv-x="409" />
<glyph unicode="&#xfb01;" horiz-adv-x="1173" d="M45 0v121h170v749h-170v121h170v139q0 174 71 239t244 65h142q246 0 252 -211h-144q-2 43 -30 63.5t-99 20.5h-131q-76 0 -104.5 -31.5t-28.5 -120.5v-164h588v-870h162v-121h-496v121h162v749h-416v-749h176v-121h-518z" />
<glyph unicode="&#xfb02;" horiz-adv-x="1173" d="M45 0v121h170v749h-170v121h170v139q0 174 71 239t244 65h445v-1313h162v-121h-496v121h162v1192h-283q-75 0 -104 -34t-29 -124v-164h223v-121h-223v-749h176v-121h-518z" />
<glyph unicode="&#xfb03;" horiz-adv-x="1761" d="M45 0v121h170v749h-170v121h170v139q0 174 67 239t228 65h18q117 0 173 -52t59 -159h-144q-2 44 -23.5 64t-84.5 20h-8q-67 0 -90 -30.5t-23 -121.5v-164h416v139q0 174 71 239t244 65h142q245 0 251 -211h-143q-2 43 -30 63.5t-99 20.5h-131q-76 0 -104.5 -31.5 t-28.5 -120.5v-164h588v-870h161v-121h-495v121h162v749h-416v-749h176v-121h-518v121h170v749h-416v-749h176v-121h-518z" />
<glyph unicode="&#xfb04;" horiz-adv-x="1761" d="M45 0v121h170v749h-170v121h170v139q0 174 67 239t228 65h18q117 0 173 -52t59 -159h-144q-2 44 -23.5 64t-84.5 20h-8q-67 0 -90 -30.5t-23 -121.5v-164h416v139q0 174 71 239t244 65h445v-1313h161v-121h-495v121h162v1192h-283q-75 0 -104 -34t-29 -124v-164h223v-121 h-223v-749h176v-121h-518v121h170v749h-416v-749h176v-121h-518z" />
<glyph horiz-adv-x="2048" />
<glyph horiz-adv-x="2048" />
<glyph unicode="&#xd;" horiz-adv-x="2048" />
<glyph unicode=" "  horiz-adv-x="409" />
<glyph unicode="&#x09;" horiz-adv-x="409" />
<glyph unicode="&#xa0;" horiz-adv-x="409" />
<glyph unicode="!" horiz-adv-x="573" d="M164 1329h246l-72 -962h-102zM168 0v221h238v-221h-238z" />
<glyph unicode="&#x22;" horiz-adv-x="790" d="M137 879v450h168v-450h-168zM485 879v450h168v-450h-168z" />
<glyph unicode="#" d="M123 418v127h225l53 260h-278v127h303l76 397h135l-76 -397h172l76 397h135l-76 -397h197v-127h-223l-51 -260h274v-127h-299l-80 -418h-135l80 418h-172l-80 -418h-135l80 418h-201zM483 545h172l54 260h-174z" />
<glyph unicode="$" d="M127 336h176q1 -40 3.5 -64.5t11 -52t25 -43t44 -30t69 -22t99.5 -9.5v479h-49q-200 0 -283.5 77t-83.5 230v103q0 153 92.5 225.5t323.5 79.5v104h94v-102q79 -2 139.5 -11.5t102 -23.5t70.5 -39t45 -49t25.5 -62.5t12 -70t3.5 -80.5h-177q-1 56 -8 88t-29.5 59.5 t-66.5 39.5t-117 14v-433h49q207 0 295 -81t88 -238v-70q0 -101 -19.5 -167.5t-68.5 -114t-132.5 -69t-211.5 -23.5v-205h-94v207q-85 3 -150.5 14t-110 26.5t-76 42.5t-48.5 52t-27 65.5t-12.5 72t-3.5 81.5zM311 893q0 -71 60.5 -110.5t183.5 -39.5v433 q-103 -4 -156.5 -27t-70.5 -61.5t-17 -110.5v-84zM649 115q106 2 162.5 24.5t77 65.5t20.5 123v94q0 101 -55 136.5t-205 35.5v-479z" />
<glyph unicode="%" horiz-adv-x="1751" d="M98 850v229q0 55 17.5 96t46.5 66t72 41t87 21.5t97 5.5t96.5 -5.5t85.5 -21.5t71 -41t46.5 -66t17.5 -96v-229q0 -55 -17.5 -96t-46.5 -66t-71 -40.5t-85.5 -21t-96.5 -5.5q-54 0 -97.5 5.5t-86.5 21t-72 40.5t-46.5 66t-17.5 96zM246 850q0 -67 45.5 -94t126.5 -27 t125.5 27t44.5 94v229q0 67 -44.5 94t-125.5 27t-126.5 -27t-45.5 -94v-229zM473 -20l674 1372h147l-673 -1372h-148zM1016 209v229q0 55 17.5 96t46.5 66t71.5 41t86.5 21.5t97 5.5t96.5 -5.5t86 -21.5t71.5 -41t46.5 -66t17.5 -96v-229q0 -55 -17.5 -96t-46.5 -66 t-71.5 -40.5t-86 -21t-96.5 -5.5q-54 0 -97.5 5.5t-86 21t-71.5 40.5t-46.5 66t-17.5 96zM1163 209q0 -67 45.5 -94t126.5 -27t125.5 27t44.5 94v229q0 67 -44.5 94t-125.5 27t-126.5 -27t-45.5 -94v-229z" />
<glyph unicode="&#x26;" horiz-adv-x="1433" d="M123 256v182q0 90 42.5 143.5t145.5 96.5l119 51l-47 51q-98 104 -98 234v125q0 213 309 213h127q79 0 134.5 -13t88 -34t50 -58t23 -74.5t5.5 -93.5v-37h-168v45q0 33 -4 53t-17.5 39.5t-44 28.5t-79.5 9h-99q-153 0 -153 -105v-102q0 -64 57 -125l549 -598 q51 88 51 202v134h-176v120h481v-120h-153v-136q0 -175 -92 -303q80 -63 157 -63h88v-121h-141q-69 0 -120.5 16.5t-104.5 57.5q-148 -94 -377 -94h-82q-227 0 -349 69t-122 207zM295 276q0 -73 82.5 -117t230.5 -44h64q164 0 270 59l-424 459l-108 -49q-64 -30 -89.5 -62.5 t-25.5 -85.5v-160z" />
<glyph unicode="'" horiz-adv-x="442" d="M137 879v450h168v-450h-168z" />
<glyph unicode="(" horiz-adv-x="677" d="M180 565q0 214 69 409.5t195 416.5h156q-244 -436 -244 -826q0 -407 244 -825h-156q-264 433 -264 825z" />
<glyph unicode=")" horiz-adv-x="677" d="M78 -260q244 418 244 825q0 390 -244 826h155q127 -222 196 -417t69 -409q0 -390 -265 -825h-155z" />
<glyph unicode="*" horiz-adv-x="823" d="M57 1016l47 141l265 -110l-27 282h150l-27 -282l256 110l45 -141l-274 -60l186 -217l-125 -84l-141 244l-144 -244l-123 84l193 217z" />
<glyph unicode="+" d="M164 545v133h362v362h133v-362h365v-133h-365v-365h-133v365h-362z" />
<glyph unicode="," horiz-adv-x="442" d="M41 -229l94 450h217l-192 -450h-119z" />
<glyph unicode="-" horiz-adv-x="692" d="M82 545v133h528v-133h-528z" />
<glyph unicode="." horiz-adv-x="442" d="M102 0v221h238v-221h-238z" />
<glyph unicode="/" horiz-adv-x="862" d="M20 -20l664 1372h158l-664 -1372h-158z" />
<glyph unicode="0" d="M133 334v641q0 73 8.5 125t30.5 92.5t55.5 66t86.5 41.5t120 22.5t160 6.5t160 -6.5t120 -22.5t86.5 -41.5t55.5 -66t30.5 -92.5t8.5 -125v-641q0 -136 -38.5 -210t-138 -109t-284.5 -35q-93 0 -160 6.5t-120 22.5t-86.5 41.5t-55.5 66t-30.5 92.5t-8.5 125zM305 324 q0 -122 63 -165.5t226 -43.5t226 43.5t63 165.5v661q0 122 -63 165.5t-226 43.5t-226 -43.5t-63 -165.5v-661z" />
<glyph unicode="1" d="M186 0v125h365v1008h-4l-326 -224v158l332 240h176v-1182h330v-125h-873z" />
<glyph unicode="2" d="M147 0v225q0 85 40 150.5t103.5 106.5t140 74t153.5 62t140.5 61t103.5 80t40 111v148q0 101 -50.5 138.5t-176.5 37.5h-115q-113 0 -160 -41.5t-47 -118.5v-63h-161v78q0 68 16 116.5t56 87t113 57.5t181 19h107q219 0 314 -65t95 -224v-194q0 -61 -25 -111.5t-67 -86.5 t-96.5 -66t-115 -54t-120.5 -46.5t-114.5 -46.5t-96.5 -51t-67 -64.5t-25 -81.5v-109h586v207h148v-336h-900z" />
<glyph unicode="3" d="M113 260v55h172v-41q0 -78 43 -118.5t155 -40.5h107q42 0 74 2.5t70 13t63 27.5t42 49t17 76v188q0 129 -276 129h-256v131h221q37 0 65.5 1.5t69.5 9t67.5 20.5t46 39.5t19.5 62.5v217q0 113 -244 113h-65q-115 0 -157 -32.5t-42 -106.5v-33h-172v47q0 64 13 107t50 80 t110.5 55t185.5 18h86q76 0 127.5 -3.5t109 -16.5t91.5 -36t56.5 -65t22.5 -102v-254q0 -46 -29 -82t-68.5 -54t-86.5 -26v-4q37 -6 64.5 -12t60 -19.5t53.5 -31.5t35 -47t14 -66v-246q0 -63 -16.5 -110.5t-48.5 -78t-69.5 -50t-90.5 -29t-98.5 -13t-106.5 -3.5h-127 q-90 0 -155.5 15t-104 39t-61 61.5t-30 75.5t-7.5 89z" />
<glyph unicode="4" d="M90 332v151l625 846h182l-647 -866h502v414h170v-414h143v-131h-143v-211h159v-121h-489v121h160v211h-662z" />
<glyph unicode="5" d="M135 260v55h180v-55q0 -76 38.5 -108.5t152.5 -32.5h127q54 0 88 3t65 13t47 28.5t25.5 49.5t9.5 76v203q0 89 -46.5 123t-159.5 34h-168q-142 0 -166 -74h-162v734h848v-135h-676v-472q16 37 64 61.5t118 24.5h156q188 0 280.5 -75.5t92.5 -239.5v-188q0 -73 -18 -126 t-50.5 -87.5t-84 -55t-112.5 -28.5t-143 -8h-147q-90 0 -155.5 15t-104.5 39t-61.5 61.5t-30 75.5t-7.5 89z" />
<glyph unicode="6" d="M141 319v644q0 137 40 215t134.5 114.5t262.5 36.5h100q90 0 155.5 -15t104 -39t61 -61.5t30 -75.5t7.5 -89h-180q0 77 -38.5 111t-151.5 34h-88q-72 0 -117.5 -8t-76 -24t-45.5 -48.5t-20.5 -73t-5.5 -106.5v-164h322q93 0 151 -4.5t116.5 -20.5t90 -46t51 -82.5 t19.5 -129.5v-168q0 -75 -17 -132t-51.5 -93.5t-74.5 -60t-97.5 -34.5t-107.5 -15t-117 -4q-59 0 -102 2.5t-93.5 10.5t-86.5 22.5t-71 39.5t-56.5 60.5t-34.5 87t-13 116.5zM313 309q0 -40 7 -70.5t17.5 -51t32.5 -34.5t41 -21.5t55 -11t62 -4.5t74 -1q76 0 124 6.5 t88.5 26.5t58.5 59.5t18 101.5v162q0 96 -60.5 130t-230.5 34h-287v-326z" />
<glyph unicode="7" d="M127 973v336h934v-125l-508 -1184h-197l533 1184h-608v-211h-154z" />
<glyph unicode="8" d="M133 240v247q0 35 12 63.5t31.5 48t49 35.5t59 25.5t67.5 18.5v8q-88 20 -132 64.5t-44 128.5v204q0 58 16 99t59.5 76t129 53t213.5 18t213.5 -18t129 -53t59.5 -76t16 -99v-204q0 -84 -44 -128.5t-132 -64.5v-8q38 -9 67.5 -18.5t59 -25.5t49 -35.5t31.5 -48t12 -63.5 v-247q0 -143 -107 -201.5t-354 -58.5t-354 58.5t-107 201.5zM305 250q0 -73 68.5 -104t220.5 -31t220.5 31t68.5 104v203q0 35 -11.5 61t-35 42t-47.5 26t-62 14t-64.5 5t-68.5 1t-68.5 -1t-64.5 -5t-62 -14t-47.5 -26t-35 -42t-11.5 -61v-203zM348 868q0 -79 55.5 -107 t190.5 -28t190.5 28t55.5 107v189q0 74 -58 105.5t-188 31.5t-188 -31.5t-58 -105.5v-189z" />
<glyph unicode="9" d="M131 821v168q0 65 14 116t36.5 86.5t58.5 61t73 40t88 23t94.5 11t100.5 2.5q58 0 102 -2.5t94 -10.5t86 -22.5t71 -40t56.5 -61t34.5 -87t13 -116.5v-643q0 -137 -40 -215t-134.5 -114.5t-262.5 -36.5h-100q-90 0 -155.5 15t-104 39t-61 61.5t-30 75.5t-7.5 89h180 q0 -77 38.5 -111t151.5 -34h88q72 0 117.5 8t76 24t45.5 48.5t20.5 73t5.5 106.5v164h-322q-77 0 -127.5 3t-104.5 12.5t-86 28t-59 49.5t-39 78t-12 111zM303 838q0 -96 60.5 -130t230.5 -34h287v325q0 35 -4.5 63t-15.5 48t-23 34.5t-34 23.5t-40 14.5t-50.5 8t-56.5 3 t-65 0.5q-60 0 -101 -4t-79.5 -16t-60.5 -33t-35 -56.5t-13 -85.5v-161z" />
<glyph unicode=":" horiz-adv-x="524" d="M143 0v221h238v-221h-238zM143 770v221h238v-221h-238z" />
<glyph unicode=";" horiz-adv-x="524" d="M80 -229l94 450h217l-192 -450h-119zM143 770v221h238v-221h-238z" />
<glyph unicode="&#x3c;" horiz-adv-x="1185" d="M162 539v147l860 436v-166l-688 -344l688 -344v-166z" />
<glyph unicode="=" d="M164 344v133h860v-133h-860zM164 707v133h860v-133h-860z" />
<glyph unicode="&#x3e;" d="M164 102v166l688 344l-688 344v166l860 -436v-147z" />
<glyph unicode="?" horiz-adv-x="1091" d="M115 1071q0 54 6 91t27.5 75.5t59.5 61.5t104.5 38t160.5 15h107q206 0 296.5 -67.5t90.5 -221.5v-105q0 -59 -20 -110.5t-51.5 -88t-69.5 -70t-76.5 -64t-70 -61t-51.5 -70t-20 -84.5v-60h-159v49q0 68 19 123t49.5 92t67.5 68.5t74 61t67.5 61.5t49.5 78t19 102v64 q0 92 -53.5 130t-170.5 38h-86q-114 0 -156 -35t-42 -111h-172zM408 0v221h237v-221h-237z" />
<glyph unicode="@" horiz-adv-x="1509" d="M123 340v631q0 69 22.5 125.5t59.5 95.5t89.5 68.5t106.5 46.5t117.5 27.5t115.5 14t107 3.5q57 0 111.5 -3.5t121 -14t122.5 -27t111 -46t93.5 -68t62 -95t23.5 -125.5v-524q0 -99 -49.5 -134.5t-152.5 -35.5h-64q-69 0 -115 21t-57 54q-15 -31 -34.5 -45.5t-65 -22 t-133.5 -7.5q-67 0 -111.5 6t-84 23.5t-62 49.5t-35 84t-12.5 127v228q0 152 73.5 210t272.5 58q105 0 168.5 -14t98.5 -48.5t46.5 -81t11.5 -124.5v-369q0 -29 18.5 -39t61.5 -10t59.5 9.5t16.5 39.5v569q0 50 -23.5 90.5t-65 66.5t-90.5 44.5t-107.5 27.5t-108 13t-99.5 4 q-51 0 -98.5 -4t-102 -13t-99 -27.5t-81.5 -44.5t-58 -66.5t-21 -90.5v-671q0 -46 21.5 -83.5t59 -62t82.5 -42t99.5 -26t102.5 -12.5t97 -4q79 0 175 13v-119q-76 -10 -179 -10q-68 0 -131 5.5t-136.5 19t-133.5 40t-110.5 64.5t-78.5 97.5t-28 133.5zM569 541 q0 -104 31.5 -131t149.5 -27q117 0 149.5 28.5t32.5 129.5v247q0 42 -1.5 67t-9.5 46t-18 30.5t-33 16.5t-49 8.5t-71 1.5q-43 0 -68 -1.5t-48 -8t-33.5 -16.5t-19 -30.5t-10.5 -46.5t-2 -67v-247z" />
<glyph unicode="A" horiz-adv-x="1372" d="M25 0v121h145l395 1208h260l396 -1208h147v-121h-496v121h162l-100 321h-496l-98 -321h162v-121h-477zM477 561h418l-207 666z" />
<glyph unicode="B" horiz-adv-x="1296" d="M66 0v121h180v1087h-180v121h651q129 0 215.5 -18t130 -54t60 -77.5t16.5 -100.5v-180q0 -82 -46.5 -126t-134.5 -64v-4q107 -22 173.5 -77.5t66.5 -140.5v-225q0 -144 -109.5 -203t-357.5 -59h-665zM426 121h305q154 0 220.5 31.5t66.5 105.5v211q0 36 -11 63.5t-34 44 t-47 27t-61.5 14.5t-64.5 5.5t-69 1.5h-305v-504zM426 745h297q130 0 182.5 35t52.5 119v170q0 76 -55 107.5t-186 31.5h-291v-463z" />
<glyph unicode="C" horiz-adv-x="1329" d="M127 340v631q0 70 14.5 125.5t39.5 95t65.5 68.5t85.5 46.5t106 28t120.5 14t135.5 3.5q115 0 202 -14.5t144.5 -40.5t93.5 -66t51 -87t15 -108v-69h-182v69q0 44 -14.5 76t-49.5 57t-100 37.5t-160 12.5q-120 0 -191.5 -9.5t-117 -36.5t-62 -71t-16.5 -117v-645 q0 -59 15 -99t42.5 -65t77.5 -38.5t106.5 -18t143.5 -4.5q127 0 200.5 23t99.5 60.5t26 96.5v72h182v-72q0 -76 -25 -132t-82 -98t-157 -63.5t-244 -21.5q-92 0 -161 5.5t-136 19t-113.5 39.5t-83 65t-54 97t-17.5 134z" />
<glyph unicode="D" horiz-adv-x="1370" d="M66 0v121h180v1087h-180v121h645q64 0 121 -5.5t123.5 -19t119.5 -41.5t97.5 -68.5t69 -103.5t24.5 -143v-588q0 -360 -553 -360h-647zM426 121h272q64 0 112 3.5t102.5 17t90 36t59 64t23.5 98.5v616q0 62 -22 108t-56.5 73t-85.5 43.5t-101 22t-111 5.5h-283v-1087z " />
<glyph unicode="E" horiz-adv-x="1236" d="M66 0v121h180v1087h-180v121h1046v-336h-141v215h-545v-463h334v156h121v-434h-121v158h-334v-504h606v213h142v-334h-1108z" />
<glyph unicode="F" horiz-adv-x="1196" d="M66 0v121h180v1087h-180v121h1067v-336h-142v215h-565v-465h334v158h121v-434h-121v158h-334v-504h256v-121h-616z" />
<glyph unicode="G" horiz-adv-x="1355" d="M127 360v590q0 97 28.5 169t77 116t122.5 71t154 36.5t183 9.5q145 0 248 -24.5t161.5 -71t84.5 -105t26 -135.5v-49h-182v49q0 203 -323 203q-89 0 -150 -6t-111.5 -22t-79 -44.5t-44 -73t-15.5 -108.5v-605q0 -142 89.5 -193.5t297.5 -51.5q190 0 266 45.5t76 134.5 v299h-311v119h487v-713h-120l-39 106q-104 -126 -391 -126q-97 0 -173 9.5t-146 35.5t-116 67.5t-73 109.5t-27 158z" />
<glyph unicode="H" horiz-adv-x="1525" d="M66 0v121h180v1087h-180v121h544v-121h-184v-465h694v465h-182v121h547v-121h-185v-1087h185v-121h-547v121h182v502h-694v-502h184v-121h-544z" />
<glyph unicode="I" horiz-adv-x="655" d="M66 0v121h180v1087h-180v121h544v-121h-184v-1087h184v-121h-544z" />
<glyph unicode="J" horiz-adv-x="1050" d="M63 295v72h170v-72q0 -103 42 -146t155 -43h27q73 0 114 8.5t67 35.5t34 70t8 120v868h-203v121h543v-121h-160v-868q0 -113 -25.5 -186t-80 -110.5t-120 -50.5t-165.5 -13h-51q-107 0 -178.5 21t-109.5 64.5t-52.5 97.5t-14.5 132z" />
<glyph unicode="K" horiz-adv-x="1368" d="M66 0v121h180v1087h-180v121h542v-121h-182v-612l530 612h-161v121h512v-121h-166l-396 -442l398 -547q71 -98 164 -98h69v-121h-209q-94 0 -186 131l-354 508l-201 -219v-299h182v-121h-542z" />
<glyph unicode="L" horiz-adv-x="1175" d="M66 0v121h180v1087h-180v121h575v-121h-215v-1087h545v213h141v-334h-1046z" />
<glyph unicode="M" horiz-adv-x="1910" d="M63 0v121h193v1087h-193v121h478l432 -1118l444 1118h453v-121h-191v-1087h191v-121h-545v121h188v1007h-18l-448 -1128h-164l-443 1128h-18v-1007h186v-121h-545z" />
<glyph unicode="N" horiz-adv-x="1538" d="M66 0v121h176v1087h-176v121h391l692 -1042v921h-180v121h508v-121h-179v-1208h-153l-754 1133v-1012h180v-121h-505z" />
<glyph unicode="O" horiz-adv-x="1411" d="M127 340v629q0 97 31.5 167.5t81.5 111t128.5 65t156 32t180.5 7.5q72 0 130 -3.5t119 -14.5t107.5 -28.5t89 -46.5t70 -68.5t43.5 -95.5t16 -126v-629q0 -90 -29.5 -156t-78.5 -104.5t-126 -61.5t-156 -30.5t-185 -7.5q-107 0 -186.5 7.5t-157 30.5t-126 61.5 t-78.5 104.5t-30 156zM307 350q0 -136 93.5 -185.5t304.5 -49.5q210 0 302.5 49.5t92.5 185.5v617q0 78 -23 127.5t-75 77t-121 37.5t-176 10q-108 0 -177.5 -10t-122 -37.5t-75.5 -77t-23 -127.5v-617z" />
<glyph unicode="P" horiz-adv-x="1208" d="M66 0v121h180v1087h-180v121h612q88 0 155 -7t127.5 -25.5t99 -49t61 -80.5t22.5 -118v-209q0 -172 -116.5 -244t-385.5 -72h-215v-403h233v-121h-593zM426 649h242q161 0 228 42t67 151v184q0 69 -24 106.5t-89 56.5t-186 19h-238v-559z" />
<glyph unicode="Q" horiz-adv-x="1411" d="M127 360v609q0 70 16 126t43.5 95.5t70 68.5t89 46.5t107.5 28.5t119 14.5t130 3.5q103 0 180.5 -7.5t156 -32t128.5 -65t81.5 -111t31.5 -167.5v-549q0 -220 -178 -295l2 -4h328v-121h-730q-106 0 -185 7.5t-156 30.5t-126 61.5t-78.5 104.5t-29.5 156zM307 371 q0 -136 93 -186t302 -50q211 0 304.5 50t93.5 186v596q0 78 -23 127.5t-75.5 77t-122 37.5t-177.5 10q-107 0 -176 -10t-121 -37.5t-75 -77t-23 -127.5v-596z" />
<glyph unicode="R" horiz-adv-x="1376" d="M66 0v121h180v1087h-180v121h665q267 0 365 -52.5t98 -205.5v-231q0 -79 -48.5 -114.5t-144.5 -57.5v-4q193 -39 193 -218v-247q0 -30 24 -54t60 -24h98v-121h-168q-59 0 -99.5 13.5t-60 39t-27 51.5t-7.5 60v272q0 41 -15 69.5t-35.5 43t-57.5 22.5t-65 9.5t-75 1.5 h-340v-461h190v-121h-550zM426 700h340q131 0 189.5 35.5t58.5 118.5v217q0 28 -9.5 50t-23.5 36t-38.5 24.5t-45 15.5t-52.5 7.5t-52 3t-52 0.5h-315v-508z" />
<glyph unicode="S" horiz-adv-x="1167" d="M80 336h184q1 -62 12.5 -99t46 -67t101 -42.5t174.5 -12.5q180 0 246.5 46.5t66.5 166.5v114q0 172 -252 172h-200q-200 0 -283.5 77.5t-83.5 230.5v122q0 63 14.5 110t49.5 85.5t93 62.5t144.5 37t204.5 13q119 0 203 -16.5t133 -42.5t76.5 -72t36.5 -91.5t10 -113.5 h-185q-1 77 -22 118t-83 63t-179 22q-124 0 -193.5 -21.5t-96 -63.5t-26.5 -116v-105q0 -149 242 -149h195q207 0 295 -81.5t88 -238.5v-90q0 -136 -46 -216t-153.5 -119t-292.5 -39q-98 0 -175 9.5t-131 24.5t-92.5 41t-61.5 53.5t-36.5 67t-18 75.5t-5.5 85z" />
<glyph unicode="T" horiz-adv-x="1341" d="M66 993v336h1204v-336h-154v215h-358v-1087h246v-121h-672v121h246v1087h-359v-215h-153z" />
<glyph unicode="U" horiz-adv-x="1439" d="M68 1208v121h538v-121h-180v-866q0 -71 23.5 -118t70 -71t100.5 -33t130 -9t129.5 9t100.5 33t71 71t24 118v866h-160v121h484v-121h-162v-860q0 -368 -492 -368q-81 0 -146.5 7.5t-134 30.5t-114 61.5t-75 105t-29.5 155.5v868h-178z" />
<glyph unicode="V" horiz-adv-x="1372" d="M25 1208v121h493v-121h-162l349 -1106l346 1106h-162v121h479v-121h-147l-396 -1208h-260l-395 1208h-145z" />
<glyph unicode="W" horiz-adv-x="2162" d="M23 1208v121h495v-121h-162l326 -1108l324 1229h188l322 -1229l327 1108h-162v121h478v-121h-146l-375 -1208h-260l-280 1094h-8l-287 -1094h-258l-377 1208h-145z" />
<glyph unicode="X" horiz-adv-x="1398" d="M25 0v121h137l438 547l-420 540h-135v121h526v-121h-176l318 -405l325 405h-180v121h500v-121h-137l-420 -520l442 -567h135v-121h-528v121h178l-336 432l-350 -432h180v-121h-497z" />
<glyph unicode="Y" horiz-adv-x="1363" d="M25 1208v121h536v-121h-182l326 -530l319 530h-182v121h518v-121h-158l-418 -669v-418h205v-121h-596v121h207v418l-420 669h-155z" />
<glyph unicode="Z" horiz-adv-x="1208" d="M66 0v121l806 1087h-645v-215h-141v336h1006v-121l-807 -1087h719v213h141v-334h-1079z" />
<glyph unicode="[" horiz-adv-x="675" d="M248 -287v1794h387v-123h-223v-1548h223v-123h-387z" />
<glyph unicode="\" horiz-adv-x="862" d="M20 1352h158l664 -1372h-158z" />
<glyph unicode="]" horiz-adv-x="675" d="M41 -164h223v1548h-223v123h387v-1794h-387v123z" />
<glyph unicode="^" horiz-adv-x="737" d="M82 938l164 434h246l163 -434h-139l-147 352l-148 -352h-139z" />
<glyph unicode="_" horiz-adv-x="1024" d="M0 -164h1024v-133h-1024v133z" />
<glyph unicode="`" horiz-adv-x="532" d="M41 1372h244l207 -229h-152z" />
<glyph unicode="a" horiz-adv-x="1132" d="M106 287q0 83 15.5 136.5t55.5 90.5t108.5 52.5t175.5 15.5h307v151q0 80 -50 112t-181 32h-27q-63 0 -101 -7.5t-58.5 -26.5t-27.5 -43t-8 -65h-172q2 74 17.5 122.5t54.5 85t108 53t175 16.5h71q94 0 157 -10t106 -30.5t66 -58.5t32.5 -88t9.5 -125v-501q0 -18 2.5 -30 t10 -24t25 -18t44.5 -6h39v-121h-166q-48 0 -77 26.5t-36 65.5h-8q-28 -112 -309 -112q-69 0 -116.5 4.5t-90.5 16.5t-69.5 33.5t-46.5 55.5t-28 82.5t-8 114.5zM279 281q0 -102 34 -134t146 -32h37q36 0 61 1t60 3.5t59 9.5t46.5 18t34 28.5t11.5 41.5v246h-295 q-54 0 -88 -5.5t-56 -16t-32.5 -33.5t-14 -51t-3.5 -76z" />
<glyph unicode="b" horiz-adv-x="1165" d="M0 1313v121h334v-531h8q9 46 83.5 77.5t223.5 31.5q99 0 173.5 -17t117.5 -43.5t69.5 -65t35 -75t8.5 -80.5v-407q0 -65 -13.5 -117.5t-35.5 -88t-57.5 -61.5t-72 -40.5t-86 -23t-92 -11t-98.5 -2.5q-58 0 -100.5 2.5t-91 10.5t-82 23t-66.5 40.5t-52.5 61.5t-31.5 88 t-12 118v989h-162zM334 297q0 -48 11 -81t30.5 -53t55 -30.5t75 -14t100.5 -3.5t100 3.5t75.5 14t56.5 30.5t31.5 53t11.5 81v379q0 55 -12.5 92.5t-32 59t-57.5 32.5t-75.5 14t-99.5 3q-53 0 -86.5 -2t-67.5 -8t-53 -18t-34.5 -32t-22 -50t-6.5 -71v-399z" />
<glyph unicode="c" horiz-adv-x="1009" d="M106 303v365q0 61 8.5 110t27.5 84t40.5 60.5t56.5 42t65.5 26.5t79 14.5t84.5 5.5t93 1q112 0 185.5 -18.5t113.5 -58t56 -89.5t18 -125h-172q-1 42 -8.5 67.5t-30 47.5t-67.5 31.5t-117 9.5q-148 0 -204 -44t-56 -157v-365q0 -113 57 -154.5t219 -41.5q65 0 106.5 10 t63 32t29 48t8.5 67h172q0 -79 -15 -129.5t-56.5 -89.5t-117.5 -56t-194 -17q-122 0 -199.5 12.5t-136 47.5t-84 99t-25.5 164z" />
<glyph unicode="d" horiz-adv-x="1175" d="M106 295v416q0 145 91 223t307 78q52 0 104.5 -6.5t102 -20.5t81 -39.5t31.5 -58.5h8v426h-163v121h336v-1313h141v-121h-303v115h-8q-5 -54 -95 -94.5t-245 -40.5q-214 0 -301 67.5t-87 247.5zM279 293q0 -96 53 -137t200 -41q156 0 227.5 35t71.5 122v467 q0 138 -282 138q-84 0 -138.5 -11.5t-82.5 -36t-38.5 -55t-10.5 -76.5v-405z" />
<glyph unicode="e" horiz-adv-x="1050" d="M106 262v412q0 190 95.5 264t341.5 74q111 0 183.5 -15t125.5 -54.5t76.5 -110t23.5 -179.5v-207h-673v-165q0 -93 60.5 -129.5t203.5 -36.5q77 0 126 9.5t74 30.5t33.5 45.5t9.5 63.5h168q-1 -71 -18 -119t-61 -87.5t-128.5 -58.5t-211.5 -19q-98 0 -171.5 13t-134 43.5 t-92 87t-31.5 138.5zM279 567h503v113q0 104 -57 150.5t-186 46.5q-143 0 -201.5 -43.5t-58.5 -153.5v-113z" />
<glyph unicode="f" horiz-adv-x="638" d="M45 0v121h170v749h-170v121h170v139q0 174 71 239t244 65h19q246 0 252 -211h-144q-2 43 -30 63.5t-99 20.5h-8q-76 0 -104.5 -31.5t-28.5 -120.5v-164h223v-121h-223v-749h176v-121h-518z" />
<glyph unicode="g" horiz-adv-x="1058" d="M74 -141q0 83 32 123t97 61l-2 4q-113 13 -113 182q0 60 33.5 112t95.5 73q-58 34 -85.5 90t-27.5 158v16q0 70 11.5 122.5t27.5 88t50 59.5t62 36.5t82 19t91 7.5t107 1h229q62 0 98.5 23.5t65.5 92.5h172q-11 -62 -26.5 -100t-42 -60t-55 -31t-77.5 -17q62 -77 62 -242 v-16q0 -65 -10.5 -114.5t-25.5 -82.5t-48 -55.5t-59.5 -34t-80.5 -17.5t-91 -7t-109 -1h-187q-66 0 -90 -19.5t-24 -76.5q0 -58 23.5 -76t90.5 -18h266q78 0 133 -4t102 -16t76 -31t49.5 -50.5t29 -74.5t8.5 -103v-53q0 -151 -123.5 -215t-351.5 -64q-66 0 -112.5 2t-99 8.5 t-87 18.5t-69 32.5t-54 50t-31.5 72t-12 97.5v29zM242 -131v-45q0 -41 14 -69t36.5 -44t63.5 -24.5t80.5 -10.5t102.5 -2t104 2.5t82 11.5t64.5 25.5t38 45t14.5 69.5v45q0 95 -54.5 121t-220.5 26h-55q-116 0 -173 -13.5t-77 -44t-20 -93.5zM272 676q0 -48 4 -79.5 t17.5 -55t29.5 -36t48.5 -19.5t66.5 -9t92 -2t92.5 2t67.5 9t49.5 19.5t30 36t17.5 55t4 79.5q0 47 -4 78.5t-17 54.5t-30 36t-49 20.5t-67.5 9.5t-93.5 2q-57 0 -92 -2t-67 -9.5t-48.5 -20.5t-29.5 -36t-17 -54.5t-4 -78.5z" />
<glyph unicode="h" horiz-adv-x="1234" d="M53 0v121h162v1192h-162v121h334v-562h8q30 140 318 140q81 0 139.5 -13t95 -36t57.5 -60t29 -78.5t8 -97.5v-606h162v-121h-493v121h159v600q0 37 -6.5 61.5t-27 48t-64.5 35t-113 11.5q-89 0 -139 -5.5t-81.5 -23t-41.5 -45t-10 -76.5v-606h160v-121h-494z" />
<glyph unicode="i" horiz-adv-x="585" d="M53 0v121h162v749h-162v121h334v-870h162v-121h-496zM215 1161v191h172v-191h-172z" />
<glyph unicode="j" horiz-adv-x="520" d="M-45 -340q121 0 186.5 56.5t65.5 185.5v968h-162v121h334v-1075q0 -113 -28 -186.5t-86.5 -112.5t-130.5 -53.5t-179 -14.5v111zM207 1161v191h172v-191h-172z" />
<glyph unicode="k" horiz-adv-x="1148" d="M53 0v121h162v1192h-162v121h334v-1313h143v-121h-477zM422 537l362 333h-163v121h514v-121h-158l-348 -327l358 -365q32 -32 59.5 -44.5t73.5 -12.5h45v-121h-131q-63 0 -105.5 19.5t-84.5 66.5z" />
<glyph unicode="l" horiz-adv-x="585" d="M53 0v121h162v1192h-162v121h334v-1313h162v-121h-496z" />
<glyph unicode="m" horiz-adv-x="1802" d="M53 0v121h162v749h-162v121h330v-119h8q19 76 92.5 108t198.5 32q137 0 207 -38.5t98 -115.5q22 84 100.5 119t206.5 35q81 0 138.5 -13.5t92 -36t54.5 -60t26.5 -78t6.5 -97.5v-606h162v-121h-494v121h160v596q0 44 -7 70.5t-27.5 48.5t-60.5 31.5t-104 9.5 q-65 0 -108.5 -6t-70.5 -16.5t-40.5 -31.5t-18 -44t-4.5 -62v-596h181v-121h-514v121h161v596q0 44 -6.5 70.5t-26.5 48.5t-60 31.5t-105 9.5q-81 0 -128.5 -8t-73 -29t-33 -48t-7.5 -75v-596h160v-121h-494z" />
<glyph unicode="n" horiz-adv-x="1234" d="M53 0v121h162v749h-162v121h330v-119h8q36 140 322 140q81 0 139.5 -13t95 -36t57.5 -60t29 -78.5t8 -97.5v-606h160v-121h-493v121h161v600q0 37 -6.5 61.5t-27 48t-64.5 35t-113 11.5q-89 0 -139 -5.5t-81.5 -23t-41.5 -45t-10 -76.5v-606h160v-121h-494z" />
<glyph unicode="o" horiz-adv-x="1126" d="M106 334v323q0 109 20.5 175.5t75 108t139 56.5t224.5 15q139 0 223.5 -15t138.5 -56.5t74.5 -108t20.5 -175.5v-323q0 -73 -8.5 -125t-30.5 -92.5t-55 -66t-86 -41.5t-119 -22.5t-158 -6.5q-93 0 -159.5 6.5t-119.5 22.5t-86 41.5t-55 66t-30.5 92.5t-8.5 125zM279 324 q0 -125 59.5 -167t226.5 -42q166 0 225.5 42t59.5 167v344q0 125 -59.5 167t-225.5 42q-167 0 -226.5 -42t-59.5 -167v-344z" />
<glyph unicode="p" horiz-adv-x="1216" d="M53 870v121h328v-114h8q5 54 93.5 94.5t242.5 40.5q211 0 300 -75t89 -257v-399q0 -139 -101 -220t-292 -81q-51 0 -104.5 6.5t-105 20t-84 39t-32.5 58.5h-8v-413h207v-121h-539v121h160v1179h-162zM387 252q0 -137 283 -137q148 0 210 42.5t62 135.5v389 q0 101 -60.5 148t-195.5 47q-156 0 -227.5 -35.5t-71.5 -122.5v-467z" />
<glyph unicode="q" horiz-adv-x="1144" d="M106 295v436q0 148 100.5 214.5t336.5 66.5q108 0 187.5 -12t143.5 -40t97 -79.5t33 -126.5v-1063h141v-121h-539v121h225v401h-8q-19 -47 -105 -79.5t-224 -32.5q-214 0 -301 67.5t-87 247.5zM279 254q0 -84 55 -111.5t198 -27.5q163 0 231 27.5t68 111.5v483 q0 72 -61 106t-221 34q-154 0 -212 -31.5t-58 -108.5v-483z" />
<glyph unicode="r" horiz-adv-x="901" d="M55 0v121h160v749h-160v121h318v-131h8q11 62 70.5 107t136.5 45h65q54 0 92.5 -14t59.5 -35.5t33.5 -57t15.5 -67t4 -78.5h-172q0 40 -5 67.5t-24.5 50.5t-54.5 23h-43q-58 0 -98.5 -39.5t-57 -92.5t-16.5 -112v-536h207v-121h-539z" />
<glyph unicode="s" horiz-adv-x="983" d="M66 272h172q1 -55 20 -87.5t72 -51t147 -18.5q143 0 202.5 30t59.5 115v68q0 64 -44 90t-144 26h-160q-172 0 -241.5 51.5t-69.5 190.5v94q0 40 12 73t41 63t74 51t113.5 33t156.5 12h21q140 0 222.5 -31.5t116 -90t35.5 -155.5h-172q-3 79 -49.5 110.5t-177.5 31.5 q-135 0 -180 -25.5t-45 -93.5v-76q0 -52 45.5 -76t142.5 -24h162q309 0 309 -234v-86q0 -67 -19 -116.5t-53.5 -81t-90 -50.5t-120 -26.5t-151.5 -7.5q-97 0 -168 13t-116 36t-72.5 60.5t-38.5 80.5t-12 102z" />
<glyph unicode="t" horiz-adv-x="782" d="M20 870v121h222v309h172v-309h334v-121h-334v-579q0 -107 44.5 -141.5t174.5 -34.5q51 0 123 10v-135q-85 -10 -183 -10q-70 0 -115 5t-90 22.5t-70 49.5t-40.5 88.5t-15.5 137.5v587h-222z" />
<glyph unicode="u" horiz-adv-x="1204" d="M43 870v121h313v-727q0 -37 7 -60.5t28.5 -45.5t68 -32.5t120.5 -10.5q104 0 160.5 16t78 47t21.5 86v606h-140v121h312v-870h162v-121h-334v119h-9q-35 -139 -307 -139q-101 0 -168.5 19t-104.5 57.5t-52 88t-15 119.5v606h-141z" />
<glyph unicode="v" horiz-adv-x="1138" d="M6 870v121h498v-121h-180l249 -663h19l246 663h-160v121h457v-121h-142l-350 -870h-151l-342 870h-144z" />
<glyph unicode="w" horiz-adv-x="1761" d="M6 870v121h483v-121h-155l205 -647h18l272 768h150l248 -768h18l228 647h-156v121h442v-121h-141l-326 -870h-153l-254 766l-281 -766h-151l-306 870h-141z" />
<glyph unicode="x" horiz-adv-x="1196" d="M23 0v121h141l346 381l-324 368h-143v121h520v-121h-176l227 -260l238 260h-158v121h477v-121h-149l-322 -354l351 -395h141v-121h-518v121h172l-250 282l-258 -282h162v-121h-477z" />
<glyph unicode="y" horiz-adv-x="1169" d="M6 870v121h498v-121h-170l289 -637l243 637h-178v121h475v-121h-135q-74 -190 -220.5 -562t-207.5 -529q-93 -230 -274 -230q-256 0 -260 297h157q3 -74 31 -111.5t70 -37.5q54 0 82.5 28.5t60.5 106.5l78 197l-395 841h-144z" />
<glyph unicode="z" horiz-adv-x="983" d="M66 0v106l604 764h-443v-192h-141v313h780v-106l-604 -764h516v213h142v-334h-854z" />
<glyph unicode="{" horiz-adv-x="675" d="M152 559v96q86 49 106.5 93.5t20.5 162.5v285q0 96 18 157.5t60.5 95t98.5 46t144 12.5v-116q-57 0 -90 -10.5t-50 -38.5t-21.5 -61.5t-4.5 -94.5v-248q0 -61 -5.5 -108.5t-19 -80t-25.5 -53.5t-34.5 -37.5t-35.5 -23.5t-40 -19v-18q27 -12 40 -19t35.5 -23.5t34.5 -37.5 t25.5 -53.5t19 -80t5.5 -108.5v-241q0 -61 4.5 -94.5t21.5 -61.5t50 -38.5t90 -10.5v-117q-88 0 -144.5 12.5t-98.5 46.5t-60 95.5t-18 157.5v278q0 118 -20.5 162.5t-106.5 93.5z" />
<glyph unicode="|" horiz-adv-x="626" d="M266 -389v1823h94v-1823h-94z" />
<glyph unicode="}" horiz-adv-x="675" d="M76 -170q57 0 90 10.5t50 38.5t21.5 61.5t4.5 94.5v241q0 53 5 95.5t12 72t21.5 54t25 38t30.5 27.5t31 19.5t34 15.5v18q-23 10 -34 15.5t-31 19.5t-30.5 27.5t-25 38t-21.5 54t-12 72t-5 95.5v248q0 61 -4.5 94.5t-21.5 61.5t-50 38.5t-90 10.5v116q88 0 144 -12.5 t98.5 -46t60.5 -95t18 -157.5v-285q0 -118 20.5 -162.5t106.5 -93.5v-96q-86 -49 -106.5 -93.5t-20.5 -162.5v-278q0 -96 -18 -157.5t-60 -95.5t-98.5 -46.5t-144.5 -12.5v117z" />
<glyph unicode="~" d="M139 481v166q76 92 250 92q62 0 143 -30.5t155 -60.5t118 -30q88 0 145.5 30t98.5 97v-165q-39 -50 -97.5 -72.5t-154.5 -22.5q-65 0 -209.5 60.5t-206.5 60.5q-86 0 -142 -29.5t-100 -95.5z" />
<glyph unicode="&#xa1;" horiz-adv-x="573" d="M164 -338l72 963h102l72 -963h-246zM168 770v221h238v-221h-238z" />
<glyph unicode="&#xa2;" d="M215 487v365q0 86 19 147.5t49.5 98t81 58t100.5 29t121 9.5v158h114v-156q82 -2 141.5 -16.5t97.5 -37.5t60.5 -59.5t32 -78.5t10.5 -99h-172q-1 37 -7.5 61t-24 45.5t-51.5 32.5t-87 15v-760q53 3 87 14.5t51.5 33t24 46.5t7.5 64h172q0 -60 -8.5 -102.5t-30.5 -79 t-60.5 -59.5t-98.5 -36.5t-144 -15.5v-184h-114v184q-100 4 -166 20t-114 52t-69.5 97.5t-21.5 153.5zM387 496q0 -100 43 -144t156 -51v758q-112 -7 -155.5 -52t-43.5 -147v-364z" />
<glyph unicode="&#xa3;" d="M82 631v125h227v188q0 98 19 167.5t51.5 111.5t87 66t113 32t141.5 8q167 0 242 -66t75 -208h-161q0 76 -44 107.5t-139 31.5q-58 0 -95.5 -9t-65.5 -33.5t-40 -68t-12 -112.5v-215h363v-125h-363v-510h463v215h141v-336h-950v121h174v510h-227z" />
<glyph unicode="&#xa4;" horiz-adv-x="1085" d="M104 305l140 133q-76 123 -76 232q0 104 78 225l-142 137l76 70l135 -137q46 32 110 52.5t120 20.5q57 0 120 -20t109 -55l137 139l68 -70l-135 -137q78 -118 78 -225q0 -92 -76 -232l133 -133l-68 -76l-135 136q-93 -72 -231 -72q-140 0 -232 69q-22 -23 -67.5 -67.5 t-65.5 -65.5zM260 670q0 -122 82 -204.5t203 -82.5q118 0 197 82.5t79 204.5q0 115 -79 193.5t-197 78.5q-121 0 -203 -79t-82 -193z" />
<glyph unicode="&#xa5;" d="M90 1188v121h465v-121h-147l198 -510l193 510h-148v121h447v-121h-142l-200 -471h225v-133h-283l-18 -45v-62h301v-133h-301v-223h205v-121h-584v121h207v223h-305v133h305v62l-21 45h-284v133h227l-201 471h-139z" />
<glyph unicode="&#xa6;" horiz-adv-x="626" d="M266 -387v780h94v-780h-94zM266 653v781h94v-781h-94z" />
<glyph unicode="&#xa7;" d="M135 492v153q0 57 35.5 102.5t99.5 71.5q-44 25 -69 69t-25 95v113q0 48 9 82.5t33.5 64t67 48t109.5 28.5t160 10h86q94 0 160.5 -15t104.5 -38t59.5 -62t27.5 -76t6 -91h-192q0 77 -39.5 115t-151.5 38h-53q-61 0 -100 -5t-60.5 -12t-31.5 -25t-11.5 -32.5t-1.5 -46.5 v-80q0 -51 44.5 -75.5t140.5 -24.5h194q316 0 316 -233v-127q0 -77 -38.5 -132t-96.5 -71q94 -66 94 -164v-104q0 -83 -31.5 -140t-92.5 -87.5t-135 -43t-175 -12.5h-62q-94 0 -160.5 15t-104.5 38.5t-59.5 62.5t-27.5 76t-6 91h192q0 -78 39.5 -116t151.5 -38h41 q59 0 98.5 4t76 16.5t54.5 38t18 64.5v96q0 63 -43 90t-139 27h-178q-158 0 -246 65t-88 177zM317 487q0 -50 62 -75t164 -25h157q86 0 128 27t42 94v137q0 117 -202 117h-174q-28 0 -43 -0.5t-39.5 -3.5t-38 -10t-28.5 -19t-21.5 -32.5t-6.5 -47.5v-162z" />
<glyph unicode="&#xa8;" horiz-adv-x="671" d="M82 1161v191h172v-191h-172zM418 1161v191h172v-191h-172z" />
<glyph unicode="&#xa9;" horiz-adv-x="1468" d="M123 340v631q0 69 24 125.5t62.5 95.5t93.5 68.5t111 46.5t121.5 27.5t118.5 14t108 3.5q57 0 110.5 -3.5t118 -14t118.5 -27.5t106.5 -46.5t89 -68t59 -95t22.5 -124.5v-633q0 -74 -29 -133t-80.5 -97t-112.5 -65t-135 -40.5t-137.5 -19t-129.5 -5.5q-58 0 -113 3.5 t-120 14t-121 27t-110 44.5t-91.5 64.5t-60.5 89.5t-23 117zM283 336q0 -68 48.5 -116.5t127.5 -71.5t153.5 -32.5t153.5 -9.5q37 0 74 2t84 8t87.5 16.5t81 28t69 41t46 58t17.5 76.5v651q0 50 -21 90.5t-59 66.5t-82.5 44.5t-99.5 27.5t-102 13t-97 4q-63 0 -121.5 -5 t-126.5 -21.5t-117.5 -42.5t-82.5 -71.5t-33 -105.5v-651zM436 539v278q0 124 77.5 186t248.5 62q118 0 186 -26.5t93.5 -74t25.5 -126.5v-56h-149v39q0 83 -29.5 106t-132.5 23q-97 0 -128.5 -28.5t-31.5 -120.5v-246q0 -51 6.5 -79.5t27 -44.5t48 -20.5t78.5 -4.5 q61 0 91 3.5t47.5 20t20.5 37.5t3 68v40h149v-57q0 -45 -7.5 -78t-27 -62.5t-53.5 -47.5t-88 -28.5t-129 -10.5q-183 0 -254.5 52.5t-71.5 195.5z" />
<glyph unicode="&#xaa;" horiz-adv-x="845" d="M100 815q0 122 53.5 168.5t206.5 46.5h201v98q0 51 -32.5 71t-116.5 20h-19q-76 0 -99.5 -21.5t-23.5 -77.5h-147q3 111 57.5 160t202.5 49h53q113 0 170 -21t78 -66.5t21 -135.5v-344q0 -24 8.5 -36.5t36.5 -12.5h38v-101h-126q-56 0 -84 47q-39 -61 -216 -61 q-76 0 -121 7.5t-79.5 30.5t-48 66t-13.5 113zM102 350v105h686v-105h-686zM244 813q0 -66 21.5 -85t92.5 -19h25q36 0 61 2t55 7.5t46 19.5t16 36v158h-192q-44 0 -68 -4.5t-37.5 -19.5t-16.5 -35t-3 -60z" />
<glyph unicode="&#xab;" horiz-adv-x="905" d="M82 496l205 393h155l-188 -393l188 -394h-155zM451 496l204 393h156l-188 -393l188 -394h-156z" />
<glyph unicode="&#xac;" d="M164 545v133h860l2 -498h-133v365h-729z" />
<glyph unicode="&#xad;" horiz-adv-x="0" />
<glyph unicode="&#xae;" horiz-adv-x="1468" d="M123 340v631q0 69 24 125.5t62.5 95.5t93.5 68.5t111 46.5t121.5 27.5t118.5 14t108 3.5q57 0 110.5 -3.5t118 -14t118.5 -27.5t106.5 -46.5t89 -68t59 -95t22.5 -124.5v-633q0 -74 -29 -133t-80.5 -97t-112.5 -65t-135 -40.5t-137.5 -19t-129.5 -5.5q-58 0 -113 3.5 t-120 14t-121 27t-110 44.5t-91.5 64.5t-60.5 89.5t-23 117zM283 336q0 -68 48.5 -116.5t127.5 -71.5t153.5 -32.5t153.5 -9.5q37 0 74 2t84 8t87.5 16.5t81 28t69 41t46 58t17.5 76.5v651q0 50 -21 90.5t-59 66.5t-82.5 44.5t-99.5 27.5t-102 13t-97 4q-63 0 -121.5 -5 t-126.5 -21.5t-117.5 -42.5t-82.5 -71.5t-33 -105.5v-651zM414 266v88h96v621h-96v88h340q155 0 217.5 -31.5t62.5 -124.5v-125q0 -91 -116 -116v-2q122 -21 122 -129v-136q0 -18 14 -31.5t36 -13.5h53v-88h-117q-68 0 -96.5 37.5t-28.5 83.5v125q0 30 -12 50t-34.5 29 t-45.5 12t-55 3h-105v-252h96v-88h-331zM649 694h105q77 0 109 21t32 71v99q0 90 -156 90h-90v-281z" />
<glyph unicode="&#xaf;" horiz-adv-x="651" d="M82 1208v121h487v-121h-487z" />
<glyph unicode="&#xb0;" horiz-adv-x="784" d="M74 870v230q0 55 17.5 96t46.5 66t71.5 40.5t86 21t97.5 5.5q53 0 96.5 -5.5t86 -21t71.5 -40.5t46.5 -66t17.5 -96v-230q0 -55 -17.5 -96t-46.5 -66t-71.5 -40.5t-86 -21t-96.5 -5.5q-54 0 -97.5 5.5t-86 21t-71.5 40.5t-46.5 66t-17.5 96zM221 870q0 -67 45 -93.5 t127 -26.5q81 0 125.5 26.5t44.5 93.5v230q0 67 -44.5 94t-125.5 27t-126.5 -27t-45.5 -94v-230z" />
<glyph unicode="&#xb1;" d="M164 0v133h860v-133h-860zM164 545v133h362v362h133v-362h365v-133h-365v-365h-133v365h-362z" />
<glyph unicode="&#xb2;" horiz-adv-x="712" d="M70 614v134q0 26 8.5 49.5t18.5 40t33.5 33.5t38 26.5t47.5 23.5t47.5 19t51.5 18q33 12 44.5 16t38 14.5t37 18t25 19t20 24t5.5 27.5v74q0 42 -23.5 58t-84.5 16h-60q-98 0 -98 -64v-51h-143v57q0 52 18.5 85.5t72 55t144.5 21.5h62q138 0 198 -37t60 -129v-98 q0 -34 -15.5 -62.5t-36.5 -47.5t-59 -37.5t-65.5 -28.5t-73.5 -25q-43 -14 -65.5 -22.5t-51.5 -23t-42 -30.5t-13 -36v-33h301v67h125v-172h-565z" />
<glyph unicode="&#xb3;" horiz-adv-x="712" d="M49 764v47h144v-39q0 -31 20.5 -47t73.5 -16h61q27 0 46.5 2t40.5 8.5t32.5 20.5t11.5 36v96q0 48 -137 48h-129v104h109q133 0 133 51v111q0 39 -119 39h-37q-54 0 -75 -13t-21 -41v-34h-142v43q0 36 8 60t31 46t70.5 32.5t120.5 10.5h49q47 0 80 -2t69 -10t58 -22 t36.5 -39t14.5 -60v-129q0 -51 -57 -80q82 -26 82 -94v-127q0 -52 -22.5 -86t-64.5 -49.5t-84 -21t-100 -5.5h-73q-72 0 -119.5 12.5t-70.5 36t-31.5 49.5t-8.5 62z" />
<glyph unicode="&#xb4;" horiz-adv-x="532" d="M41 1143l207 229h244l-299 -229h-152z" />
<glyph unicode="&#xb6;" horiz-adv-x="940" d="M82 1026q0 175 46 239t173 64h557v-33l-47 -34q-43 -32 -43 -76v-1624h-109v1679h-143v-1679h-108v1159q-71 0 -119 4.5t-86.5 18t-60 34t-36 56t-19.5 80.5t-5 112z" />
<glyph unicode="&#xb7;" horiz-adv-x="524" d="M143 430v221h238v-221h-238z" />
<glyph unicode="&#xb8;" horiz-adv-x="485" d="M41 -295q99 -22 166 -22q64 0 89.5 18t25.5 51q0 70 -95 70h-135v178h101v-88h34q126 0 171.5 -34t45.5 -124q0 -84 -57.5 -124t-175.5 -40q-28 0 -61 3.5t-69.5 9.5t-39.5 6v96z" />
<glyph unicode="&#xb9;" horiz-adv-x="712" d="M94 614v105h211v455l-192 -113v127l211 129h125v-598h192v-105h-547z" />
<glyph unicode="&#xba;" horiz-adv-x="845" d="M102 350v105h662v-105h-662zM102 854v219q0 153 68 204.5t266 51.5q196 0 262 -51.5t66 -204.5v-219q0 -78 -14 -125.5t-52.5 -77.5t-100 -41.5t-161.5 -11.5q-197 0 -265.5 52.5t-68.5 203.5zM250 848q0 -85 37.5 -112t148.5 -27q109 0 148 27.5t39 111.5v231 q0 84 -39.5 112t-147.5 28q-110 0 -148 -27.5t-38 -112.5v-231z" />
<glyph unicode="&#xbb;" horiz-adv-x="905" d="M94 102l189 394l-189 393h156l205 -393l-205 -394h-156zM463 102l188 394l-188 393h155l205 -393l-205 -394h-155z" />
<glyph unicode="&#xbc;" horiz-adv-x="1689" d="M94 614v105h211v455l-192 -113v127l211 129h125v-598h192v-105h-547zM414 -20l663 1370h156l-664 -1370h-155zM969 190v99l250 426h151l-250 -422h221v211h132v-211h81v-103h-81v-94h92v-96h-318v96h94v94h-372z" />
<glyph unicode="&#xbd;" horiz-adv-x="1689" d="M94 614v105h211v455l-192 -113v127l211 129h125v-598h192v-105h-547zM414 -20l663 1370h156l-664 -1370h-155zM981 0v133q0 26 8.5 49.5t19 40.5t33.5 34t38 26.5t47.5 23t48 19t51.5 18.5q33 12 44.5 16t38 14.5t37 18t25 19t20 24t5.5 27.5v74q0 42 -24 57.5t-85 15.5 h-59q-99 0 -99 -63v-51h-143v57q0 79 51 120.5t185 41.5h61q138 0 198 -37t60 -129v-98q0 -34 -15.5 -62.5t-36.5 -47.5t-59 -37.5t-65.5 -28.5t-73.5 -25q-33 -11 -52.5 -18t-45.5 -18.5t-39.5 -21.5t-24 -24.5t-10.5 -30.5v-33h301v68h125v-172h-565z" />
<glyph unicode="&#xbe;" horiz-adv-x="1689" d="M49 764v47h144v-39q0 -31 20.5 -47t73.5 -16h61q27 0 46.5 2t40.5 8.5t32.5 20.5t11.5 36v96q0 48 -137 48h-129v104h109q133 0 133 51v111q0 39 -119 39h-37q-54 0 -75 -13t-21 -41v-34h-142v43q0 36 8 60t31 46t70.5 32.5t120.5 10.5h49q47 0 80 -2t69 -10t58 -22 t36.5 -39t14.5 -60v-129q0 -51 -57 -80q82 -26 82 -94v-127q0 -52 -22.5 -86t-64.5 -49.5t-84 -21t-100 -5.5h-73q-72 0 -119.5 12.5t-70.5 36t-31.5 49.5t-8.5 62zM414 -20l663 1370h156l-664 -1370h-155zM969 190v99l250 426h151l-250 -422h221v211h132v-211h81v-103h-81 v-94h92v-96h-318v96h94v94h-372z" />
<glyph unicode="&#xbf;" horiz-adv-x="1091" d="M125 33q0 59 19.5 110.5t51.5 88.5t70 70t76 63.5t70 61.5t51.5 70.5t19.5 84.5v59h160v-49q0 -68 -19 -123t-49.5 -92t-67.5 -68.5t-74 -61t-67.5 -61.5t-49.5 -78t-19 -102v-63q0 -92 53 -130t170 -38h86q114 0 156.5 35t42.5 110h172q0 -44 -4.5 -76t-17 -66.5 t-37.5 -57.5t-63.5 -42t-98 -28.5t-138.5 -9.5h-106q-206 0 -296.5 67t-90.5 221v105zM446 770v221h238v-221h-238z" />
<glyph unicode="&#xc0;" horiz-adv-x="1372" d="M25 0v121h145l395 1208h260l396 -1208h147v-121h-496v121h162l-100 321h-496l-98 -321h162v-121h-477zM311 1710h244l207 -229h-152zM477 561h418l-207 666z" />
<glyph unicode="&#xc1;" horiz-adv-x="1372" d="M25 0v121h145l395 1208h260l396 -1208h147v-121h-496v121h162l-100 321h-496l-98 -321h162v-121h-477zM477 561h418l-207 666zM625 1481l206 229h244l-299 -229h-151z" />
<glyph unicode="&#xc2;" horiz-adv-x="1372" d="M25 0v121h145l395 1208h260l396 -1208h147v-121h-496v121h162l-100 321h-496l-98 -321h162v-121h-477zM399 1481l164 229h246l164 -229h-139l-148 147l-147 -147h-140zM477 561h418l-207 666z" />
<glyph unicode="&#xc3;" horiz-adv-x="1372" d="M25 0v121h145l395 1208h260l396 -1208h147v-121h-496v121h162l-100 321h-496l-98 -321h162v-121h-477zM424 1446v141q49 60 133 60q50 0 133.5 -35t122.5 -35q44 0 73 21t60 67v-133q-47 -80 -133 -80q-52 0 -134.5 37t-121.5 37q-82 0 -133 -80zM477 561h418l-207 666z " />
<glyph unicode="&#xc4;" horiz-adv-x="1372" d="M25 0v121h145l395 1208h260l396 -1208h147v-121h-496v121h162l-100 321h-496l-98 -321h162v-121h-477zM432 1499v191h172v-191h-172zM477 561h418l-207 666zM768 1499v191h172v-191h-172z" />
<glyph unicode="&#xc5;" horiz-adv-x="1372" d="M25 0v121h145l354 1085q-71 71 -71 176q0 101 69.5 172.5t169.5 71.5t172 -72t72 -172t-72 -172l357 -1089h147v-121h-496v121h162l-100 321h-496l-98 -321h162v-121h-477zM477 561h418l-201 647h-12zM580 1382q0 -46 33 -79t79 -33q45 0 79 33.5t34 78.5 q0 44 -34.5 78.5t-78.5 34.5q-45 0 -78.5 -34t-33.5 -79z" />
<glyph unicode="&#xc6;" horiz-adv-x="2050" d="M0 0v121h166l618 1087h-168v121h1309v-336h-141v215h-545v-463h334v156h121v-434h-121v158h-334v-504h606v213h142v-334h-1108v121h180v321h-529l-180 -321h148v-121h-498zM594 561h465v647h-107z" />
<glyph unicode="&#xc7;" horiz-adv-x="1316" d="M127 340v631q0 81 19 143t57 103.5t86 68.5t116.5 41t136.5 19.5t158 5.5q115 0 202.5 -14.5t146 -40.5t95 -65.5t52.5 -87.5t16 -108v-69h-182v69q0 59 -27.5 97.5t-102 62t-200.5 23.5q-121 0 -193 -9.5t-119 -36.5t-64 -71t-17 -117v-645q0 -59 16 -99t43.5 -65 t78.5 -38.5t108.5 -18t144.5 -4.5q186 0 259 45t73 135v72h182v-72q0 -75 -25 -130.5t-82 -98t-155.5 -64t-238.5 -22.5v-68h34q126 0 172 -34t46 -124q0 -84 -58 -124t-176 -40q-28 0 -61 3.5t-69.5 9.5t-39.5 6v96q99 -22 166 -22q64 0 89.5 18t25.5 51q0 70 -95 70h-135 v160q-93 3 -162.5 13.5t-132.5 35t-102.5 64t-62.5 101t-23 144.5z" />
<glyph unicode="&#xc8;" horiz-adv-x="1236" d="M66 0v121h180v1087h-180v121h1046v-336h-141v215h-545v-463h334v156h121v-434h-121v158h-334v-504h606v213h142v-334h-1108zM301 1710h244l207 -229h-152z" />
<glyph unicode="&#xc9;" horiz-adv-x="1236" d="M66 0v121h180v1087h-180v121h1046v-336h-141v215h-545v-463h334v156h121v-434h-121v158h-334v-504h606v213h142v-334h-1108zM487 1481l207 229h244l-299 -229h-152z" />
<glyph unicode="&#xca;" horiz-adv-x="1236" d="M66 0v121h180v1087h-180v121h1046v-336h-141v215h-545v-463h334v156h121v-434h-121v158h-334v-504h606v213h142v-334h-1108zM332 1481l164 229h245l164 -229h-139l-148 147l-147 -147h-139z" />
<glyph unicode="&#xcb;" horiz-adv-x="1236" d="M66 0v121h180v1087h-180v121h1046v-336h-141v215h-545v-463h334v156h121v-434h-121v158h-334v-504h606v213h142v-334h-1108zM365 1499v191h172v-191h-172zM700 1499v191h172v-191h-172z" />
<glyph unicode="&#xcc;" horiz-adv-x="655" d="M-23 1710h244l207 -229h-152zM66 0v121h180v1087h-180v121h544v-121h-184v-1087h184v-121h-544z" />
<glyph unicode="&#xcd;" horiz-adv-x="655" d="M66 0v121h180v1087h-180v121h544v-121h-184v-1087h184v-121h-544zM244 1481l207 229h243l-299 -229h-151z" />
<glyph unicode="&#xce;" horiz-adv-x="655" d="M41 1481l164 229h246l163 -229h-139l-147 147l-148 -147h-139zM66 0v121h180v1087h-180v121h544v-121h-184v-1087h184v-121h-544z" />
<glyph unicode="&#xcf;" horiz-adv-x="655" d="M66 0v121h180v1087h-180v121h544v-121h-184v-1087h184v-121h-544zM74 1499v191h172v-191h-172zM410 1499v191h172v-191h-172z" />
<glyph unicode="&#xd0;" horiz-adv-x="1370" d="M66 0v121h180v502h-180v120h180v465h-180v121h645q64 0 121 -5.5t123.5 -19t119.5 -41.5t97.5 -68.5t69 -103.5t24.5 -143v-588q0 -360 -553 -360h-647zM426 121h272q64 0 112 3.5t102.5 17t90 36t59 64t23.5 98.5v616q0 62 -22 108t-56.5 73t-85.5 43.5t-101 22 t-111 5.5h-283v-465h270v-120h-270v-502z" />
<glyph unicode="&#xd1;" horiz-adv-x="1538" d="M66 0v121h176v1087h-176v121h391l692 -1042v921h-180v121h508v-121h-179v-1208h-153l-754 1133v-1012h180v-121h-505zM508 1446v141q49 60 133 60q50 0 133.5 -35t122.5 -35q44 0 73 21t60 67v-133q-47 -80 -133 -80q-52 0 -134.5 37t-121.5 37q-82 0 -133 -80z" />
<glyph unicode="&#xd2;" horiz-adv-x="1411" d="M127 340v629q0 97 31.5 167.5t81.5 111t128.5 65t156 32t180.5 7.5q72 0 130 -3.5t119 -14.5t107.5 -28.5t89 -46.5t70 -68.5t43.5 -95.5t16 -126v-629q0 -90 -29.5 -156t-78.5 -104.5t-126 -61.5t-156 -30.5t-185 -7.5q-107 0 -186.5 7.5t-157 30.5t-126 61.5 t-78.5 104.5t-30 156zM307 350q0 -136 93.5 -185.5t304.5 -49.5q210 0 302.5 49.5t92.5 185.5v617q0 78 -23 127.5t-75 77t-121 37.5t-176 10q-108 0 -177.5 -10t-122 -37.5t-75.5 -77t-23 -127.5v-617zM332 1710h243l207 -229h-151z" />
<glyph unicode="&#xd3;" horiz-adv-x="1411" d="M127 340v629q0 97 31.5 167.5t81.5 111t128.5 65t156 32t180.5 7.5q72 0 130 -3.5t119 -14.5t107.5 -28.5t89 -46.5t70 -68.5t43.5 -95.5t16 -126v-629q0 -90 -29.5 -156t-78.5 -104.5t-126 -61.5t-156 -30.5t-185 -7.5q-107 0 -186.5 7.5t-157 30.5t-126 61.5 t-78.5 104.5t-30 156zM307 350q0 -136 93.5 -185.5t304.5 -49.5q210 0 302.5 49.5t92.5 185.5v617q0 78 -23 127.5t-75 77t-121 37.5t-176 10q-108 0 -177.5 -10t-122 -37.5t-75.5 -77t-23 -127.5v-617zM584 1481l207 229h243l-299 -229h-151z" />
<glyph unicode="&#xd4;" horiz-adv-x="1411" d="M127 340v629q0 97 31.5 167.5t81.5 111t128.5 65t156 32t180.5 7.5q72 0 130 -3.5t119 -14.5t107.5 -28.5t89 -46.5t70 -68.5t43.5 -95.5t16 -126v-629q0 -90 -29.5 -156t-78.5 -104.5t-126 -61.5t-156 -30.5t-185 -7.5q-107 0 -186.5 7.5t-157 30.5t-126 61.5 t-78.5 104.5t-30 156zM307 350q0 -136 93.5 -185.5t304.5 -49.5q210 0 302.5 49.5t92.5 185.5v617q0 78 -23 127.5t-75 77t-121 37.5t-176 10q-108 0 -177.5 -10t-122 -37.5t-75.5 -77t-23 -127.5v-617zM418 1481l164 229h245l164 -229h-139l-147 147l-148 -147h-139z" />
<glyph unicode="&#xd5;" horiz-adv-x="1411" d="M127 340v629q0 97 31.5 167.5t81.5 111t128.5 65t156 32t180.5 7.5q72 0 130 -3.5t119 -14.5t107.5 -28.5t89 -46.5t70 -68.5t43.5 -95.5t16 -126v-629q0 -90 -29.5 -156t-78.5 -104.5t-126 -61.5t-156 -30.5t-185 -7.5q-107 0 -186.5 7.5t-157 30.5t-126 61.5 t-78.5 104.5t-30 156zM307 350q0 -136 93.5 -185.5t304.5 -49.5q210 0 302.5 49.5t92.5 185.5v617q0 78 -23 127.5t-75 77t-121 37.5t-176 10q-108 0 -177.5 -10t-122 -37.5t-75.5 -77t-23 -127.5v-617zM444 1446v141q49 60 134 60q50 0 133.5 -35t122.5 -35q44 0 73 21 t60 67v-133q-47 -80 -133 -80q-52 0 -134.5 37t-121.5 37q-83 0 -134 -80z" />
<glyph unicode="&#xd6;" horiz-adv-x="1411" d="M127 340v629q0 97 31.5 167.5t81.5 111t128.5 65t156 32t180.5 7.5q72 0 130 -3.5t119 -14.5t107.5 -28.5t89 -46.5t70 -68.5t43.5 -95.5t16 -126v-629q0 -90 -29.5 -156t-78.5 -104.5t-126 -61.5t-156 -30.5t-185 -7.5q-107 0 -186.5 7.5t-157 30.5t-126 61.5 t-78.5 104.5t-30 156zM307 350q0 -136 93.5 -185.5t304.5 -49.5q210 0 302.5 49.5t92.5 185.5v617q0 78 -23 127.5t-75 77t-121 37.5t-176 10q-108 0 -177.5 -10t-122 -37.5t-75.5 -77t-23 -127.5v-617zM451 1499v191h172v-191h-172zM786 1499v191h172v-191h-172z" />
<glyph unicode="&#xd7;" d="M242 354l256 256l-256 256l94 95l256 -256l258 258l94 -95l-258 -258l258 -258l-94 -94l-258 258l-256 -256z" />
<glyph unicode="&#xd8;" horiz-adv-x="1411" d="M127 340v629q0 97 31.5 167.5t81.5 111t128.5 65t156 32t180.5 7.5q72 0 130 -3.5t119 -14.5t107.5 -28.5t89 -46.5t70 -68.5t43.5 -95.5t16 -126v-629q0 -90 -29.5 -156t-78.5 -104.5t-126 -61.5t-156 -30.5t-185 -7.5q-107 0 -186.5 7.5t-157 30.5t-126 61.5 t-78.5 104.5t-30 156zM307 350q0 -71 25 -119l647 951q-80 37 -274 37q-108 0 -177.5 -10t-122 -37.5t-75.5 -77t-23 -127.5v-617zM428 150q86 -35 277 -35q210 0 302.5 49.5t92.5 185.5v617q0 79 -27 131z" />
<glyph unicode="&#xd9;" horiz-adv-x="1439" d="M68 1208v121h538v-121h-180v-866q0 -71 23.5 -118t70 -71t100.5 -33t130 -9t129.5 9t100.5 33t71 71t24 118v866h-160v121h484v-121h-162v-860q0 -368 -492 -368q-81 0 -146.5 7.5t-134 30.5t-114 61.5t-75 105t-29.5 155.5v868h-178zM494 1710h243l207 -229h-151z" />
<glyph unicode="&#xda;" horiz-adv-x="1439" d="M68 1208v121h538v-121h-180v-866q0 -71 23.5 -118t70 -71t100.5 -33t130 -9t129.5 9t100.5 33t71 71t24 118v866h-160v121h484v-121h-162v-860q0 -368 -492 -368q-81 0 -146.5 7.5t-134 30.5t-114 61.5t-75 105t-29.5 155.5v868h-178zM494 1481l206 229h244l-299 -229 h-151z" />
<glyph unicode="&#xdb;" horiz-adv-x="1439" d="M68 1208v121h538v-121h-180v-866q0 -71 23.5 -118t70 -71t100.5 -33t130 -9t129.5 9t100.5 33t71 71t24 118v866h-160v121h484v-121h-162v-860q0 -368 -492 -368q-81 0 -146.5 7.5t-134 30.5t-114 61.5t-75 105t-29.5 155.5v868h-178zM432 1481l164 229h246l164 -229 h-140l-147 147l-148 -147h-139z" />
<glyph unicode="&#xdc;" horiz-adv-x="1439" d="M68 1208v121h538v-121h-180v-866q0 -71 23.5 -118t70 -71t100.5 -33t130 -9t129.5 9t100.5 33t71 71t24 118v866h-160v121h484v-121h-162v-860q0 -368 -492 -368q-81 0 -146.5 7.5t-134 30.5t-114 61.5t-75 105t-29.5 155.5v868h-178zM465 1499v191h172v-191h-172z M801 1499v191h172v-191h-172z" />
<glyph unicode="&#xdd;" horiz-adv-x="1382" d="M25 1208v121h536v-121h-182l326 -530l319 530h-182v121h518v-121h-158l-418 -669v-418h205v-121h-596v121h207v418l-420 669h-155zM465 1481l207 229h243l-299 -229h-151z" />
<glyph unicode="&#xde;" horiz-adv-x="1208" d="M66 0v121h180v1087h-180v121h544v-121h-184v-123h252q88 0 155 -7t127.5 -25.5t99 -49t61 -80.5t22.5 -118v-209q0 -172 -116.5 -243.5t-385.5 -71.5h-215v-160h233v-121h-593zM426 406h242q161 0 228 42t67 150v184q0 69 -23.5 106.5t-89 57t-186.5 19.5h-238v-559z" />
<glyph unicode="&#xdf;" horiz-adv-x="1220" d="M55 0v121h160v917q0 161 89.5 237.5t268.5 76.5h76q172 0 264 -31.5t127 -96.5t35 -186v-98q0 -88 -49.5 -151t-132.5 -82v-5q242 -41 242 -235v-162q0 -173 -104 -239t-367 -66h-74v121h74q119 0 185 19t90 53t24 94v172q0 98 -61.5 131t-237.5 33h-74v122h65 q123 0 185.5 54t62.5 141v78q0 111 -52.5 155t-201.5 44h-43q-128 0 -173.5 -44.5t-45.5 -154.5v-1018h-332z" />
<glyph unicode="&#xe0;" horiz-adv-x="1132" d="M106 287q0 83 15.5 136.5t55.5 90.5t108.5 52.5t175.5 15.5h307v151q0 80 -50 112t-181 32h-27q-63 0 -101 -7.5t-58.5 -26.5t-27.5 -43t-8 -65h-172q2 74 17.5 122.5t54.5 85t108 53t175 16.5h71q94 0 157 -10t106 -30.5t66 -58.5t32.5 -88t9.5 -125v-501q0 -18 2.5 -30 t10 -24t25 -18t44.5 -6h39v-121h-166q-48 0 -77 26.5t-36 65.5h-8q-28 -112 -309 -112q-69 0 -116.5 4.5t-90.5 16.5t-69.5 33.5t-46.5 55.5t-28 82.5t-8 114.5zM184 1372h244l207 -229h-152zM279 281q0 -102 34 -134t146 -32h37q36 0 61 1t60 3.5t59 9.5t46.5 18t34 28.5 t11.5 41.5v246h-295q-54 0 -88 -5.5t-56 -16t-32.5 -33.5t-14 -51t-3.5 -76z" />
<glyph unicode="&#xe1;" horiz-adv-x="1132" d="M106 287q0 83 15.5 136.5t55.5 90.5t108.5 52.5t175.5 15.5h307v151q0 80 -50 112t-181 32h-27q-63 0 -101 -7.5t-58.5 -26.5t-27.5 -43t-8 -65h-172q2 74 17.5 122.5t54.5 85t108 53t175 16.5h71q94 0 157 -10t106 -30.5t66 -58.5t32.5 -88t9.5 -125v-501q0 -18 2.5 -30 t10 -24t25 -18t44.5 -6h39v-121h-166q-48 0 -77 26.5t-36 65.5h-8q-28 -112 -309 -112q-69 0 -116.5 4.5t-90.5 16.5t-69.5 33.5t-46.5 55.5t-28 82.5t-8 114.5zM279 281q0 -102 34 -134t146 -32h37q36 0 61 1t60 3.5t59 9.5t46.5 18t34 28.5t11.5 41.5v246h-295 q-54 0 -88 -5.5t-56 -16t-32.5 -33.5t-14 -51t-3.5 -76zM438 1143l207 229h244l-299 -229h-152z" />
<glyph unicode="&#xe2;" horiz-adv-x="1132" d="M106 287q0 83 15.5 136.5t55.5 90.5t108.5 52.5t175.5 15.5h307v151q0 80 -50 112t-181 32h-27q-63 0 -101 -7.5t-58.5 -26.5t-27.5 -43t-8 -65h-172q2 74 17.5 122.5t54.5 85t108 53t175 16.5h71q94 0 157 -10t106 -30.5t66 -58.5t32.5 -88t9.5 -125v-501q0 -18 2.5 -30 t10 -24t25 -18t44.5 -6h39v-121h-166q-48 0 -77 26.5t-36 65.5h-8q-28 -112 -309 -112q-69 0 -116.5 4.5t-90.5 16.5t-69.5 33.5t-46.5 55.5t-28 82.5t-8 114.5zM279 281q0 -102 34 -134t146 -32h37q36 0 61 1t60 3.5t59 9.5t46.5 18t34 28.5t11.5 41.5v246h-295 q-54 0 -88 -5.5t-56 -16t-32.5 -33.5t-14 -51t-3.5 -76zM279 1143l163 229h246l164 -229h-139l-148 147l-147 -147h-139z" />
<glyph unicode="&#xe3;" horiz-adv-x="1132" d="M106 287q0 83 15.5 136.5t55.5 90.5t108.5 52.5t175.5 15.5h307v151q0 80 -50 112t-181 32h-27q-63 0 -101 -7.5t-58.5 -26.5t-27.5 -43t-8 -65h-172q2 74 17.5 122.5t54.5 85t108 53t175 16.5h71q94 0 157 -10t106 -30.5t66 -58.5t32.5 -88t9.5 -125v-501q0 -18 2.5 -30 t10 -24t25 -18t44.5 -6h39v-121h-166q-48 0 -77 26.5t-36 65.5h-8q-28 -112 -309 -112q-69 0 -116.5 4.5t-90.5 16.5t-69.5 33.5t-46.5 55.5t-28 82.5t-8 114.5zM279 281q0 -102 34 -134t146 -32h37q36 0 61 1t60 3.5t59 9.5t46.5 18t34 28.5t11.5 41.5v246h-295 q-54 0 -88 -5.5t-56 -16t-32.5 -33.5t-14 -51t-3.5 -76zM305 1108v141q49 60 133 60q50 0 133.5 -35t122.5 -35q44 0 73 21t60 67v-133q-47 -80 -133 -80q-52 0 -134.5 37t-121.5 37q-82 0 -133 -80z" />
<glyph unicode="&#xe4;" horiz-adv-x="1132" d="M106 287q0 83 15.5 136.5t55.5 90.5t108.5 52.5t175.5 15.5h307v151q0 80 -50 112t-181 32h-27q-63 0 -101 -7.5t-58.5 -26.5t-27.5 -43t-8 -65h-172q2 74 17.5 122.5t54.5 85t108 53t175 16.5h71q94 0 157 -10t106 -30.5t66 -58.5t32.5 -88t9.5 -125v-501q0 -18 2.5 -30 t10 -24t25 -18t44.5 -6h39v-121h-166q-48 0 -77 26.5t-36 65.5h-8q-28 -112 -309 -112q-69 0 -116.5 4.5t-90.5 16.5t-69.5 33.5t-46.5 55.5t-28 82.5t-8 114.5zM279 281q0 -102 34 -134t146 -32h37q36 0 61 1t60 3.5t59 9.5t46.5 18t34 28.5t11.5 41.5v246h-295 q-54 0 -88 -5.5t-56 -16t-32.5 -33.5t-14 -51t-3.5 -76zM311 1161v191h172v-191h-172zM647 1161v191h172v-191h-172z" />
<glyph unicode="&#xe5;" horiz-adv-x="1132" d="M106 287q0 83 15.5 136.5t55.5 90.5t108.5 52.5t175.5 15.5h307v151q0 80 -50 112t-181 32h-27q-63 0 -101 -7.5t-58.5 -26.5t-27.5 -43t-8 -65h-172q2 74 17.5 122.5t54.5 85t108 53t175 16.5h71q94 0 157 -10t106 -30.5t66 -58.5t32.5 -88t9.5 -125v-501q0 -18 2.5 -30 t10 -24t25 -18t44.5 -6h39v-121h-166q-48 0 -77 26.5t-36 65.5h-8q-28 -112 -309 -112q-69 0 -116.5 4.5t-90.5 16.5t-69.5 33.5t-46.5 55.5t-28 82.5t-8 114.5zM279 281q0 -102 34 -134t146 -32h37q36 0 61 1t60 3.5t59 9.5t46.5 18t34 28.5t11.5 41.5v246h-295 q-54 0 -88 -5.5t-56 -16t-32.5 -33.5t-14 -51t-3.5 -76zM377 1257q0 78 54 134.5t132 56.5t134.5 -56.5t56.5 -134.5t-56.5 -132t-134.5 -54t-132 54t-54 132zM457 1257q0 -43 31.5 -74.5t74.5 -31.5t75 31.5t32 74.5t-32 75t-75 32t-74.5 -32t-31.5 -75z" />
<glyph unicode="&#xe6;" horiz-adv-x="1701" d="M106 287q0 83 15.5 136.5t55.5 90.5t108.5 52.5t175.5 15.5h307v151q0 80 -50 112t-181 32h-27q-63 0 -101 -7.5t-58.5 -26.5t-27.5 -43t-8 -65h-172q2 74 17.5 122.5t54.5 85t108 53t175 16.5h71q119 0 189 -16t108 -54q90 70 328 70q111 0 183.5 -15t126 -54.5t77 -110 t23.5 -179.5v-207h-674v-165q0 -93 60.5 -129.5t203.5 -36.5q77 0 126.5 9.5t74.5 30.5t33.5 45.5t9.5 63.5h168q-1 -70 -18 -118.5t-61.5 -88t-129 -58.5t-211.5 -19q-265 0 -357 102q-29 -57 -112 -79.5t-252 -22.5q-69 0 -116.5 4.5t-90.5 16.5t-69.5 33.5t-46.5 55.5 t-28 82.5t-8 114.5zM279 281q0 -102 34 -134t146 -32h37q36 0 61 1t60 3.5t59 9.5t46.5 18t34 28.5t11.5 41.5v246h-295q-54 0 -88 -5.5t-56 -16t-32.5 -33.5t-14 -51t-3.5 -76zM930 567h504v113q0 104 -57.5 150.5t-186.5 46.5q-143 0 -201.5 -43.5t-58.5 -153.5v-113z" />
<glyph unicode="&#xe7;" horiz-adv-x="1009" d="M106 303v365q0 61 8.5 110t27.5 84t40.5 60.5t56.5 42t65.5 26.5t79 14.5t84.5 5.5t93 1q112 0 185.5 -18.5t113.5 -58t56 -89.5t18 -125h-172q-1 42 -8.5 67.5t-30 47.5t-67.5 31.5t-117 9.5q-148 0 -204 -44t-56 -157v-365q0 -113 57 -154.5t219 -41.5q65 0 106.5 10 t63 32t29 48t8.5 67h172q0 -79 -15 -129.5t-56.5 -89.5t-117.5 -56t-194 -17h-10v-68h34q126 0 172 -34t46 -124q0 -84 -58 -124t-176 -40q-28 0 -61 3.5t-69.5 9.5t-39.5 6v96q99 -22 166 -22q64 0 89.5 18t25.5 51q0 70 -95 70h-135v162q-90 5 -149.5 22.5t-102.5 53.5 t-62.5 95.5t-19.5 147.5z" />
<glyph unicode="&#xe8;" horiz-adv-x="1050" d="M106 262v412q0 190 95.5 264t341.5 74q111 0 183.5 -15t125.5 -54.5t76.5 -110t23.5 -179.5v-207h-673v-165q0 -93 60.5 -129.5t203.5 -36.5q77 0 126 9.5t74 30.5t33.5 45.5t9.5 63.5h168q-1 -71 -18 -119t-61 -87.5t-128.5 -58.5t-211.5 -19q-98 0 -171.5 13t-134 43.5 t-92 87t-31.5 138.5zM139 1372h244l207 -229h-152zM279 567h503v113q0 104 -57 150.5t-186 46.5q-143 0 -201.5 -43.5t-58.5 -153.5v-113z" />
<glyph unicode="&#xe9;" horiz-adv-x="1050" d="M106 262v412q0 190 95.5 264t341.5 74q111 0 183.5 -15t125.5 -54.5t76.5 -110t23.5 -179.5v-207h-673v-165q0 -93 60.5 -129.5t203.5 -36.5q77 0 126 9.5t74 30.5t33.5 45.5t9.5 63.5h168q-1 -71 -18 -119t-61 -87.5t-128.5 -58.5t-211.5 -19q-98 0 -171.5 13t-134 43.5 t-92 87t-31.5 138.5zM279 567h503v113q0 104 -57 150.5t-186 46.5q-143 0 -201.5 -43.5t-58.5 -153.5v-113zM444 1143l207 229h244l-299 -229h-152z" />
<glyph unicode="&#xea;" horiz-adv-x="1050" d="M106 262v412q0 190 95.5 264t341.5 74q111 0 183.5 -15t125.5 -54.5t76.5 -110t23.5 -179.5v-207h-673v-165q0 -93 60.5 -129.5t203.5 -36.5q77 0 126 9.5t74 30.5t33.5 45.5t9.5 63.5h168q-1 -71 -18 -119t-61 -87.5t-128.5 -58.5t-211.5 -19q-98 0 -171.5 13t-134 43.5 t-92 87t-31.5 138.5zM238 1143l163 229h246l164 -229h-139l-148 147l-147 -147h-139zM279 567h503v113q0 104 -57 150.5t-186 46.5q-143 0 -201.5 -43.5t-58.5 -153.5v-113z" />
<glyph unicode="&#xeb;" horiz-adv-x="1050" d="M106 262v412q0 190 95.5 264t341.5 74q111 0 183.5 -15t125.5 -54.5t76.5 -110t23.5 -179.5v-207h-673v-165q0 -93 60.5 -129.5t203.5 -36.5q77 0 126 9.5t74 30.5t33.5 45.5t9.5 63.5h168q-1 -71 -18 -119t-61 -87.5t-128.5 -58.5t-211.5 -19q-98 0 -171.5 13t-134 43.5 t-92 87t-31.5 138.5zM270 1161v191h172v-191h-172zM279 567h503v113q0 104 -57 150.5t-186 46.5q-143 0 -201.5 -43.5t-58.5 -153.5v-113zM606 1161v191h172v-191h-172z" />
<glyph unicode="&#xec;" horiz-adv-x="585" d="M-70 1372h244l207 -229h-152zM53 0v121h162v749h-162v121h334v-870h162v-121h-496z" />
<glyph unicode="&#xed;" horiz-adv-x="585" d="M53 0v121h162v749h-162v121h334v-870h162v-121h-496zM193 1143l206 229h244l-299 -229h-151z" />
<glyph unicode="&#xee;" horiz-adv-x="585" d="M6 1143l164 229h246l164 -229h-140l-147 147l-148 -147h-139zM53 0v121h162v749h-162v121h334v-870h162v-121h-496z" />
<glyph unicode="&#xef;" horiz-adv-x="585" d="M39 1161v191h172v-191h-172zM53 0v121h162v749h-162v121h334v-870h162v-121h-496zM375 1161v191h172v-191h-172z" />
<glyph unicode="&#xf0;" horiz-adv-x="1126" d="M106 334v323q0 109 20.5 175.5t75 108t139 56.5t224.5 15q142 0 230 -68q-62 136 -179 262l-141 -65l-55 98l115 53q-27 27 -142 133h219l68 -65l137 65l57 -98l-112 -53q260 -298 260 -617v-323q0 -73 -8.5 -125t-30.5 -92.5t-55 -66t-86 -41.5t-119 -22.5t-158 -6.5 q-93 0 -159.5 6.5t-119.5 22.5t-86 41.5t-55 66t-30.5 92.5t-8.5 125zM279 324q0 -125 59.5 -167t226.5 -42q166 0 225.5 42t59.5 167v344q0 125 -59.5 167t-225.5 42q-167 0 -226.5 -42t-59.5 -167v-344z" />
<glyph unicode="&#xf1;" horiz-adv-x="1234" d="M53 0v121h162v749h-162v121h330v-119h8q36 140 322 140q81 0 139.5 -13t95 -36t57.5 -60t29 -78.5t8 -97.5v-606h160v-121h-493v121h161v600q0 37 -6.5 61.5t-27 48t-64.5 35t-113 11.5q-89 0 -139 -5.5t-81.5 -23t-41.5 -45t-10 -76.5v-606h160v-121h-494zM356 1108v141 q49 60 133 60q50 0 133.5 -35t122.5 -35q44 0 73.5 21.5t60.5 66.5v-133q-47 -80 -134 -80q-52 0 -134.5 37t-121.5 37q-82 0 -133 -80z" />
<glyph unicode="&#xf2;" horiz-adv-x="1126" d="M106 334v323q0 109 20.5 175.5t75 108t139 56.5t224.5 15q139 0 223.5 -15t138.5 -56.5t74.5 -108t20.5 -175.5v-323q0 -73 -8.5 -125t-30.5 -92.5t-55 -66t-86 -41.5t-119 -22.5t-158 -6.5q-93 0 -159.5 6.5t-119.5 22.5t-86 41.5t-55 66t-30.5 92.5t-8.5 125zM188 1372 h244l207 -229h-152zM279 324q0 -125 59.5 -167t226.5 -42q166 0 225.5 42t59.5 167v344q0 125 -59.5 167t-225.5 42q-167 0 -226.5 -42t-59.5 -167v-344z" />
<glyph unicode="&#xf3;" horiz-adv-x="1126" d="M106 334v323q0 109 20.5 175.5t75 108t139 56.5t224.5 15q139 0 223.5 -15t138.5 -56.5t74.5 -108t20.5 -175.5v-323q0 -73 -8.5 -125t-30.5 -92.5t-55 -66t-86 -41.5t-119 -22.5t-158 -6.5q-93 0 -159.5 6.5t-119.5 22.5t-86 41.5t-55 66t-30.5 92.5t-8.5 125zM279 324 q0 -125 59.5 -167t226.5 -42q166 0 225.5 42t59.5 167v344q0 125 -59.5 167t-225.5 42q-167 0 -226.5 -42t-59.5 -167v-344zM446 1143l207 229h244l-299 -229h-152z" />
<glyph unicode="&#xf4;" horiz-adv-x="1126" d="M106 334v323q0 109 20.5 175.5t75 108t139 56.5t224.5 15q139 0 223.5 -15t138.5 -56.5t74.5 -108t20.5 -175.5v-323q0 -73 -8.5 -125t-30.5 -92.5t-55 -66t-86 -41.5t-119 -22.5t-158 -6.5q-93 0 -159.5 6.5t-119.5 22.5t-86 41.5t-55 66t-30.5 92.5t-8.5 125zM276 1143 l164 229h246l164 -229h-139l-148 147l-147 -147h-140zM279 324q0 -125 59.5 -167t226.5 -42q166 0 225.5 42t59.5 167v344q0 125 -59.5 167t-225.5 42q-167 0 -226.5 -42t-59.5 -167v-344z" />
<glyph unicode="&#xf5;" horiz-adv-x="1126" d="M106 334v323q0 109 20.5 175.5t75 108t139 56.5t224.5 15q139 0 223.5 -15t138.5 -56.5t74.5 -108t20.5 -175.5v-323q0 -73 -8.5 -125t-30.5 -92.5t-55 -66t-86 -41.5t-119 -22.5t-158 -6.5q-93 0 -159.5 6.5t-119.5 22.5t-86 41.5t-55 66t-30.5 92.5t-8.5 125zM279 324 q0 -125 59.5 -167t226.5 -42q166 0 225.5 42t59.5 167v344q0 125 -59.5 167t-225.5 42q-167 0 -226.5 -42t-59.5 -167v-344zM301 1108v141q49 60 133 60q50 0 133.5 -35t122.5 -35q44 0 73 21t60 67v-133q-47 -80 -133 -80q-52 0 -134.5 37t-121.5 37q-82 0 -133 -80z" />
<glyph unicode="&#xf6;" horiz-adv-x="1126" d="M106 334v323q0 109 20.5 175.5t75 108t139 56.5t224.5 15q139 0 223.5 -15t138.5 -56.5t74.5 -108t20.5 -175.5v-323q0 -73 -8.5 -125t-30.5 -92.5t-55 -66t-86 -41.5t-119 -22.5t-158 -6.5q-93 0 -159.5 6.5t-119.5 22.5t-86 41.5t-55 66t-30.5 92.5t-8.5 125zM279 324 q0 -125 59.5 -167t226.5 -42q166 0 225.5 42t59.5 167v344q0 125 -59.5 167t-225.5 42q-167 0 -226.5 -42t-59.5 -167v-344zM309 1161v191h172v-191h-172zM645 1161v191h172v-191h-172z" />
<glyph unicode="&#xf7;" d="M164 545v133h860v-133h-860zM475 119v221h238v-221h-238zM475 889v221h238v-221h-238z" />
<glyph unicode="&#xf8;" horiz-adv-x="1126" d="M106 334v323q0 109 20.5 175.5t75 108t139 56.5t224.5 15q139 0 223.5 -15t138.5 -56.5t74.5 -108t20.5 -175.5v-323q0 -73 -8.5 -125t-30.5 -92.5t-55 -66t-86 -41.5t-119 -22.5t-158 -6.5q-93 0 -159.5 6.5t-119.5 22.5t-86 41.5t-55 66t-30.5 92.5t-8.5 125zM279 324 q0 -82 24 -129l453 657q-60 25 -191 25q-167 0 -226.5 -42t-59.5 -167v-344zM399 129q48 -14 166 -14q166 0 225.5 42t59.5 167v344q0 56 -12 96z" />
<glyph unicode="&#xf9;" horiz-adv-x="1204" d="M43 870v121h313v-727q0 -37 7 -60.5t28.5 -45.5t68 -32.5t120.5 -10.5q104 0 160.5 16t78 47t21.5 86v606h-140v121h312v-870h162v-121h-334v119h-9q-35 -139 -307 -139q-101 0 -168.5 19t-104.5 57.5t-52 88t-15 119.5v606h-141zM377 1372h244l206 -229h-151z" />
<glyph unicode="&#xfa;" horiz-adv-x="1204" d="M43 870v121h313v-727q0 -37 7 -60.5t28.5 -45.5t68 -32.5t120.5 -10.5q104 0 160.5 16t78 47t21.5 86v606h-140v121h312v-870h162v-121h-334v119h-9q-35 -139 -307 -139q-101 0 -168.5 19t-104.5 57.5t-52 88t-15 119.5v606h-141zM377 1143l207 229h243l-299 -229h-151z " />
<glyph unicode="&#xfb;" horiz-adv-x="1204" d="M43 870v121h313v-727q0 -37 7 -60.5t28.5 -45.5t68 -32.5t120.5 -10.5q104 0 160.5 16t78 47t21.5 86v606h-140v121h312v-870h162v-121h-334v119h-9q-35 -139 -307 -139q-101 0 -168.5 19t-104.5 57.5t-52 88t-15 119.5v606h-141zM315 1143l164 229h246l164 -229h-139 l-148 147l-147 -147h-140z" />
<glyph unicode="&#xfc;" horiz-adv-x="1204" d="M43 870v121h313v-727q0 -37 7 -60.5t28.5 -45.5t68 -32.5t120.5 -10.5q104 0 160.5 16t78 47t21.5 86v606h-140v121h312v-870h162v-121h-334v119h-9q-35 -139 -307 -139q-101 0 -168.5 19t-104.5 57.5t-52 88t-15 119.5v606h-141zM348 1161v191h172v-191h-172zM684 1161 v191h172v-191h-172z" />
<glyph unicode="&#xfd;" horiz-adv-x="1169" d="M6 870v121h498v-121h-170l289 -637l243 637h-178v121h475v-121h-135q-74 -190 -220.5 -562t-207.5 -529q-93 -230 -274 -230q-256 0 -260 297h157q3 -74 31 -111.5t70 -37.5q54 0 82.5 28.5t60.5 106.5l78 197l-395 841h-144zM358 1143l207 229h244l-299 -229h-152z" />
<glyph unicode="&#xfe;" horiz-adv-x="1216" d="M53 1300v121h334v-544q5 54 94.5 94.5t243.5 40.5q211 0 300 -75t89 -257v-399q0 -139 -101 -220t-292 -81q-51 0 -104.5 6.5t-105 20t-84 39t-32.5 58.5h-8v-423h207v-121h-539v121h160v1619h-162zM387 252q0 -137 283 -137q148 0 210 42.5t62 135.5v389 q0 101 -60.5 148t-195.5 47q-156 0 -227.5 -35.5t-71.5 -122.5v-467z" />
<glyph unicode="&#xff;" horiz-adv-x="1169" d="M6 870v121h498v-121h-170l289 -637l243 637h-178v121h475v-121h-135q-74 -190 -220.5 -562t-207.5 -529q-93 -230 -274 -230q-256 0 -260 297h157q3 -74 31 -111.5t70 -37.5q54 0 82.5 28.5t60.5 106.5l78 197l-395 841h-144zM330 1161v191h172v-191h-172zM666 1161v191 h172v-191h-172z" />
<glyph unicode="&#x152;" horiz-adv-x="1898" d="M66 360v588q0 80 24.5 143t69 103.5t97.5 68.5t119.5 41.5t123.5 19t121 5.5h1153v-336h-142v215h-545v-463h334v156h121v-434h-121v158h-334v-504h607v213h141v-334h-1217q-552 0 -552 360zM246 340q0 -57 23.5 -98.5t59 -64t90 -36t102.5 -17t112 -3.5h272v1087h-282 q-61 0 -111 -5.5t-101.5 -22t-86 -43.5t-56.5 -73t-22 -108v-616z" />
<glyph unicode="&#x153;" horiz-adv-x="1783" d="M106 334v323q0 109 20.5 175.5t75 108t139 56.5t224.5 15q146 0 233.5 -20t133.5 -66q92 86 344 86q111 0 183.5 -15t126 -54.5t77 -110t23.5 -179.5v-207h-674v-165q0 -93 60.5 -129.5t203.5 -36.5q77 0 126.5 9.5t74.5 30.5t33.5 45.5t9.5 63.5h168q-1 -70 -18 -118.5 t-61.5 -88t-129 -58.5t-211.5 -19q-240 0 -338 86q-89 -86 -365 -86q-93 0 -159.5 6.5t-119.5 22.5t-86 41.5t-55 66t-30.5 92.5t-8.5 125zM279 324q0 -125 59.5 -167t226.5 -42q166 0 225.5 42t59.5 167v344q0 125 -59.5 167t-225.5 42q-167 0 -226.5 -42t-59.5 -167v-344z M1012 567h504v113q0 104 -57.5 150.5t-186.5 46.5q-143 0 -201.5 -43.5t-58.5 -153.5v-113z" />
<glyph unicode="&#x178;" horiz-adv-x="1382" d="M25 1208v121h536v-121h-182l326 -530l319 530h-182v121h518v-121h-158l-418 -669v-418h205v-121h-596v121h207v418l-420 669h-155zM436 1499v191h172v-191h-172zM772 1499v191h172v-191h-172z" />
<glyph unicode="&#x2c6;" horiz-adv-x="737" d="M82 1143l164 229h246l163 -229h-139l-147 147l-148 -147h-139z" />
<glyph unicode="&#x2dc;" horiz-adv-x="645" d="M61 1108v141q49 60 134 60q50 0 133.5 -35t122.5 -35q44 0 73 21t60 67v-133q-47 -80 -133 -80q-52 0 -134.5 37t-121.5 37q-83 0 -134 -80z" />
<glyph unicode="&#x2000;" horiz-adv-x="855" />
<glyph unicode="&#x2001;" horiz-adv-x="1710" />
<glyph unicode="&#x2002;" horiz-adv-x="855" />
<glyph unicode="&#x2003;" horiz-adv-x="1710" />
<glyph unicode="&#x2004;" horiz-adv-x="570" />
<glyph unicode="&#x2005;" horiz-adv-x="427" />
<glyph unicode="&#x2006;" horiz-adv-x="285" />
<glyph unicode="&#x2007;" horiz-adv-x="285" />
<glyph unicode="&#x2008;" horiz-adv-x="213" />
<glyph unicode="&#x2009;" horiz-adv-x="342" />
<glyph unicode="&#x200a;" horiz-adv-x="95" />
<glyph unicode="&#x2010;" horiz-adv-x="692" d="M82 545v133h528v-133h-528z" />
<glyph unicode="&#x2011;" horiz-adv-x="692" d="M82 545v133h528v-133h-528z" />
<glyph unicode="&#x2012;" horiz-adv-x="692" d="M82 545v133h528v-133h-528z" />
<glyph unicode="&#x2013;" horiz-adv-x="1024" d="M0 545v133h1024v-133h-1024z" />
<glyph unicode="&#x2014;" horiz-adv-x="2048" d="M0 545v133h2048v-133h-2048z" />
<glyph unicode="&#x2018;" horiz-adv-x="442" d="M102 891l189 438h119l-95 -438h-213z" />
<glyph unicode="&#x2019;" horiz-adv-x="442" d="M102 891l95 438h213l-189 -438h-119z" />
<glyph unicode="&#x201a;" horiz-adv-x="442" d="M41 -229l94 450h217l-192 -450h-119z" />
<glyph unicode="&#x201c;" horiz-adv-x="790" d="M102 891l189 438h119l-95 -438h-213zM451 891l188 438h119l-94 -438h-213z" />
<glyph unicode="&#x201d;" horiz-adv-x="790" d="M102 891l95 438h213l-189 -438h-119zM451 891l94 438h213l-189 -438h-118z" />
<glyph unicode="&#x201e;" horiz-adv-x="790" d="M41 -229l94 450h217l-192 -450h-119zM389 -229l94 450h217l-192 -450h-119z" />
<glyph unicode="&#x2022;" horiz-adv-x="980" d="M164 592q0 135 95 230.5t230 95.5q136 0 232 -95.5t96 -230.5t-95 -231.5t-230 -96.5q-136 0 -232 96.5t-96 231.5z" />
<glyph unicode="&#x2026;" horiz-adv-x="1327" d="M102 0v221h238v-221h-238zM545 0v221h237v-221h-237zM987 0v221h238v-221h-238z" />
<glyph unicode="&#x202f;" horiz-adv-x="342" />
<glyph unicode="&#x2039;" horiz-adv-x="536" d="M82 496l205 393h155l-188 -393l188 -394h-155z" />
<glyph unicode="&#x203a;" horiz-adv-x="536" d="M94 102l189 394l-189 393h156l205 -393l-205 -394h-156z" />
<glyph unicode="&#x205f;" horiz-adv-x="427" />
<glyph unicode="&#x20ac;" d="M119 406v133h174v209h-174v133h174v73q0 195 105.5 285t355.5 90q76 0 165 -10.5t142 -24.5l-25 -143q-53 18 -132.5 30.5t-149.5 12.5q-159 0 -224 -52t-65 -177v-84h522l-24 -133h-498v-209h461l-25 -133h-436v-62q0 -125 65 -177t224 -52q216 0 293 30v-141 q-95 -24 -293 -24q-134 0 -221 19t-141.5 64.5t-76.5 115t-22 175.5v52h-174z" />
<glyph unicode="&#x2122;" horiz-adv-x="1304" d="M20 1245v84h474v-84h-181v-452h-110v452h-183zM580 793v536h151l166 -414l156 414h145v-536h-98v405l-160 -405h-94l-166 409v-409h-100z" />
<glyph unicode="&#xe000;" horiz-adv-x="993" d="M0 0v993h993v-993h-993z" />
</font>
</defs>
</svg>
