<?xml version="1.0" standalone="no"?>
<!DOCTYPE svg PUBLIC "-//W3C//DTD SVG 1.1//EN" "http://www.w3.org/Graphics/SVG/1.1/DTD/svg11.dtd" >
<svg xmlns="http://www.w3.org/2000/svg">
<metadata></metadata>
<defs>
<font id="zetta_serifheavy" horiz-adv-x="1228" >
<font-face units-per-em="2048" ascent="1638" descent="-410" />
<missing-glyph horiz-adv-x="409" />
<glyph unicode="&#xfb01;" horiz-adv-x="1320" d="M41 0v274h119v484h-119v274h119v94q0 97 29.5 163t90 103.5t141.5 53.5t195 16q212 0 297.5 -73.5t85.5 -239.5h-303q0 80 -61 80h-8q-41 0 -53.5 -27t-12.5 -119v-51h621v-758h118v-274h-598v274h78v484h-219v-484h78v-274h-598z" />
<glyph unicode="&#xfb02;" horiz-adv-x="1320" d="M41 0v274h119v484h-119v274h119v94q0 97 29.5 163t90 103.5t141.5 53.5t195 16h566v-1188h118v-274h-598v274h78v914h-153q-40 0 -53 -23.5t-13 -81.5v-51h84v-274h-84v-484h78v-274h-598z" />
<glyph unicode="&#xfb03;" horiz-adv-x="1941" d="M41 0v274h119v484h-119v274h119v94q0 97 26.5 162.5t83 103.5t134.5 54t192 16q109 0 186 -26l-80 -224q-39 17 -67 17h-8q-41 0 -53.5 -27t-12.5 -119v-51h219v94q0 97 29.5 163t90.5 103.5t142 53.5t195 16q212 0 297.5 -73.5t85.5 -239.5h-303q0 80 -62 80h-8 q-41 0 -53 -27t-12 -119v-51h620v-758h119v-274h-598v274h78v484h-219v-484h78v-274h-558v274h78v484h-219v-484h78v-274h-598z" />
<glyph unicode="&#xfb04;" horiz-adv-x="1941" d="M41 0v274h119v484h-119v274h119v94q0 97 26.5 162.5t83 103.5t134.5 54t192 16q109 0 186 -26l-80 -224q-39 17 -67 17h-8q-41 0 -53.5 -27t-12.5 -119v-51h219v94q0 97 29.5 163t90.5 103.5t142 53.5t195 16h565v-1188h119v-274h-598v274h78v914h-154q-39 0 -52 -23 t-13 -82v-51h84v-274h-84v-484h78v-274h-558v274h78v484h-219v-484h78v-274h-598z" />
<glyph horiz-adv-x="2048" />
<glyph horiz-adv-x="2048" />
<glyph unicode="&#xd;" horiz-adv-x="2048" />
<glyph unicode=" "  horiz-adv-x="409" />
<glyph unicode="&#x09;" horiz-adv-x="409" />
<glyph unicode="&#xa0;" horiz-adv-x="409" />
<glyph unicode="!" horiz-adv-x="542" d="M61 1372h420l-88 -926h-243zM82 0v344h381v-344h-381z" />
<glyph unicode="&#x22;" horiz-adv-x="933" d="M90 881v491h324v-491h-324zM520 881v491h324v-491h-324z" />
<glyph unicode="#" horiz-adv-x="1187" d="M135 410v161h191l49 226h-240v164h273l77 387h181l-76 -387h127l76 387h186l-78 -387h154v-164h-189l-47 -226h236v-161h-269l-79 -410h-183l82 410h-127l-82 -410h-184l82 410h-160zM510 571h125l49 226h-129z" />
<glyph unicode="$" d="M72 385v51h362v-39q0 -43 5 -67t22.5 -43t52 -26t92.5 -7q67 0 101.5 5t54.5 24t24.5 45.5t4.5 81.5v12q0 50 -9.5 70.5t-42 30t-106.5 9.5h-60q-111 0 -186 6.5t-132 24.5t-89 42.5t-52 69t-26 96t-6 130.5v84q0 91 15.5 150.5t58 106.5t121 72t200.5 34v114h275v-116 q58 -4 105 -12t82.5 -18.5t63 -26.5t46 -30.5t31.5 -38t20 -42t10.5 -47.5t4.5 -51t1 -56v-72h-362v19q0 32 -4 49t-19 31.5t-45 20t-82 5.5q-104 0 -132 -19t-28 -91v-31q0 -69 34.5 -91t129.5 -22h58q84 0 148 -4t115 -14.5t86 -24t61 -38t41 -50.5t23.5 -66.5t11.5 -81.5 t3 -100v-65q0 -199 -88.5 -287.5t-314.5 -105.5v-162h-275v160q-91 6 -157.5 20t-111 39.5t-71.5 55t-41.5 77t-19 94t-4.5 115.5z" />
<glyph unicode="%" horiz-adv-x="1796" d="M57 870v271q0 47 12 83.5t30 60.5t49.5 41t58.5 26t69 13.5t70.5 5.5t73.5 1q44 0 72 -1t70 -5.5t69 -13.5t58 -26t49 -41t30 -60.5t12 -83.5v-271q0 -47 -12 -83.5t-30 -60.5t-49 -41t-58 -26t-69 -13.5t-70 -5.5t-72 -1q-45 0 -73.5 1t-70.5 5.5t-69 13.5t-58.5 26 t-49.5 41t-30 60.5t-12 83.5zM291 889q0 -45 34 -61.5t95 -16.5t94 16t33 62v233q0 46 -33 62t-94 16t-95 -16.5t-34 -61.5v-233zM424 -20l715 1392h225l-707 -1392h-233zM1016 211v270q0 47 12 83.5t30 61t49 41.5t58 25.5t69 13.5t71 6t73 1q38 0 63 -1t62 -3.5t62 -9.5 t54.5 -17.5t49 -28t36.5 -41t25.5 -57t8.5 -74.5v-270q0 -47 -12 -83.5t-30 -60.5t-49 -41t-58 -26t-69 -13.5t-70.5 -5.5t-72.5 -1q-45 0 -73 1t-70.5 5.5t-69.5 13.5t-58 26t-49 41t-30 60.5t-12 83.5zM1249 229q0 -45 34 -61t95 -16t94 16t33 61v234q0 46 -33 62t-94 16 t-95 -16.5t-34 -61.5v-234z" />
<glyph unicode="&#x26;" horiz-adv-x="1609" d="M61 270v207q0 60 26.5 107.5t78.5 82.5t99.5 56.5t119.5 46.5q-96 116 -96 240v116q0 121 97.5 194t275.5 73h192q93 0 161.5 -18.5t107 -47t61.5 -72.5t30 -85.5t7 -94.5v-63h-316v8q0 56 -19 77t-79 21h-14q-61 0 -79 -16.5t-18 -69.5v-14q0 -16 1.5 -29t8 -27t10 -22 t16 -23l17.5 -21t24 -25t26 -27l315 -338q10 42 10 74v249h445v-270h-135q-12 -141 -91 -256q74 -29 183 -29h63v-274h-293q-135 0 -241 72q-198 -92 -428 -92q-267 0 -416.5 70t-149.5 220zM463 393q0 -29 3.5 -48t17.5 -38.5t39.5 -30t71 -17.5t110.5 -7q79 0 151 16 l-309 328q-46 -29 -65 -62.5t-19 -82.5v-58z" />
<glyph unicode="'" horiz-adv-x="503" d="M90 881v491h324v-491h-324z" />
<glyph unicode="(" horiz-adv-x="712" d="M145 584q0 224 73.5 424.5t215.5 404.5h252q-213 -405 -213 -829q0 -451 217 -844h-256q-289 399 -289 844z" />
<glyph unicode=")" horiz-adv-x="712" d="M23 -260q217 393 217 844q0 424 -213 829h252q142 -204 215 -404.5t73 -424.5q0 -446 -288 -844h-256z" />
<glyph unicode="*" horiz-adv-x="815" d="M14 971l101 299l211 -156l-76 258h319l-75 -254l208 160l99 -305l-254 -15l203 -145l-267 -178l-77 223l-84 -225l-263 178l209 147z" />
<glyph unicode="+" d="M154 475v275h323v323h275v-323h323v-275h-323v-323h-275v323h-323z" />
<glyph unicode="," horiz-adv-x="503" d="M10 -188l94 532h373l-192 -532h-275z" />
<glyph unicode="-" horiz-adv-x="651" d="M41 475v275h567v-275h-567z" />
<glyph unicode="." horiz-adv-x="503" d="M61 0v344h381v-344h-381z" />
<glyph unicode="/" horiz-adv-x="882" d="M20 -20l562 1413h280l-561 -1413h-281z" />
<glyph unicode="0" d="M61 313v705q0 55 10.5 101t27.5 80t46 61t57.5 45t70.5 30.5t78 19.5t86 11t88 5t91 1t91 -1t88 -5t85.5 -11t77 -19.5t70 -30.5t56.5 -45t45 -61t27.5 -80t10.5 -101v-705q0 -51 -10 -94t-27 -75t-45 -57.5t-56.5 -42.5t-69.5 -29t-77 -18.5t-85.5 -10.5t-88.5 -5 t-92 -1q-70 0 -118.5 2t-111.5 9t-105.5 20.5t-87 38t-71.5 59.5t-44 86.5t-17 117.5zM463 395q0 -41 5.5 -66.5t14 -41t30 -22.5t42 -9t61.5 -2t61.5 2t41 9t29 22.5t13.5 41t5 66.5v561q0 51 -6 79t-26 42.5t-44 17.5t-74 3q-34 0 -52.5 -1t-38.5 -6t-29.5 -13.5 t-18 -24.5t-11.5 -39.5t-3 -57.5v-561z" />
<glyph unicode="1" d="M115 0v274h344v691h-4l-297 -201v307l329 281h373v-1078h289v-274h-1034z" />
<glyph unicode="2" d="M74 0v311q0 85 37 152t95.5 109.5t129.5 76.5t142.5 61t130 53.5t95.5 63t37 82.5v84q0 63 -28 84t-111 21h-39q-72 0 -100.5 -21.5t-28.5 -81.5v-41h-360v82q0 336 454 336h168q224 0 335.5 -83.5t111.5 -239.5v-179q0 -63 -23.5 -116t-63 -90t-91 -68t-108 -53.5 t-113 -43.5t-108 -41t-91 -42t-63 -52t-23.5 -65v-25h372v119h310v-393h-1067z" />
<glyph unicode="3" d="M51 371h381q1 -33 8.5 -54.5t18.5 -34.5t34.5 -19t46 -7.5t64.5 -1.5q94 0 123 27.5t29 107.5v49q0 73 -30 99t-122 26h-211v271h205q61 0 87 26.5t26 104.5q0 86 -22.5 109.5t-92.5 23.5q-38 0 -56 -2t-37.5 -12.5t-26.5 -33.5t-7 -63h-373q0 82 12.5 142t41 102.5 t67 70t99 43t127.5 21.5t161 6q268 0 388 -70.5t120 -236.5v-135q0 -84 -50.5 -136.5t-137.5 -72.5v-12q39 -7 68 -15t62 -24t54 -37t35 -56t14 -79v-205q0 -72 -27 -127t-74 -90t-118 -56.5t-151.5 -30.5t-182.5 -9q-114 0 -196 9.5t-152.5 35t-113.5 69t-67 112.5t-24 165 z" />
<glyph unicode="4" d="M66 399v301l303 672h372l-327 -713h252v351h374v-351h123v-260h-123v-125h119v-274h-612v274h119v125h-600z" />
<glyph unicode="5" d="M90 342v39h389v-12q0 -67 24.5 -91t98.5 -24q82 0 105.5 21t23.5 102v131q0 69 -28 87.5t-105 18.5q-66 0 -91 -14.5t-28 -52.5h-358v805h944v-275h-578v-293q31 45 77.5 64.5t140.5 19.5h57q184 0 277.5 -81.5t93.5 -211.5v-249q0 -183 -105 -264.5t-344 -81.5h-152 q-110 0 -187.5 15t-127.5 42t-78 73t-38.5 100t-10.5 132z" />
<glyph unicode="6" d="M70 332v645q0 204 104 299.5t356 95.5h183q113 0 193.5 -27t127 -79.5t67.5 -120.5t21 -158h-377q0 67 -32 89t-105 22q-34 0 -55.5 -1.5t-37.5 -8.5t-23.5 -14t-12 -25t-5.5 -34.5t-1 -49.5v-103h262q124 0 207.5 -21t130 -65.5t65.5 -103t19 -144.5v-209 q0 -181 -127 -260t-399 -79q-292 0 -426.5 80t-134.5 272zM473 381q0 -71 30 -99t109 -28q85 0 114.5 25.5t29.5 101.5v92q0 28 -1.5 44.5t-8 31.5t-16.5 22t-30.5 12.5t-47 7t-68.5 1.5h-111v-211z" />
<glyph unicode="7" d="M66 891v461h1077v-279l-508 -1073h-422l532 1077h-366v-186h-313z" />
<glyph unicode="8" d="M61 240v247q0 83 67 135.5t167 75.5v13q-94 21 -145.5 64t-51.5 124v227q0 111 130.5 178.5t385.5 67.5t385.5 -67.5t130.5 -178.5v-227q0 -82 -51.5 -124.5t-144.5 -63.5v-13q100 -23 166.5 -75.5t66.5 -135.5v-247q0 -260 -553 -260t-553 260zM463 369 q0 -76 27.5 -95.5t123.5 -19.5q99 0 125.5 19t26.5 96v80q0 70 -27.5 87t-124.5 17q-53 0 -81 -3t-45 -15.5t-21 -31t-4 -54.5v-80zM498 905q0 -28 7.5 -45.5t25.5 -25t35 -9.5t48 -2t48 2t35 9.5t26 25t8 45.5v111q0 28 -8 45.5t-26 25t-35 9.5t-48 2t-48 -2t-35 -9.5 t-25.5 -25t-7.5 -45.5v-111z" />
<glyph unicode="9" d="M70 838v194q0 181 127 260.5t399 79.5q292 0 426.5 -80t134.5 -272v-645q0 -135 -42.5 -220t-145 -130t-273.5 -45h-180q-221 0 -317.5 100.5t-96.5 284.5h400q0 -69 23.5 -90t92.5 -21q49 0 76.5 7t40.5 29t16 45t3 73v102h-213q-130 0 -214.5 14t-144.5 51t-86 100.5 t-26 162.5zM471 899q0 -28 1.5 -44.5t8 -31.5t16.5 -22t30.5 -12.5t47 -7t68.5 -1.5h111v191q0 71 -30.5 99t-109.5 28q-85 0 -114 -25.5t-29 -101.5v-72z" />
<glyph unicode=":" horiz-adv-x="503" d="M61 0v344h381v-344h-381zM61 688v344h381v-344h-381z" />
<glyph unicode=";" horiz-adv-x="503" d="M10 -188l94 532h373l-192 -532h-275zM61 688v344h381v-344h-381z" />
<glyph unicode="&#x3c;" d="M154 475v270l921 375v-268l-647 -242l647 -239v-271z" />
<glyph unicode="=" d="M154 270v275h921v-275h-921zM154 680v274h921v-274h-921z" />
<glyph unicode="&#x3e;" d="M154 100v271l647 239l-647 242v268l921 -375v-270z" />
<glyph unicode="?" horiz-adv-x="1083" d="M61 934v102q0 174 104 255t322 81h152q112 0 190 -21.5t122.5 -64.5t63.5 -100.5t19 -136.5v-115q0 -62 -19 -114.5t-49.5 -89t-67 -67.5t-73 -57.5t-67 -52.5t-49.5 -58t-19 -69h-340q0 70 16 127.5t42 95.5t57 69t62.5 56t57.5 50t42 56.5t16 69.5v23q0 68 -19 96.5 t-79 28.5h-39q-66 0 -87.5 -28t-21.5 -95v-41h-336zM330 0v344h381v-344h-381z" />
<glyph unicode="@" horiz-adv-x="1587" d="M61 385v582q0 426 746 426q128 0 231.5 -11t199 -40.5t160 -76t102.5 -122t38 -174.5v-475q0 -54 -24.5 -94.5t-66.5 -63.5t-89.5 -34t-100.5 -11h-83q-58 0 -115 13.5t-86 35.5q-53 -49 -193 -49q-75 0 -123 6t-88.5 21.5t-62 44.5t-32.5 74t-11 112v278q0 153 73 204.5 t285 51.5q111 0 176 -11.5t102 -43.5t48.5 -77t11.5 -124v-340q0 -13 9.5 -20t22 -8.5t34.5 -1.5q31 0 45 5.5t14 24.5v476q0 138 -109.5 191.5t-365.5 53.5q-259 0 -372 -53.5t-113 -191.5v-568q0 -123 116 -174t371 -51q44 0 184 10.5t195 18.5v-193q-59 -8 -198.5 -17 t-184.5 -9q-143 0 -254.5 12t-206 40.5t-156 74.5t-95.5 116t-34 162zM725 539q0 -53 17 -66.5t73 -13.5q60 0 76 17t16 83v256q0 72 -15 90.5t-77 18.5q-59 0 -74.5 -19t-15.5 -90v-276z" />
<glyph unicode="A" horiz-adv-x="1476" d="M8 0v274h115l342 1098h569l320 -1098h114v-274h-690v274h131l-39 138h-352l-37 -138h135v-274h-608zM592 672h209l-99 362h-10z" />
<glyph unicode="B" horiz-adv-x="1435" d="M51 0v274h160v824h-160v274h768q139 0 237.5 -15t155 -39t87.5 -64t40 -79t9 -96v-139q0 -105 -70 -159t-215 -68v-17q183 -15 257.5 -69t74.5 -181v-120q0 -57 -7.5 -97t-28 -79.5t-59.5 -65t-100.5 -46t-152.5 -29.5t-213 -9h-783zM625 274h178q108 0 144 22t36 79v74 q0 67 -37.5 86.5t-134.5 19.5h-186v-281zM625 815h170q88 0 115.5 25.5t27.5 89.5v59q0 56 -29.5 82.5t-120.5 26.5h-163v-283z" />
<glyph unicode="C" horiz-adv-x="1337" d="M74 324v686q0 74 20 133t51.5 98.5t83.5 68.5t103.5 44.5t124 24.5t132.5 11.5t142 2.5q140 0 243.5 -21.5t167 -57.5t102.5 -92t53 -116.5t14 -138.5v-27h-422v10q0 104 -36 136t-142 32h-58q-88 0 -128 -36.5t-40 -125.5v-542q0 -87 40.5 -123.5t131.5 -36.5h62 q101 0 135.5 31t34.5 131v41h422v-70q0 -217 -142.5 -312t-472.5 -95q-101 0 -176 5t-149.5 18t-125.5 37t-91.5 61.5t-60 93.5t-19.5 129z" />
<glyph unicode="D" horiz-adv-x="1499" d="M51 0v274h139v824h-139v274h819q547 0 547 -381v-631q0 -360 -545 -360h-821zM602 274h166q72 0 114.5 8.5t72 34t40.5 69.5t11 118v352q0 81 -9 126.5t-37 72.5t-68 35t-114 8h-176v-824z" />
<glyph unicode="E" horiz-adv-x="1318" d="M51 0v274h139v824h-139v274h1204v-420h-301v146h-352v-269h291v-270h-291v-285h373v164h301v-438h-1225z" />
<glyph unicode="F" horiz-adv-x="1339" d="M51 0v274h139v824h-139v274h1225v-420h-301v146h-373v-289h387v-270h-387v-265h160v-274h-711z" />
<glyph unicode="G" horiz-adv-x="1411" d="M74 350v639q0 74 19.5 134t52 102t83 72.5t104 48.5t123.5 29t133.5 14.5t141.5 3.5q140 0 244 -21.5t169 -58t105 -92t55 -116t15 -138.5v-27h-422v10q0 99 -42.5 133.5t-135.5 34.5h-66q-168 0 -168 -182v-502q0 -180 172 -180h62q129 0 178 40t49 134v53h-151v275h542 v-756h-202l-101 100q-47 -63 -143 -91.5t-256 -28.5q-117 0 -201.5 10t-155.5 34.5t-114 66t-66.5 106t-23.5 153.5z" />
<glyph unicode="H" horiz-adv-x="1615" d="M51 0v274h139v824h-139v274h690v-274h-139v-269h412v269h-140v274h691v-274h-140v-824h140v-274h-691v274h140v285h-412v-285h139v-274h-690z" />
<glyph unicode="I" horiz-adv-x="792" d="M51 0v274h139v824h-139v274h690v-274h-139v-824h139v-274h-690z" />
<glyph unicode="J" horiz-adv-x="1114" d="M41 330v127h338v-90q0 -69 19.5 -91t66.5 -22t66.5 22t19.5 93v729h-150v274h680v-274h-118v-727q0 -102 -19.5 -172t-53.5 -113t-94.5 -66.5t-127 -31.5t-166.5 -8q-85 0 -144.5 5t-115 18t-90.5 37.5t-61.5 63t-38 94.5t-11.5 132z" />
<glyph unicode="K" horiz-adv-x="1486" d="M51 0v274h139v824h-139v274h690v-274h-139v-332l324 332h-115v274h639v-274h-143l-340 -316l239 -319q66 -88 130 -138.5t134 -50.5h31v-274h-225q-94 0 -152 16.5t-92 46t-76 89.5l-282 393l-72 -74v-197h139v-274h-690z" />
<glyph unicode="L" horiz-adv-x="1234" d="M51 0v274h139v824h-139v274h719v-274h-168v-824h311v185h301v-459h-1163z" />
<glyph unicode="M" horiz-adv-x="2121" d="M51 0v274h139v824h-139v274h787l233 -776h6l191 776h803v-274h-140v-824h140v-274h-697v274h148v789h-11l-309 -1063h-381l-297 1063h-10v-789h135v-274h-598z" />
<glyph unicode="N" horiz-adv-x="1693" d="M51 0v274h160v824h-160v274h631l477 -803v529h-160v274h643v-274h-159v-1098h-445l-503 891v-617h159v-274h-643z" />
<glyph unicode="O" horiz-adv-x="1458" d="M74 383v606q0 100 32 172.5t85.5 116.5t140 70.5t179 35.5t218.5 9t218.5 -9t179 -35.5t140 -70.5t85.5 -116.5t32 -172.5v-606q0 -100 -32 -172.5t-85.5 -116.5t-140 -70t-179 -35t-218.5 -9t-218.5 9t-179 35t-140 70t-85.5 116.5t-32 172.5zM485 449q0 -44 2.5 -70.5 t11 -51t23.5 -36.5t43.5 -21.5t67 -12.5t96.5 -3t96.5 3t67 12.5t43.5 21.5t23.5 36.5t11 51t2.5 70.5v475q0 44 -2 70t-11 51t-24 36.5t-43.5 21t-67 12.5t-96.5 3t-96.5 -3t-67 -12.5t-43.5 -21t-24 -36.5t-11 -51t-2 -70v-475z" />
<glyph unicode="P" horiz-adv-x="1406" d="M51 0v274h139v824h-139v274h852q181 0 283.5 -32t144 -96t41.5 -175v-233q0 -74 -14.5 -128.5t-49.5 -99.5t-92.5 -73t-144.5 -43t-205 -15h-264v-203h182v-274h-733zM602 743h186q101 0 137 27t36 109v100q0 74 -35 96.5t-142 22.5h-182v-355z" />
<glyph unicode="Q" horiz-adv-x="1458" d="M74 403v586q0 100 32 172.5t85.5 116.5t140 70.5t179 35.5t218.5 9t218.5 -9t179 -35.5t140 -70.5t85.5 -116.5t32 -172.5v-391q0 -241 -139 -309v-15h213v-274h-729q-126 0 -218.5 9t-179 35t-140 70t-85.5 116.5t-32 172.5zM485 510q0 -45 2.5 -73.5t10.5 -58t24.5 -47 t43.5 -31.5t67 -20t96 -6t96 6t67 20t43.5 31.5t24.5 47t10.5 58t2.5 73.5v373q0 54 -4 86.5t-17.5 64.5t-39.5 48t-71 26t-112 10t-112 -10t-71 -26t-39.5 -48t-17.5 -64.5t-4 -86.5v-373z" />
<glyph unicode="R" horiz-adv-x="1509" d="M51 0v274h139v824h-139v274h799q128 0 215 -10.5t145.5 -31t90.5 -58t44.5 -84.5t12.5 -117v-170q0 -192 -256 -229v-15q148 -13 206 -48.5t58 -133.5v-127q0 -45 12 -59.5t52 -14.5h67v-274h-287q-45 0 -71.5 1t-57.5 6t-48 14.5t-34.5 26.5t-25.5 42.5t-13.5 62 t-5.5 85.5v96q0 40 -2 63t-10.5 49.5t-25 40t-46.5 22.5t-75 9h-193v-244h139v-274h-690zM602 778h193q98 0 124.5 26t26.5 111v54q0 34 -3 53t-11.5 36t-28.5 24.5t-51.5 11.5t-81.5 4h-168v-320z" />
<glyph unicode="S" horiz-adv-x="1316" d="M45 385v72h430v-60q0 -43 5 -67t22.5 -43t52 -26t92.5 -7q88 0 125 12.5t48 42t11 101.5v32q0 50 -9.5 71t-41.5 30.5t-106 9.5h-60q-134 0 -224 10.5t-157.5 34t-105 67t-55 105.5t-17.5 152v104q0 81 15.5 137t54 102t106 73t169.5 41t247 14q146 0 250.5 -16 t167.5 -42.5t99 -70t48.5 -89.5t12.5 -110v-72h-430v19q0 32 -4 49t-19 31.5t-45 20t-82 5.5q-104 0 -132 -19t-28 -91v-52q0 -68 34.5 -90t129.5 -22h58q224 0 342.5 -35t166.5 -114.5t48 -229.5v-86q0 -223 -141 -311t-478 -88q-151 0 -257 16.5t-173 46.5t-104.5 82 t-51.5 112t-14 148z" />
<glyph unicode="T" horiz-adv-x="1357" d="M25 911v461h1308v-461h-301v187h-147v-824h182v-274h-776v274h182v824h-147v-187h-301z" />
<glyph unicode="U" horiz-adv-x="1509" d="M51 1098v274h690v-274h-139v-617q0 -46 1.5 -73t5 -55t12.5 -42t21.5 -27t34.5 -18.5t49.5 -8.5t68.5 -3q47 0 78 3t54 14t35.5 25t19.5 42.5t9 59.5t2 83v617h-139v274h604v-274h-139v-717q0 -112 -38.5 -191.5t-112 -124.5t-165.5 -65t-212 -20q-119 0 -208 10t-166 35 t-125 67.5t-75 109.5t-27 158v738h-139z" />
<glyph unicode="V" horiz-adv-x="1476" d="M8 1098v274h690v-274h-131l207 -719h10l211 719h-135v274h608v-274h-114l-363 -1098h-528l-340 1098h-115z" />
<glyph unicode="W" horiz-adv-x="2260" d="M8 1098v274h690v-274h-131l125 -617h10l230 891h459l225 -891h10l150 617h-136v274h609v-274h-115l-301 -1098h-487l-230 932l-248 -932h-487l-258 1098h-115z" />
<glyph unicode="X" horiz-adv-x="1472" d="M39 0v274h123l332 416l-314 408h-123v274h686v-274h-79l110 -150l117 150h-66v274h611v-274h-140l-315 -375l350 -449h123v-274h-686v274h80l-141 189l-138 -189h80v-274h-610z" />
<glyph unicode="Y" horiz-adv-x="1415" d="M12 1098v274h682v-274h-119l185 -297l186 297h-121v274h590v-274h-117l-378 -576v-248h163v-274h-735v274h160v242l-381 582h-115z" />
<glyph unicode="Z" horiz-adv-x="1417" d="M61 0v274l742 824h-400v-146h-321v420h1237v-274l-741 -824h473v164h321v-438h-1311z" />
<glyph unicode="[" horiz-adv-x="679" d="M152 -303v1831h483v-201h-141v-1429h141v-201h-483z" />
<glyph unicode="\" horiz-adv-x="882" d="M20 1393h281l561 -1413h-280z" />
<glyph unicode="]" horiz-adv-x="679" d="M45 -102h141v1429h-141v201h483v-1831h-483v201z" />
<glyph unicode="^" horiz-adv-x="776" d="M41 928l143 465h387l164 -465h-213l-143 256l-125 -256h-213z" />
<glyph unicode="_" horiz-adv-x="1024" d="M0 -111h1024v-274h-1024v274z" />
<glyph unicode="`" horiz-adv-x="520" d="M20 1413h418l62 -250h-367z" />
<glyph unicode="a" horiz-adv-x="1171" d="M47 301q0 99 19.5 162t68 100.5t119.5 51.5t184 14h232v90q0 31 -13.5 45t-60.5 14h-43q-46 0 -59 -15.5t-13 -64.5h-397q5 107 31.5 174.5t84.5 108.5t142 57t215 15h59q174 0 274 -36t140.5 -107.5t40.5 -194.5v-365q0 -43 8.5 -59.5t36.5 -16.5h33v-274h-272 q-74 0 -114.5 12t-53.5 29.5t-21 52.5h-8q-12 -26 -20.5 -40t-27 -31t-44.5 -24.5t-69 -13t-105 -5.5q-211 0 -289 70t-78 251zM449 317q0 -51 19.5 -67.5t68.5 -16.5h38q61 0 78 14.5t17 67.5v103h-117q-67 0 -85.5 -19.5t-18.5 -81.5z" />
<glyph unicode="b" horiz-adv-x="1257" d="M0 1188v274h520v-520q3 19 10.5 33t25 29.5t45 25.5t74.5 16.5t109 6.5q74 0 134.5 -11.5t103 -30.5t74 -47t50.5 -58.5t30.5 -68.5t15.5 -72.5t4 -74.5v-284q0 -89 -9 -151t-33.5 -112t-61.5 -79.5t-99.5 -49t-141.5 -27t-192 -7.5q-121 0 -206.5 9.5t-146 32.5 t-97 53.5t-57 82.5t-27 108t-6.5 140v782h-119zM520 395q0 -35 1.5 -57.5t9 -39t15 -24.5t26 -13t36 -6t51.5 -1t51.5 1t35.5 6t25.5 13t14 25t8 38.5t1.5 57.5v242q0 36 -1.5 57.5t-8 38.5t-14 25t-25.5 13t-35.5 6t-51.5 1t-51.5 -1t-36 -6t-26 -13t-15 -24.5t-9 -39 t-1.5 -57.5v-242z" />
<glyph unicode="c" horiz-adv-x="1114" d="M61 344v324q0 148 45.5 228.5t161.5 118.5t332 38q107 0 184 -9.5t132 -32t88.5 -53t53 -81.5t26 -108t6.5 -140h-379q0 97 -21 123t-100 26q-86 0 -106.5 -24t-20.5 -121v-246q0 -89 21 -111t106 -22q82 0 101.5 24t19.5 125h379q0 -83 -7.5 -141t-28 -108t-55.5 -81 t-91 -53t-133.5 -31t-184.5 -9q-150 0 -245.5 16t-161.5 57t-94 111t-28 180z" />
<glyph unicode="d" horiz-adv-x="1277" d="M61 334v358q0 177 89 269t301 92q131 0 208.5 -38.5t77.5 -109.5v283h-149v274h551v-1188h118v-274h-509v117h-7q-20 -137 -299 -137q-194 0 -287.5 86t-93.5 268zM463 395q0 -35 1.5 -57.5t9 -39t15 -24.5t26 -13t36 -6t51.5 -1q50 0 71.5 2.5t39 17.5t21 41.5t3.5 79.5 v242q0 53 -3.5 79.5t-21 41.5t-39 17.5t-71.5 2.5q-34 0 -51.5 -1t-36 -6t-26 -13t-15 -24.5t-9 -39t-1.5 -57.5v-242z" />
<glyph unicode="e" horiz-adv-x="1179" d="M61 332v321q0 101 23.5 171.5t81.5 124t162 79t258 25.5q157 0 259.5 -22.5t162.5 -73t84 -122.5t24 -182v-227h-653v-47q0 -78 24.5 -101.5t116.5 -23.5h17q71 0 92 21t24 77h381q-4 -78 -17 -132.5t-45.5 -102.5t-86 -76.5t-138.5 -44.5t-204 -16h-33q-286 0 -409.5 81 t-123.5 271zM463 633h252v45q0 65 -26 82.5t-107 17.5q-69 0 -94 -18t-25 -82v-45z" />
<glyph unicode="f" horiz-adv-x="815" d="M41 0v274h119v484h-119v274h119v94q0 97 29.5 163t90 103.5t141.5 53.5t195 16q212 0 297.5 -73.5t85.5 -239.5h-303q0 80 -61 80h-8q-41 0 -53.5 -27t-12.5 -119v-51h227v-274h-227v-484h160v-274h-680z" />
<glyph unicode="g" horiz-adv-x="1126" d="M31 -205q0 90 42.5 128.5t119.5 56.5v18q-76 9 -112 54.5t-36 148.5q0 112 27.5 154.5t97.5 58.5v16q-65 33 -99 80.5t-34 140.5v76q0 168 91 247t314 79h213q62 0 95 23.5t55 92.5h381q-2 -41 -8 -74.5t-14.5 -56.5t-23.5 -41.5t-27.5 -29.5t-34 -20.5t-36.5 -14.5 t-41 -12q41 -35 65 -80t24 -121v-47q0 -60 -11 -108t-30 -81t-50.5 -57t-65.5 -38.5t-82 -22.5t-93 -10.5t-105 -2.5h-182q-46 0 -59 -8.5t-13 -44.5q0 -27 13.5 -37t58.5 -10h254q100 0 171.5 -15t115.5 -41t70 -68.5t35 -90t9 -113.5v-69q0 -180 -125 -257t-413 -77 q-132 0 -219 6.5t-156 23.5t-106.5 48.5t-56.5 78.5t-19 117zM399 -109q0 -64 33.5 -80t147.5 -16q80 0 114.5 8.5t45 27.5t10.5 65q0 52 -21.5 68t-89.5 16h-143q-59 0 -78 -15t-19 -74zM432 643q0 -43 26.5 -58.5t104.5 -15.5t104.5 15.5t26.5 58.5v86q0 43 -26.5 58.5 t-104.5 15.5t-104.5 -15.5t-26.5 -58.5v-86z" />
<glyph unicode="h" horiz-adv-x="1320" d="M41 0v274h119v912h-119v276h520v-551q16 77 91.5 109.5t203.5 32.5q82 0 141 -13.5t94.5 -36t56 -60t27.5 -78t7 -97.5v-494h118v-274h-520v612q0 103 -17.5 133.5t-82.5 30.5q-81 0 -100 -27.5t-19 -136.5v-338h98v-274h-618z" />
<glyph unicode="i" horiz-adv-x="700" d="M41 0v274h119v484h-119v274h520v-758h119v-274h-639zM160 1116v303h401v-303h-401z" />
<glyph unicode="j" horiz-adv-x="669" d="M0 -180q56 0 83.5 4.5t47 23.5t24.5 51t5 93v766h-119v274h520v-1141q0 -93 -37 -162.5t-101.5 -109t-142.5 -59t-169 -19.5h-111v279zM160 1116v303h401v-303h-401z" />
<glyph unicode="k" horiz-adv-x="1372" d="M41 0v274h119v914h-119v274h520v-1188h119v-274h-639zM575 518l250 240h-153v274h645v-274h-158l-170 -168l150 -211q41 -59 91 -82t124 -23v-274h-242q-111 0 -161.5 20.5t-98.5 90.5z" />
<glyph unicode="l" horiz-adv-x="700" d="M41 0v274h119v914h-119v274h520v-1188h119v-274h-639z" />
<glyph unicode="m" horiz-adv-x="1941" d="M41 0v274h119v484h-119v274h516v-121h4q16 77 91.5 109.5t203.5 32.5q137 0 208 -35.5t97 -106.5h8q16 77 91.5 109.5t203.5 32.5q102 0 170 -19t104 -58.5t50 -88t14 -119.5v-494h119v-274h-520v612q0 103 -18 133.5t-83 30.5q-75 0 -96.5 -23t-21.5 -102v-377h118v-274 h-520v612q0 103 -17.5 133.5t-82.5 30.5q-81 0 -100 -27.5t-19 -136.5v-338h98v-274h-618z" />
<glyph unicode="n" horiz-adv-x="1320" d="M41 0v274h119v484h-119v274h516v-121h4q16 77 91.5 109.5t203.5 32.5q82 0 141 -13.5t94.5 -36t56 -60t27.5 -78t7 -97.5v-494h118v-274h-520v612q0 103 -17.5 133.5t-82.5 30.5q-81 0 -100 -27.5t-19 -136.5v-338h98v-274h-618z" />
<glyph unicode="o" horiz-adv-x="1200" d="M61 313v385q0 55 10 101t26.5 80t44 61t55 45t68 31t75.5 20t84.5 11t87 5t90.5 1t90.5 -1t86.5 -5t83.5 -11t75 -20t68 -31t54.5 -45t43 -61t26 -80t10 -101v-385q0 -66 -16 -117.5t-41.5 -86.5t-68 -59.5t-83.5 -38t-102 -20.5t-108.5 -9t-117.5 -2t-118 2t-109 9 t-102.5 20.5t-84.5 38t-68.5 59.5t-42 86.5t-16.5 117.5zM463 395q0 -35 1.5 -57.5t9 -39t15 -24.5t26 -13t36 -6t51.5 -1q50 0 71.5 2.5t39 17.5t21 41.5t3.5 79.5v242q0 53 -3.5 79.5t-21 41.5t-39 17.5t-71.5 2.5q-34 0 -51.5 -1t-36 -6t-26 -13t-15 -24.5t-9 -39 t-1.5 -57.5v-242z" />
<glyph unicode="p" horiz-adv-x="1290" d="M33 758v274h510v-117h6q0 57 72 97.5t223 40.5q90 0 157.5 -19t120 -61.5t80 -117t27.5 -179.5v-334q0 -190 -94 -276t-301 -86q-250 0 -281 126v-290h156v-275h-656v275h99v942h-119zM553 395q0 -35 1.5 -57.5t9 -39t15 -24.5t26 -13t36 -6t51.5 -1q50 0 71.5 2.5 t39 17.5t21 41.5t3.5 79.5v242q0 53 -3.5 79.5t-21 41.5t-39 17.5t-71.5 2.5q-34 0 -51.5 -1t-36 -6t-26 -13t-15 -24.5t-9 -39t-1.5 -57.5v-242z" />
<glyph unicode="q" horiz-adv-x="1191" d="M61 342v285q0 81 7 136t27.5 106.5t58.5 83t99.5 56t150 34.5t210.5 10q81 0 146.5 -5.5t117 -15t90 -27t66.5 -36.5t47 -48.5t30.5 -57t17.5 -69t8 -78t2 -89.5v-811h73v-275h-630v275h155v274q-4 -19 -9.5 -32.5t-21.5 -29.5t-42 -25.5t-71.5 -16t-107.5 -6.5 q-232 0 -328 88.5t-96 273.5zM463 395q0 -35 1.5 -57.5t9 -39t15 -24.5t26 -13t36 -6t51.5 -1q50 0 71.5 2.5t39 17.5t21 41.5t3.5 79.5v242q0 53 -3.5 79.5t-21 41.5t-39 17.5t-71.5 2.5q-34 0 -51.5 -1t-36 -6t-26 -13t-15 -24.5t-9 -39t-1.5 -57.5v-242z" />
<glyph unicode="r" horiz-adv-x="1064" d="M41 0v274h119v484h-119v274h506v-153h4q28 83 88 128.5t182 45.5q124 0 180 -60t56 -211q0 -31 -8 -129h-320q0 89 -19.5 115.5t-68.5 26.5q-33 0 -48.5 -8.5t-23.5 -37.5t-8 -90v-385h160v-274h-680z" />
<glyph unicode="s" horiz-adv-x="1163" d="M41 330h397q5 -51 28.5 -65.5t108.5 -14.5q83 0 110.5 12.5t27.5 46.5v23q0 39 -24 49t-124 10h-139q-209 0 -290 59.5t-81 211.5v112q0 279 518 279q113 0 188 -7.5t139 -28.5t99.5 -58t54.5 -96t19 -144h-397q0 37 -21.5 51t-93.5 14q-70 0 -90 -10.5t-20 -48.5v-27 q0 -19 6.5 -27.5t34 -14t83.5 -5.5h148q147 0 231.5 -25.5t119 -76.5t34.5 -139v-148q0 -93 -48.5 -153.5t-167 -94.5t-312.5 -34q-111 0 -185 5t-137 19.5t-99.5 38t-63.5 64t-38.5 93.5t-15.5 130z" />
<glyph unicode="t" horiz-adv-x="813" d="M20 758v274h146v287h401v-287h207v-274h-207v-332q0 -108 25.5 -140t120.5 -32q22 0 80 4v-266q-132 -12 -191 -12q-66 0 -112 2.5t-95 9.5t-81 20.5t-62.5 35.5t-48 54t-27.5 77t-10 104v475h-146z" />
<glyph unicode="u" horiz-adv-x="1308" d="M41 758v274h508v-612q0 -103 17.5 -133.5t82.5 -30.5q81 0 100 27.5t19 136.5v338h-106v274h507v-758h119v-274h-516v121h-4q-16 -77 -91.5 -109t-203.5 -32q-102 0 -168 18.5t-100 58.5t-46 87.5t-12 119.5v494h-106z" />
<glyph unicode="v" horiz-adv-x="1251" d="M4 758v274h641v-274h-108l139 -422h20l154 422h-109v274h506v-274h-100l-281 -758h-479l-281 758h-102z" />
<glyph unicode="w" horiz-adv-x="1853" d="M-4 758v274h608v-274h-96l98 -402h21l196 676h346l195 -676h20l93 402h-97v274h473v-274h-100l-199 -758h-479l-145 551l-154 -551h-459l-219 758h-102z" />
<glyph unicode="x" horiz-adv-x="1171" d="M27 0v274h79l244 228l-225 256h-80v274h539v-274h-58l86 -101l109 101h-53v274h471v-274h-90l-224 -213l254 -271h80v-274h-557v274h74l-115 117l-125 -117h72v-274h-481z" />
<glyph unicode="y" horiz-adv-x="1294" d="M4 758v274h660v-274h-109l141 -422h21l145 422h-108v274h530v-274h-119l-280 -809q-31 -90 -64 -157.5t-69.5 -114.5t-74.5 -77.5t-84.5 -48t-93 -24t-106.5 -6.5q-71 0 -129.5 17.5t-111 57.5t-83.5 116.5t-34 183.5h295q0 -62 24 -85.5t66 -23.5q25 0 44 6.5t41 26 t42.5 61t40.5 105.5l4 14h-186l-281 758h-121z" />
<glyph unicode="z" horiz-adv-x="1046" d="M25 0v274l495 484h-203v-88h-292v362h962v-274l-495 -484h235v111h293v-385h-995z" />
<glyph unicode="{" horiz-adv-x="679" d="M61 498v229q127 31 127 186v242q0 89 20 157t52 108t77 65t88 34t93 9h150v-199h-21q-51 0 -88 -34.5t-37 -98.5v-272q0 -229 -203 -299v-25q203 -70 203 -299v-272q0 -64 37 -98.5t88 -34.5h21v-199h-150q-50 0 -93 9t-88 34t-77 65t-52 108t-20 157v241q0 156 -127 187 z" />
<glyph unicode="|" horiz-adv-x="626" d="M266 -389v1823h94v-1823h-94z" />
<glyph unicode="}" horiz-adv-x="679" d="M12 -104h21q51 0 88 34.5t37 98.5v272q0 230 202 299v25q-202 69 -202 299v272q0 64 -37 98.5t-88 34.5h-21v199h150q50 0 93 -9t88 -34t77 -65t52 -108t20 -157v-242q0 -155 126 -186v-229q-126 -31 -126 -187v-241q0 -89 -20 -157t-52 -108t-77 -65t-88 -34t-93 -9 h-150v199z" />
<glyph unicode="~" horiz-adv-x="1187" d="M139 428v272q77 93 250 93q62 0 143 -30.5t155 -60.5t118 -30q88 0 145.5 30t98.5 97v-273q-38 -50 -97 -72t-155 -22q-65 0 -209.5 60.5t-206.5 60.5q-86 0 -142 -29.5t-100 -95.5z" />
<glyph unicode="&#xa1;" horiz-adv-x="542" d="M61 -340l89 926h243l88 -926h-420zM82 688v344h381v-344h-381z" />
<glyph unicode="&#xa2;" d="M111 541v323q0 97 18 162t63 112t121.5 71.5t194.5 33.5v219h274v-217q91 -7 154 -27.5t103 -51.5t62 -82.5t30 -111t8 -147.5h-379q0 97 -21 123.5t-100 26.5q-86 0 -106.5 -24.5t-20.5 -121.5v-245q0 -89 21 -111t106 -22q82 0 101.5 24t19.5 125h379q0 -88 -8.5 -148 t-31 -111t-63 -82.5t-102.5 -51t-152 -27.5v-174h-274v172q-217 14 -307 94t-90 269z" />
<glyph unicode="&#xa3;" d="M82 0v274h119v291h-119v275h119v196q0 184 108 260t328 76h123q212 0 297.5 -73.5t85.5 -239.5h-303q0 43 -22 61.5t-81 18.5h-28q-71 0 -89 -26t-18 -120v-153h289v-275h-289v-291h258v140h330v-414h-1108z" />
<glyph unicode="&#xa4;" horiz-adv-x="1085" d="M104 305l140 133q-76 123 -76 232q0 104 78 225l-142 137l76 70l135 -137q46 32 110 52.5t120 20.5q57 0 120 -20t109 -55l137 139l68 -70l-135 -137q78 -118 78 -225q0 -92 -76 -232l133 -133l-68 -76l-135 136q-93 -72 -231 -72q-140 0 -232 69q-22 -23 -67.5 -67.5 t-65.5 -65.5zM260 670q0 -122 82 -204.5t203 -82.5q118 0 197 82.5t79 204.5q0 115 -79 193.5t-197 78.5q-121 0 -203 -79t-82 -193z" />
<glyph unicode="&#xa5;" d="M57 1077v275h559v-275h-77l123 -297l124 297h-79v275h467v-275h-76l-88 -184h120v-234h-233l-37 -73h270v-234h-309v-78h123v-274h-653v274h119v78h-324v234h281l-37 73h-244v234h133l-88 184h-74z" />
<glyph unicode="&#xa6;" horiz-adv-x="655" d="M217 330h221v-719h-221v719zM217 633v719h221v-719h-221z" />
<glyph unicode="&#xa7;" d="M72 113h383q4 -49 32.5 -64.5t114.5 -15.5q75 0 100 15t25 48v45q0 30 -26 42t-109 12h-88q-216 0 -317 61t-101 209v158q0 98 61 159q-61 61 -61 179v137q0 144 129.5 209t384.5 65q271 0 393.5 -75t122.5 -259h-403q0 36 -26 51t-99 15q-69 0 -95 -14t-26 -52v-37 q0 -27 27 -39t108 -12h80q190 0 290.5 -27t139.5 -86t39 -171v-103q0 -79 -21 -122t-61 -74q61 -61 61 -217v-84q0 -304 -516 -304q-118 0 -197.5 8t-147 29.5t-107 61t-62.5 101t-28 151.5zM467 543q0 -56 24.5 -72t110.5 -16h12q86 0 111 16t25 72v59q0 56 -25 72t-111 16 h-12q-86 0 -110.5 -16t-24.5 -72v-59z" />
<glyph unicode="&#xa8;" horiz-adv-x="851" d="M61 1163v250h320v-250h-320zM471 1163v250h320v-250h-320z" />
<glyph unicode="&#xa9;" horiz-adv-x="1591" d="M102 340v651q0 69 27 125.5t71 95t106 68.5t124.5 47t134 27.5t127.5 14t111 3.5q58 0 114 -3.5t126.5 -14t131 -27.5t119.5 -46.5t101 -68t68 -95t26 -124.5v-653q0 -74 -33.5 -133t-92 -97t-127.5 -65t-150 -40.5t-148.5 -19t-134.5 -5.5q-58 0 -116 3.5t-129 14 t-133.5 27t-123 44.5t-103.5 64.5t-69.5 89.5t-26.5 117zM324 358q0 -46 22.5 -82t64 -58t87 -36.5t105.5 -21t105 -8.5t99 -2q33 0 57 0.5t63 2.5t68 6t66.5 11t64.5 17.5t55 26.5t45.5 36t28.5 47.5t11 60.5v627q0 43 -16.5 78t-43 58t-66 40t-78 26t-88 14.5t-87 7 t-82.5 1.5q-55 0 -100.5 -2.5t-105.5 -9.5t-104.5 -22.5t-85.5 -39t-63 -62.5t-22 -89v-627zM477 559v260q0 124 77.5 186t248.5 62q118 0 186 -26.5t93.5 -74t25.5 -126.5v-56h-211v39q0 57 -16.5 72.5t-83.5 15.5q-57 0 -78 -21t-21 -87v-228q0 -70 17 -89t82 -19 q67 0 83.5 13t16.5 75v41h211v-57q0 -57 -12.5 -96t-44.5 -70.5t-93.5 -46.5t-154.5 -15q-183 0 -254.5 52.5t-71.5 195.5z" />
<glyph unicode="&#xaa;" horiz-adv-x="831" d="M68 379v156h733v-156h-733zM68 852q0 71 15 113.5t55.5 66.5t95.5 31.5t151 7.5h104v66q0 50 -11 67t-54 17h-18q-46 0 -60.5 -15.5t-17.5 -64.5h-236q3 65 15.5 105t45.5 70.5t91.5 43t152.5 12.5h47q77 0 129.5 -10t83 -26.5t47 -47.5t21 -62.5t4.5 -82.5v-309 q0 -26 9 -34.5t34 -8.5h25v-150h-144q-53 0 -88 22.5t-41 55.5q-22 -43 -62 -62.5t-128 -19.5q-153 0 -209.5 49t-56.5 166zM305 862q0 -45 13 -59.5t65 -14.5h27q46 0 62.5 10t16.5 48v88h-96q-58 0 -73 -13t-15 -59z" />
<glyph unicode="&#xab;" horiz-adv-x="1015" d="M41 567l184 394h320l-189 -394l189 -393h-320zM451 567l184 394h319l-188 -394l188 -393h-319z" />
<glyph unicode="&#xac;" d="M154 475v275h921v-598h-274v323h-647z" />
<glyph unicode="&#xad;" horiz-adv-x="0" />
<glyph unicode="&#xae;" horiz-adv-x="1591" d="M102 340v651q0 69 27 125.5t71 95t106 68.5t124.5 47t134 27.5t127.5 14t111 3.5q58 0 114 -3.5t126.5 -14t131 -27.5t119.5 -46.5t101 -68t68 -95t26 -124.5v-653q0 -74 -33.5 -133t-92 -97t-127.5 -65t-150 -40.5t-148.5 -19t-134.5 -5.5q-58 0 -116 3.5t-129 14 t-133.5 27t-123 44.5t-103.5 64.5t-69.5 89.5t-26.5 117zM324 358q0 -46 22.5 -82t64 -58t87 -36.5t105.5 -21t105 -8.5t99 -2q33 0 57 0.5t63 2.5t68 6t66.5 11t64.5 17.5t55 26.5t45.5 36t28.5 47.5t11 60.5v627q0 43 -16.5 78t-43 58t-66 40t-78 26t-88 14.5t-87 7 t-82.5 1.5q-55 0 -100.5 -2.5t-105.5 -9.5t-104.5 -22.5t-85.5 -39t-63 -62.5t-22 -89v-627zM514 299v756h301q62 0 101.5 -3t77 -12t58 -26t32.5 -45.5t12 -69.5v-133q0 -72 -36.5 -104.5t-109.5 -49.5l174 -313h-217l-147 299h-45v-299h-201zM715 707h96q55 0 69.5 14 t14.5 65v64q0 42 -15.5 56t-58.5 14h-106v-213z" />
<glyph unicode="&#xaf;" horiz-adv-x="671" d="M61 1159v254h549v-254h-549z" />
<glyph unicode="&#xb0;" horiz-adv-x="837" d="M57 870v271q0 47 12 83.5t30 60.5t49.5 41t58.5 26t69 13.5t70.5 5.5t73.5 1q44 0 72 -1t70 -5.5t69 -13.5t58 -26t49 -41t30 -60.5t12 -83.5v-271q0 -47 -12 -83.5t-30 -60.5t-49 -41t-58 -26t-69 -13.5t-70 -5.5t-72 -1q-45 0 -73.5 1t-70.5 5.5t-69 13.5t-58.5 26 t-49.5 41t-30 60.5t-12 83.5zM291 889q0 -45 34 -61.5t95 -16.5t94 16t33 62v233q0 46 -33 62t-94 16t-95 -16.5t-34 -61.5v-233z" />
<glyph unicode="&#xb1;" d="M154 0v274h921v-274h-921zM154 680v274h323v324h275v-324h323v-274h-323v-324h-275v324h-323z" />
<glyph unicode="&#xb2;" horiz-adv-x="737" d="M25 614v183q0 52 28 93t70.5 64.5t92 43.5t92 33t70.5 30t28 37v51q0 19 -11.5 28t-42.5 9h-20q-47 0 -47 -35v-37h-260v64q0 194 286 194h97q282 0 282 -188v-107q0 -57 -35 -98t-88.5 -63.5t-107.5 -39t-100.5 -35t-59.5 -40.5h160v59h229v-246h-663z" />
<glyph unicode="&#xb3;" horiz-adv-x="737" d="M10 850h275q1 -40 14.5 -49.5t54.5 -9.5q37 0 48.5 9t11.5 36v28q0 25 -11.5 33t-48.5 8h-149v185h155q20 0 34 14t14 39q0 26 -12 34.5t-36 8.5q-14 0 -21.5 -1t-17 -6t-14 -18t-4.5 -33h-268q0 77 17.5 125.5t59.5 74.5t97 35t145 9q169 0 244.5 -41t75.5 -137v-70 q0 -36 -17.5 -67.5t-46.5 -46.5q88 -32 88 -113v-111q0 -52 -25 -88.5t-72.5 -56.5t-107 -28.5t-139.5 -8.5q-90 0 -149 10t-105.5 36t-68 75t-21.5 125z" />
<glyph unicode="&#xb4;" horiz-adv-x="520" d="M20 1163l62 250h418l-113 -250h-367z" />
<glyph unicode="&#xb6;" horiz-adv-x="940" d="M82 1069q0 175 46 239t173 64h557v-33l-47 -34q-43 -32 -43 -76v-1688h-109v1743h-143v-1743h-108v1223q-71 0 -119 4.5t-86.5 18t-60 34t-36 56t-19.5 80.5t-5 112z" />
<glyph unicode="&#xb7;" horiz-adv-x="503" d="M61 487v344h381v-344h-381z" />
<glyph unicode="&#xb8;" horiz-adv-x="526" d="M0 -313q78 -23 145 -23q46 0 66 10t20 37q0 34 -19 49t-85 15h-76v225h285v-94q98 0 144 -41.5t46 -136.5q0 -110 -76.5 -158.5t-230.5 -48.5q-47 0 -120.5 6t-98.5 12v148z" />
<glyph unicode="&#xb9;" horiz-adv-x="737" d="M47 614v187h197v309l-172 -102v209l207 155h249v-571h166v-187h-647z" />
<glyph unicode="&#xba;" horiz-adv-x="860" d="M68 874v248q0 44 7 79t22 60.5t32.5 44t45.5 30.5t53 19.5t62 11t66.5 4.5t73.5 1q50 0 82.5 -1.5t74 -6.5t68 -15t54 -28.5t43.5 -44.5t26 -65t10 -89v-248q0 -47 -10 -84t-25.5 -61.5t-43.5 -42t-54 -27t-67.5 -14.5t-74.5 -6.5t-83 -1.5q-51 0 -84 1.5t-75 6.5 t-68.5 14.5t-54.5 27t-44 42t-26 61.5t-10 84zM70 379v156h716v-156h-716zM303 905q0 -43 4 -65.5t20.5 -34.5t37 -14.5t65.5 -2.5q42 0 61.5 2.5t35.5 14.5t20 34.5t4 65.5v189q0 48 -3.5 72t-19 37.5t-34.5 15.5t-64 2q-47 0 -67 -2t-36.5 -15.5t-20 -37.5t-3.5 -72v-189z " />
<glyph unicode="&#xbb;" horiz-adv-x="1015" d="M53 174l189 393l-189 394h320l184 -394l-184 -393h-320zM463 174l188 393l-188 394h319l185 -394l-185 -393h-319z" />
<glyph unicode="&#xbc;" horiz-adv-x="1689" d="M47 614v187h197v309l-172 -102v209l207 155h249v-571h166v-187h-647zM414 -20l579 1392h240l-580 -1392h-239zM940 139v183l162 436h231l-143 -439h115v197h249v-197h70v-180h-70v-139h-249v139h-365z" />
<glyph unicode="&#xbd;" horiz-adv-x="1689" d="M47 614v187h197v309l-172 -102v209l207 155h249v-571h166v-187h-647zM414 -20l579 1392h240l-580 -1392h-239zM936 0v182q0 52 28 93t70.5 64.5t92 43.5t92 33t70.5 30t28 37v52q0 19 -11 27.5t-42 8.5h-21q-47 0 -47 -34v-37h-260v63q0 195 287 195h96q142 0 212.5 -49 t70.5 -140v-106q0 -57 -35.5 -98t-88.5 -63.5t-107.5 -39.5t-101 -35.5t-59.5 -40.5h160v60h229v-246h-663z" />
<glyph unicode="&#xbe;" horiz-adv-x="1689" d="M10 850h275q1 -40 14.5 -49.5t54.5 -9.5q37 0 48.5 9t11.5 36v28q0 25 -11.5 33t-48.5 8h-149v185h155q20 0 34 14t14 39q0 26 -12 34.5t-36 8.5q-14 0 -21.5 -1t-17 -6t-14 -18t-4.5 -33h-268q0 77 17.5 125.5t59.5 74.5t97 35t145 9q169 0 244.5 -41t75.5 -137v-70 q0 -36 -17.5 -67.5t-46.5 -46.5q88 -32 88 -113v-111q0 -52 -25 -88.5t-72.5 -56.5t-107 -28.5t-139.5 -8.5q-90 0 -149 10t-105.5 36t-68 75t-21.5 125zM414 -20l579 1392h240l-580 -1392h-239zM940 139v183l162 436h231l-143 -439h115v197h249v-197h70v-180h-70v-139h-249 v139h-365z" />
<glyph unicode="&#xbf;" horiz-adv-x="1083" d="M49 -16v114q0 62 19 114.5t49.5 89t67 67.5t73 57.5t67 52.5t49.5 58t19 69h340q0 -70 -16 -127.5t-42 -95.5t-57 -69t-62.5 -56t-57.5 -50t-42 -56.5t-16 -69.5v-23q0 -68 19.5 -96.5t79.5 -28.5h39q66 0 87 28t21 95v41h336v-102q0 -174 -104 -255t-322 -81h-152 q-112 0 -190 21.5t-122.5 65t-63.5 101t-19 136.5zM373 688v344h381v-344h-381z" />
<glyph unicode="&#xc0;" horiz-adv-x="1476" d="M8 0v274h115l342 1098h569l320 -1098h114v-274h-690v274h131l-39 138h-352l-37 -138h135v-274h-608zM498 1753h417l62 -250h-367zM592 672h209l-99 362h-10z" />
<glyph unicode="&#xc1;" horiz-adv-x="1476" d="M8 0v274h115l342 1098h569l320 -1098h114v-274h-690v274h131l-39 138h-352l-37 -138h135v-274h-608zM498 1503l61 250h418l-113 -250h-366zM592 672h209l-99 362h-10z" />
<glyph unicode="&#xc2;" horiz-adv-x="1476" d="M8 0v274h115l342 1098h569l320 -1098h114v-274h-690v274h131l-39 138h-352l-37 -138h135v-274h-608zM389 1503l143 250h410l143 -250h-241l-107 107l-106 -107h-242zM592 672h209l-99 362h-10z" />
<glyph unicode="&#xc3;" horiz-adv-x="1476" d="M8 0v274h115l342 1098h569l320 -1098h114v-274h-690v274h131l-39 138h-352l-37 -138h135v-274h-608zM457 1427v256q21 26 62.5 43t90.5 17q50 0 133.5 -35t122.5 -35q95 0 154 88v-248q-21 -36 -64 -57.5t-90 -21.5q-52 0 -134.5 36.5t-121.5 36.5q-47 0 -90 -24t-63 -56 zM592 672h209l-99 362h-10z" />
<glyph unicode="&#xc4;" horiz-adv-x="1476" d="M8 0v274h115l342 1098h569l320 -1098h114v-274h-690v274h131l-39 138h-352l-37 -138h135v-274h-608zM373 1503v250h319v-250h-319zM592 672h209l-99 362h-10zM782 1503v250h320v-250h-320z" />
<glyph unicode="&#xc5;" horiz-adv-x="1476" d="M8 0v274h115l289 926q-37 64 -37 154q0 150 102.5 248t255.5 98t260 -98.5t107 -247.5q0 -67 -25 -125l279 -955h114v-274h-690v274h131l-39 138h-352l-37 -138h135v-274h-608zM592 672h209l-99 362h-10zM598 1333q0 -54 40.5 -94.5t94.5 -40.5t95.5 40.5t41.5 94.5 t-41.5 95.5t-95.5 41.5t-94.5 -41.5t-40.5 -95.5z" />
<glyph unicode="&#xc6;" horiz-adv-x="2025" d="M8 0v274h115l332 824h-150v274h1657v-420h-301v146h-332v-269h270v-270h-270v-285h352v164h301v-438h-1204v274h140v138h-386l-51 -138h135v-274h-608zM633 672h285v426h-123z" />
<glyph unicode="&#xc7;" horiz-adv-x="1337" d="M74 324v686q0 74 20 133t51.5 98.5t83.5 68.5t103.5 44.5t124 24.5t132.5 11.5t142 2.5q140 0 243.5 -21.5t167 -57.5t102.5 -92t53 -116.5t14 -138.5v-27h-422v10q0 104 -36 136t-142 32h-58q-88 0 -128 -36.5t-40 -125.5v-542q0 -87 40.5 -123.5t131.5 -36.5h62 q101 0 135.5 31t34.5 131v41h422v-70q0 -217 -142.5 -312t-472.5 -95q-101 0 -176 5t-149.5 18t-125.5 37t-91.5 61.5t-60 93.5t-19.5 129zM479 -313q78 -23 146 -23q46 0 66 10t20 37q0 34 -19.5 49t-85.5 15h-76v225h285v-94q99 0 145 -41.5t46 -136.5q0 -109 -77 -158 t-231 -49q-47 0 -120.5 6t-98.5 12v148z" />
<glyph unicode="&#xc8;" horiz-adv-x="1318" d="M51 0v274h139v824h-139v274h1204v-420h-301v146h-352v-269h291v-270h-291v-285h373v164h301v-438h-1225zM420 1753h418l61 -250h-367z" />
<glyph unicode="&#xc9;" horiz-adv-x="1318" d="M51 0v274h139v824h-139v274h1204v-420h-301v146h-352v-269h291v-270h-291v-285h373v164h301v-438h-1225zM420 1503l61 250h418l-113 -250h-366z" />
<glyph unicode="&#xca;" horiz-adv-x="1318" d="M51 0v274h139v824h-139v274h1204v-420h-301v146h-352v-269h291v-270h-291v-285h373v164h301v-438h-1225zM311 1503l144 250h409l144 -250h-242l-107 107l-106 -107h-242z" />
<glyph unicode="&#xcb;" horiz-adv-x="1318" d="M51 0v274h139v824h-139v274h1204v-420h-301v146h-352v-269h291v-270h-291v-285h373v164h301v-438h-1225zM295 1503v250h319v-250h-319zM705 1503v250h319v-250h-319z" />
<glyph unicode="&#xcc;" horiz-adv-x="792" d="M51 0v274h139v824h-139v274h690v-274h-139v-824h139v-274h-690zM156 1753h417l62 -250h-367z" />
<glyph unicode="&#xcd;" horiz-adv-x="792" d="M51 0v274h139v824h-139v274h690v-274h-139v-824h139v-274h-690zM156 1503l61 250h418l-113 -250h-366z" />
<glyph unicode="&#xce;" horiz-adv-x="792" d="M47 1503l143 250h410l143 -250h-241l-107 107l-106 -107h-242zM51 0v274h139v824h-139v274h690v-274h-139v-824h139v-274h-690z" />
<glyph unicode="&#xcf;" horiz-adv-x="792" d="M33 1503v250h319v-250h-319zM51 0v274h139v824h-139v274h690v-274h-139v-824h139v-274h-690zM442 1503v250h320v-250h-320z" />
<glyph unicode="&#xd0;" horiz-adv-x="1499" d="M51 0v274h139v287h-104v275h104v262h-139v274h819q547 0 547 -381v-631q0 -360 -545 -360h-821zM602 274h166q72 0 114.5 8.5t72 34t40.5 69.5t11 118v352q0 81 -9 126.5t-37 72.5t-68 35t-114 8h-176v-262h154v-275h-154v-287z" />
<glyph unicode="&#xd1;" horiz-adv-x="1693" d="M51 0v274h160v824h-160v274h631l477 -803v529h-160v274h643v-274h-159v-1098h-445l-503 891v-617h159v-274h-643zM565 1427v256q21 26 63 43t91 17q50 0 133.5 -35t122.5 -35q94 0 153 88v-248q-21 -36 -63.5 -57.5t-89.5 -21.5q-52 0 -134.5 36.5t-121.5 36.5 q-47 0 -90.5 -24t-63.5 -56z" />
<glyph unicode="&#xd2;" horiz-adv-x="1458" d="M74 383v606q0 100 32 172.5t85.5 116.5t140 70.5t179 35.5t218.5 9t218.5 -9t179 -35.5t140 -70.5t85.5 -116.5t32 -172.5v-606q0 -100 -32 -172.5t-85.5 -116.5t-140 -70t-179 -35t-218.5 -9t-218.5 9t-179 35t-140 70t-85.5 116.5t-32 172.5zM485 449q0 -44 2.5 -70.5 t11 -51t23.5 -36.5t43.5 -21.5t67 -12.5t96.5 -3t96.5 3t67 12.5t43.5 21.5t23.5 36.5t11 51t2.5 70.5v475q0 44 -2 70t-11 51t-24 36.5t-43.5 21t-67 12.5t-96.5 3t-96.5 -3t-67 -12.5t-43.5 -21t-24 -36.5t-11 -51t-2 -70v-475zM489 1753h418l62 -250h-367z" />
<glyph unicode="&#xd3;" horiz-adv-x="1458" d="M74 383v606q0 100 32 172.5t85.5 116.5t140 70.5t179 35.5t218.5 9t218.5 -9t179 -35.5t140 -70.5t85.5 -116.5t32 -172.5v-606q0 -100 -32 -172.5t-85.5 -116.5t-140 -70t-179 -35t-218.5 -9t-218.5 9t-179 35t-140 70t-85.5 116.5t-32 172.5zM485 449q0 -44 2.5 -70.5 t11 -51t23.5 -36.5t43.5 -21.5t67 -12.5t96.5 -3t96.5 3t67 12.5t43.5 21.5t23.5 36.5t11 51t2.5 70.5v475q0 44 -2 70t-11 51t-24 36.5t-43.5 21t-67 12.5t-96.5 3t-96.5 -3t-67 -12.5t-43.5 -21t-24 -36.5t-11 -51t-2 -70v-475zM489 1503l62 250h418l-113 -250h-367z" />
<glyph unicode="&#xd4;" horiz-adv-x="1458" d="M74 383v606q0 100 32 172.5t85.5 116.5t140 70.5t179 35.5t218.5 9t218.5 -9t179 -35.5t140 -70.5t85.5 -116.5t32 -172.5v-606q0 -100 -32 -172.5t-85.5 -116.5t-140 -70t-179 -35t-218.5 -9t-218.5 9t-179 35t-140 70t-85.5 116.5t-32 172.5zM381 1503l143 250h410 l143 -250h-241l-107 107l-106 -107h-242zM485 449q0 -44 2.5 -70.5t11 -51t23.5 -36.5t43.5 -21.5t67 -12.5t96.5 -3t96.5 3t67 12.5t43.5 21.5t23.5 36.5t11 51t2.5 70.5v475q0 44 -2 70t-11 51t-24 36.5t-43.5 21t-67 12.5t-96.5 3t-96.5 -3t-67 -12.5t-43.5 -21 t-24 -36.5t-11 -51t-2 -70v-475z" />
<glyph unicode="&#xd5;" horiz-adv-x="1458" d="M74 383v606q0 100 32 172.5t85.5 116.5t140 70.5t179 35.5t218.5 9t218.5 -9t179 -35.5t140 -70.5t85.5 -116.5t32 -172.5v-606q0 -100 -32 -172.5t-85.5 -116.5t-140 -70t-179 -35t-218.5 -9t-218.5 9t-179 35t-140 70t-85.5 116.5t-32 172.5zM446 1427v256q21 26 63 43 t91 17q50 0 133.5 -35t122.5 -35q95 0 154 88v-248q-21 -36 -64 -57.5t-90 -21.5q-52 0 -134.5 36.5t-121.5 36.5q-47 0 -90.5 -24t-63.5 -56zM485 449q0 -44 2.5 -70.5t11 -51t23.5 -36.5t43.5 -21.5t67 -12.5t96.5 -3t96.5 3t67 12.5t43.5 21.5t23.5 36.5t11 51t2.5 70.5 v475q0 44 -2 70t-11 51t-24 36.5t-43.5 21t-67 12.5t-96.5 3t-96.5 -3t-67 -12.5t-43.5 -21t-24 -36.5t-11 -51t-2 -70v-475z" />
<glyph unicode="&#xd6;" horiz-adv-x="1458" d="M74 383v606q0 100 32 172.5t85.5 116.5t140 70.5t179 35.5t218.5 9t218.5 -9t179 -35.5t140 -70.5t85.5 -116.5t32 -172.5v-606q0 -100 -32 -172.5t-85.5 -116.5t-140 -70t-179 -35t-218.5 -9t-218.5 9t-179 35t-140 70t-85.5 116.5t-32 172.5zM365 1503v250h319v-250 h-319zM485 449q0 -44 2.5 -70.5t11 -51t23.5 -36.5t43.5 -21.5t67 -12.5t96.5 -3t96.5 3t67 12.5t43.5 21.5t23.5 36.5t11 51t2.5 70.5v475q0 44 -2 70t-11 51t-24 36.5t-43.5 21t-67 12.5t-96.5 3t-96.5 -3t-67 -12.5t-43.5 -21t-24 -36.5t-11 -51t-2 -70v-475zM774 1503 v250h320v-250h-320z" />
<glyph unicode="&#xd7;" d="M193 383l227 229l-227 230l192 192l229 -227l230 227l192 -192l-227 -230l227 -229l-192 -193l-230 228l-229 -228z" />
<glyph unicode="&#xd8;" horiz-adv-x="1458" d="M74 383v606q0 100 32 172.5t85.5 116.5t140 70.5t179 35.5t218.5 9t218.5 -9t179 -35.5t140 -70.5t85.5 -116.5t32 -172.5v-606q0 -100 -32 -172.5t-85.5 -116.5t-140 -70t-179 -35t-218.5 -9t-218.5 9t-179 35t-140 70t-85.5 116.5t-32 172.5zM485 545l408 557 q-47 16 -164 16q-58 0 -96.5 -3t-67 -12.5t-43.5 -21t-24 -36.5t-11 -51t-2 -70v-379zM565 268q49 -14 164 -14q58 0 96.5 3t67 12.5t43.5 21.5t23.5 36.5t11 51t2.5 70.5v378z" />
<glyph unicode="&#xd9;" horiz-adv-x="1509" d="M51 1098v274h690v-274h-139v-617q0 -46 1.5 -73t5 -55t12.5 -42t21.5 -27t34.5 -18.5t49.5 -8.5t68.5 -3q47 0 78 3t54 14t35.5 25t19.5 42.5t9 59.5t2 83v617h-139v274h604v-274h-139v-717q0 -112 -38.5 -191.5t-112 -124.5t-165.5 -65t-212 -20q-119 0 -208 10t-166 35 t-125 67.5t-75 109.5t-27 158v738h-139zM514 1753h418l61 -250h-366z" />
<glyph unicode="&#xda;" horiz-adv-x="1509" d="M51 1098v274h690v-274h-139v-617q0 -46 1.5 -73t5 -55t12.5 -42t21.5 -27t34.5 -18.5t49.5 -8.5t68.5 -3q47 0 78 3t54 14t35.5 25t19.5 42.5t9 59.5t2 83v617h-139v274h604v-274h-139v-717q0 -112 -38.5 -191.5t-112 -124.5t-165.5 -65t-212 -20q-119 0 -208 10t-166 35 t-125 67.5t-75 109.5t-27 158v738h-139zM514 1503l61 250h418l-112 -250h-367z" />
<glyph unicode="&#xdb;" horiz-adv-x="1509" d="M51 1098v274h690v-274h-139v-617q0 -46 1.5 -73t5 -55t12.5 -42t21.5 -27t34.5 -18.5t49.5 -8.5t68.5 -3q47 0 78 3t54 14t35.5 25t19.5 42.5t9 59.5t2 83v617h-139v274h604v-274h-139v-717q0 -112 -38.5 -191.5t-112 -124.5t-165.5 -65t-212 -20q-119 0 -208 10t-166 35 t-125 67.5t-75 109.5t-27 158v738h-139zM406 1503l143 250h409l144 -250h-242l-106 107l-107 -107h-241z" />
<glyph unicode="&#xdc;" horiz-adv-x="1509" d="M51 1098v274h690v-274h-139v-617q0 -46 1.5 -73t5 -55t12.5 -42t21.5 -27t34.5 -18.5t49.5 -8.5t68.5 -3q47 0 78 3t54 14t35.5 25t19.5 42.5t9 59.5t2 83v617h-139v274h604v-274h-139v-717q0 -112 -38.5 -191.5t-112 -124.5t-165.5 -65t-212 -20q-119 0 -208 10t-166 35 t-125 67.5t-75 109.5t-27 158v738h-139zM389 1503v250h320v-250h-320zM799 1503v250h319v-250h-319z" />
<glyph unicode="&#xdd;" horiz-adv-x="1415" d="M12 1098v274h682v-274h-119l185 -297l186 297h-121v274h590v-274h-117l-378 -576v-248h163v-274h-735v274h160v242l-381 582h-115zM467 1503l61 250h418l-112 -250h-367z" />
<glyph unicode="&#xde;" horiz-adv-x="1406" d="M51 0v274h139v824h-139v274h551v-164h301q181 0 283.5 -32t144 -96t41.5 -175v-192q0 -74 -14.5 -128.5t-49.5 -99.5t-92.5 -73t-144.5 -43t-205 -15h-264v-80h182v-274h-733zM602 621h105q61 0 100 2t69 9.5t45.5 16.5t25 28.5t12 41t2.5 57.5v19q0 34 -2 53t-11.5 36.5 t-24.5 25.5t-46.5 14.5t-71 8t-103.5 1.5h-100v-313z" />
<glyph unicode="&#xdf;" horiz-adv-x="1355" d="M41 0v274h94v791q0 64 13.5 111t50.5 90t99 69.5t161 42t235 15.5q133 0 231 -15.5t159.5 -42.5t99 -69t51.5 -90t14 -111v-123q0 -82 -49 -138t-110 -73v-12q72 -8 138 -66t66 -131v-200q0 -176 -110.5 -249t-374.5 -73h-152v274h91q79 0 112 26.5t33 107.5v36 q0 29 -4.5 48t-18 38t-43.5 28t-77 9h-52v269h33q63 0 90 23.5t27 86.5v37q0 78 -29.5 106.5t-126.5 28.5t-126 -28t-29 -107v-983h-496z" />
<glyph unicode="&#xe0;" horiz-adv-x="1171" d="M47 301q0 99 19.5 162t68 100.5t119.5 51.5t184 14h232v90q0 31 -13.5 45t-60.5 14h-43q-46 0 -59 -15.5t-13 -64.5h-397q5 107 31.5 174.5t84.5 108.5t142 56.5t215 15.5h59q174 0 274 -36t140.5 -107.5t40.5 -194.5v-365q0 -43 8.5 -59.5t36.5 -16.5h33v-274h-272 q-74 0 -114.5 12t-53.5 29.5t-21 52.5h-8q-12 -26 -20.5 -40t-27 -31t-44.5 -24.5t-69 -13t-105 -5.5q-211 0 -289 70t-78 251zM346 1413h418l61 -250h-366zM449 317q0 -51 19.5 -67.5t68.5 -16.5h38q61 0 78 14.5t17 67.5v103h-117q-67 0 -85.5 -19.5t-18.5 -81.5z" />
<glyph unicode="&#xe1;" horiz-adv-x="1171" d="M47 301q0 99 19.5 162t68 100.5t119.5 51.5t184 14h232v90q0 31 -13.5 45t-60.5 14h-43q-46 0 -59 -15.5t-13 -64.5h-397q5 107 31.5 174.5t84.5 108.5t142 56.5t215 15.5h59q174 0 274 -36t140.5 -107.5t40.5 -194.5v-365q0 -43 8.5 -59.5t36.5 -16.5h33v-274h-272 q-74 0 -114.5 12t-53.5 29.5t-21 52.5h-8q-12 -26 -20.5 -40t-27 -31t-44.5 -24.5t-69 -13t-105 -5.5q-211 0 -289 70t-78 251zM346 1163l62 250h417l-112 -250h-367zM449 317q0 -51 19.5 -67.5t68.5 -16.5h38q61 0 78 14.5t17 67.5v103h-117q-67 0 -85.5 -19.5t-18.5 -81.5 z" />
<glyph unicode="&#xe2;" horiz-adv-x="1171" d="M47 301q0 99 19.5 162t68 100.5t119.5 51.5t184 14h232v90q0 31 -13.5 45t-60.5 14h-43q-46 0 -59 -15.5t-13 -64.5h-397q5 107 31.5 174.5t84.5 108.5t142 56.5t215 15.5h59q174 0 274 -36t140.5 -107.5t40.5 -194.5v-365q0 -43 8.5 -59.5t36.5 -16.5h33v-274h-272 q-74 0 -114.5 12t-53.5 29.5t-21 52.5h-8q-12 -26 -20.5 -40t-27 -31t-44.5 -24.5t-69 -13t-105 -5.5q-211 0 -289 70t-78 251zM238 1163l143 250h410l143 -250h-242l-106 107l-107 -107h-241zM449 317q0 -51 19.5 -67.5t68.5 -16.5h38q61 0 78 14.5t17 67.5v103h-117 q-67 0 -85.5 -19.5t-18.5 -81.5z" />
<glyph unicode="&#xe3;" horiz-adv-x="1171" d="M47 301q0 99 19.5 162t68 100.5t119.5 51.5t184 14h232v90q0 31 -13.5 45t-60.5 14h-43q-46 0 -59 -15.5t-13 -64.5h-397q5 107 31.5 174.5t84.5 108.5t142 56.5t215 15.5h59q174 0 274 -36t140.5 -107.5t40.5 -194.5v-365q0 -43 8.5 -59.5t36.5 -16.5h33v-274h-272 q-74 0 -114.5 12t-53.5 29.5t-21 52.5h-8q-12 -26 -20.5 -40t-27 -31t-44.5 -24.5t-69 -13t-105 -5.5q-211 0 -289 70t-78 251zM303 1087v256q21 26 63 43t91 17q50 0 133.5 -35t122.5 -35q94 0 153 88v-247q-21 -36 -64 -58t-89 -22q-52 0 -134.5 36.5t-121.5 36.5 q-47 0 -90.5 -24t-63.5 -56zM449 317q0 -51 19.5 -67.5t68.5 -16.5h38q61 0 78 14.5t17 67.5v103h-117q-67 0 -85.5 -19.5t-18.5 -81.5z" />
<glyph unicode="&#xe4;" horiz-adv-x="1171" d="M47 301q0 99 19.5 162t68 100.5t119.5 51.5t184 14h232v90q0 31 -13.5 45t-60.5 14h-43q-46 0 -59 -15.5t-13 -64.5h-397q5 107 31.5 174.5t84.5 108.5t142 56.5t215 15.5h59q174 0 274 -36t140.5 -107.5t40.5 -194.5v-365q0 -43 8.5 -59.5t36.5 -16.5h33v-274h-272 q-74 0 -114.5 12t-53.5 29.5t-21 52.5h-8q-12 -26 -20.5 -40t-27 -31t-44.5 -24.5t-69 -13t-105 -5.5q-211 0 -289 70t-78 251zM221 1163v250h320v-250h-320zM449 317q0 -51 19.5 -67.5t68.5 -16.5h38q61 0 78 14.5t17 67.5v103h-117q-67 0 -85.5 -19.5t-18.5 -81.5z M631 1163v250h319v-250h-319z" />
<glyph unicode="&#xe5;" horiz-adv-x="1171" d="M47 301q0 99 19.5 162t68 100.5t119.5 51.5t184 14h232v90q0 31 -13.5 45t-60.5 14h-43q-46 0 -59 -15.5t-13 -64.5h-397q5 107 31.5 174.5t84.5 108.5t142 56.5t215 15.5h59q174 0 274 -36t140.5 -107.5t40.5 -194.5v-365q0 -43 8.5 -59.5t36.5 -16.5h33v-274h-272 q-74 0 -114.5 12t-53.5 29.5t-21 52.5h-8q-12 -26 -20.5 -40t-27 -31t-44.5 -24.5t-69 -13t-105 -5.5q-211 0 -289 70t-78 251zM344 1360q0 100 69.5 172t170.5 72q100 0 171.5 -72t71.5 -172q0 -101 -71.5 -170.5t-171.5 -69.5q-101 0 -170.5 69.5t-69.5 170.5zM449 317 q0 -51 19.5 -67.5t68.5 -16.5h38q61 0 78 14.5t17 67.5v103h-117q-67 0 -85.5 -19.5t-18.5 -81.5zM483 1360q0 -40 30.5 -70t70.5 -30t70 30t30 70t-30 70t-70 30t-70.5 -30t-30.5 -70z" />
<glyph unicode="&#xe6;" horiz-adv-x="1767" d="M47 301q0 99 19.5 162t68 100.5t119.5 51.5t184 14h232v90q0 31 -13.5 45t-60.5 14h-43q-46 0 -59 -15.5t-13 -64.5h-397q5 107 31.5 174.5t84.5 108.5t142 56.5t215 15.5h59q181 0 269 -39q109 39 289 39q157 0 259.5 -22.5t162.5 -73t84 -122.5t24 -182v-235h-653v-39 q0 -78 24.5 -101.5t116.5 -23.5h16q71 0 92.5 21t24.5 77h381q-4 -78 -17.5 -132.5t-45.5 -102.5t-86 -76.5t-139 -44.5t-204 -16h-32q-170 0 -272 27t-154 87h-13q-27 -58 -95.5 -86t-217.5 -28q-214 0 -298.5 71t-84.5 250zM449 317q0 -51 19.5 -67.5t68.5 -16.5h38 q61 0 78 14.5t17 67.5v103h-117q-67 0 -85.5 -19.5t-18.5 -81.5zM1051 629h252v49q0 65 -26.5 82.5t-107.5 17.5q-69 0 -93.5 -18t-24.5 -82v-49z" />
<glyph unicode="&#xe7;" horiz-adv-x="1114" d="M61 344v324q0 148 45.5 228.5t161.5 118.5t332 38q107 0 184 -9.5t132 -32t88.5 -53t53 -81.5t26 -108t6.5 -140h-379q0 97 -21 123t-100 26q-86 0 -106.5 -24t-20.5 -121v-246q0 -89 21 -111t106 -22q82 0 101.5 24t19.5 125h379q0 -83 -7.5 -141t-28 -108t-55.5 -81 t-91 -53t-133.5 -31t-184.5 -9q-150 0 -245.5 16t-161.5 57t-94 111t-28 180zM367 -313q78 -23 145 -23q46 0 66 10t20 37q0 34 -19 49t-85 15h-76v225h284v-94q99 0 145 -41.5t46 -136.5q0 -110 -76.5 -158.5t-230.5 -48.5q-47 0 -120.5 6t-98.5 12v148z" />
<glyph unicode="&#xe8;" horiz-adv-x="1179" d="M61 332v321q0 101 23.5 171.5t81.5 124t162 79t258 25.5q157 0 259.5 -22.5t162.5 -73t84 -122.5t24 -182v-227h-653v-47q0 -78 24.5 -101.5t116.5 -23.5h17q71 0 92 21t24 77h381q-4 -78 -17 -132.5t-45.5 -102.5t-86 -76.5t-138.5 -44.5t-204 -16h-33q-286 0 -409.5 81 t-123.5 271zM350 1413h418l61 -250h-366zM463 633h252v45q0 65 -26 82.5t-107 17.5q-69 0 -94 -18t-25 -82v-45z" />
<glyph unicode="&#xe9;" horiz-adv-x="1179" d="M61 332v321q0 101 23.5 171.5t81.5 124t162 79t258 25.5q157 0 259.5 -22.5t162.5 -73t84 -122.5t24 -182v-227h-653v-47q0 -78 24.5 -101.5t116.5 -23.5h17q71 0 92 21t24 77h381q-4 -78 -17 -132.5t-45.5 -102.5t-86 -76.5t-138.5 -44.5t-204 -16h-33q-286 0 -409.5 81 t-123.5 271zM350 1163l62 250h417l-112 -250h-367zM463 633h252v45q0 65 -26 82.5t-107 17.5q-69 0 -94 -18t-25 -82v-45z" />
<glyph unicode="&#xea;" horiz-adv-x="1179" d="M61 332v321q0 101 23.5 171.5t81.5 124t162 79t258 25.5q157 0 259.5 -22.5t162.5 -73t84 -122.5t24 -182v-227h-653v-47q0 -78 24.5 -101.5t116.5 -23.5h17q71 0 92 21t24 77h381q-4 -78 -17 -132.5t-45.5 -102.5t-86 -76.5t-138.5 -44.5t-204 -16h-33q-286 0 -409.5 81 t-123.5 271zM242 1163l143 250h410l143 -250h-242l-106 107l-107 -107h-241zM463 633h252v45q0 65 -26 82.5t-107 17.5q-69 0 -94 -18t-25 -82v-45z" />
<glyph unicode="&#xeb;" horiz-adv-x="1179" d="M61 332v321q0 101 23.5 171.5t81.5 124t162 79t258 25.5q157 0 259.5 -22.5t162.5 -73t84 -122.5t24 -182v-227h-653v-47q0 -78 24.5 -101.5t116.5 -23.5h17q71 0 92 21t24 77h381q-4 -78 -17 -132.5t-45.5 -102.5t-86 -76.5t-138.5 -44.5t-204 -16h-33q-286 0 -409.5 81 t-123.5 271zM225 1163v250h320v-250h-320zM463 633h252v45q0 65 -26 82.5t-107 17.5q-69 0 -94 -18t-25 -82v-45zM635 1163v250h319v-250h-319z" />
<glyph unicode="&#xec;" horiz-adv-x="700" d="M41 0v274h119v484h-119v274h520v-758h119v-274h-639zM111 1413h417l62 -250h-367z" />
<glyph unicode="&#xed;" horiz-adv-x="700" d="M41 0v274h119v484h-119v274h520v-758h119v-274h-639zM111 1163l61 250h418l-113 -250h-366z" />
<glyph unicode="&#xee;" horiz-adv-x="700" d="M2 1163l143 250h410l143 -250h-241l-107 107l-106 -107h-242zM41 0v274h119v484h-119v274h520v-758h119v-274h-639z" />
<glyph unicode="&#xef;" horiz-adv-x="700" d="M-14 1163v250h319v-250h-319zM41 0v274h119v484h-119v274h520v-758h119v-274h-639zM395 1163v250h320v-250h-320z" />
<glyph unicode="&#xf0;" horiz-adv-x="1200" d="M61 313v385q0 55 10 101t26.5 80t44 61t55 45t68 31t75.5 20t84.5 11t87 5t90.5 1q33 0 98 -17q-69 109 -114 164l-140 -51l-67 123l108 39q-77 81 -161 151h405l45 -45l125 47l68 -123l-88 -32q258 -302 258 -631v-365q0 -66 -16 -117.5t-41.5 -86.5t-68 -59.5 t-83.5 -38t-102 -20.5t-108.5 -9t-117.5 -2t-118 2t-109 9t-102.5 20.5t-84.5 38t-68.5 59.5t-42 86.5t-16.5 117.5zM463 395q0 -35 1.5 -57.5t9 -39t15 -24.5t26 -13t36 -6t51.5 -1q50 0 71.5 2.5t39 17.5t21 41.5t3.5 79.5v242q0 53 -3.5 79.5t-21 41.5t-39 17.5 t-71.5 2.5q-34 0 -51.5 -1t-36 -6t-26 -13t-15 -24.5t-9 -39t-1.5 -57.5v-242z" />
<glyph unicode="&#xf1;" horiz-adv-x="1320" d="M41 0v274h119v484h-119v274h516v-121h4q16 77 91.5 109.5t203.5 32.5q82 0 141 -13.5t94.5 -36t56 -60t27.5 -78t7 -97.5v-494h118v-274h-520v612q0 103 -17.5 133.5t-82.5 30.5q-81 0 -100 -27.5t-19 -136.5v-338h98v-274h-618zM379 1087v256q21 26 62.5 43t90.5 17 q50 0 133.5 -35t122.5 -35q95 0 154 88v-247q-21 -36 -64 -58t-90 -22q-52 0 -134.5 36.5t-121.5 36.5q-47 0 -90 -24t-63 -56z" />
<glyph unicode="&#xf2;" horiz-adv-x="1200" d="M61 313v385q0 55 10 101t26.5 80t44 61t55 45t68 31t75.5 20t84.5 11t87 5t90.5 1t90.5 -1t86.5 -5t83.5 -11t75 -20t68 -31t54.5 -45t43 -61t26 -80t10 -101v-385q0 -66 -16 -117.5t-41.5 -86.5t-68 -59.5t-83.5 -38t-102 -20.5t-108.5 -9t-117.5 -2t-118 2t-109 9 t-102.5 20.5t-84.5 38t-68.5 59.5t-42 86.5t-16.5 117.5zM360 1413h418l62 -250h-367zM463 395q0 -35 1.5 -57.5t9 -39t15 -24.5t26 -13t36 -6t51.5 -1q50 0 71.5 2.5t39 17.5t21 41.5t3.5 79.5v242q0 53 -3.5 79.5t-21 41.5t-39 17.5t-71.5 2.5q-34 0 -51.5 -1t-36 -6 t-26 -13t-15 -24.5t-9 -39t-1.5 -57.5v-242z" />
<glyph unicode="&#xf3;" horiz-adv-x="1200" d="M61 313v385q0 55 10 101t26.5 80t44 61t55 45t68 31t75.5 20t84.5 11t87 5t90.5 1t90.5 -1t86.5 -5t83.5 -11t75 -20t68 -31t54.5 -45t43 -61t26 -80t10 -101v-385q0 -66 -16 -117.5t-41.5 -86.5t-68 -59.5t-83.5 -38t-102 -20.5t-108.5 -9t-117.5 -2t-118 2t-109 9 t-102.5 20.5t-84.5 38t-68.5 59.5t-42 86.5t-16.5 117.5zM360 1163l62 250h418l-113 -250h-367zM463 395q0 -35 1.5 -57.5t9 -39t15 -24.5t26 -13t36 -6t51.5 -1q50 0 71.5 2.5t39 17.5t21 41.5t3.5 79.5v242q0 53 -3.5 79.5t-21 41.5t-39 17.5t-71.5 2.5q-34 0 -51.5 -1 t-36 -6t-26 -13t-15 -24.5t-9 -39t-1.5 -57.5v-242z" />
<glyph unicode="&#xf4;" horiz-adv-x="1200" d="M61 313v385q0 55 10 101t26.5 80t44 61t55 45t68 31t75.5 20t84.5 11t87 5t90.5 1t90.5 -1t86.5 -5t83.5 -11t75 -20t68 -31t54.5 -45t43 -61t26 -80t10 -101v-385q0 -66 -16 -117.5t-41.5 -86.5t-68 -59.5t-83.5 -38t-102 -20.5t-108.5 -9t-117.5 -2t-118 2t-109 9 t-102.5 20.5t-84.5 38t-68.5 59.5t-42 86.5t-16.5 117.5zM252 1163l143 250h410l143 -250h-241l-107 107l-106 -107h-242zM463 395q0 -35 1.5 -57.5t9 -39t15 -24.5t26 -13t36 -6t51.5 -1q50 0 71.5 2.5t39 17.5t21 41.5t3.5 79.5v242q0 53 -3.5 79.5t-21 41.5t-39 17.5 t-71.5 2.5q-34 0 -51.5 -1t-36 -6t-26 -13t-15 -24.5t-9 -39t-1.5 -57.5v-242z" />
<glyph unicode="&#xf5;" horiz-adv-x="1200" d="M61 313v385q0 55 10 101t26.5 80t44 61t55 45t68 31t75.5 20t84.5 11t87 5t90.5 1t90.5 -1t86.5 -5t83.5 -11t75 -20t68 -31t54.5 -45t43 -61t26 -80t10 -101v-385q0 -66 -16 -117.5t-41.5 -86.5t-68 -59.5t-83.5 -38t-102 -20.5t-108.5 -9t-117.5 -2t-118 2t-109 9 t-102.5 20.5t-84.5 38t-68.5 59.5t-42 86.5t-16.5 117.5zM317 1087v256q21 26 63 43t91 17q50 0 133.5 -35t122.5 -35q95 0 154 88v-247q-21 -36 -64 -58t-90 -22q-52 0 -134.5 36.5t-121.5 36.5q-47 0 -90.5 -24t-63.5 -56zM463 395q0 -35 1.5 -57.5t9 -39t15 -24.5t26 -13 t36 -6t51.5 -1q50 0 71.5 2.5t39 17.5t21 41.5t3.5 79.5v242q0 53 -3.5 79.5t-21 41.5t-39 17.5t-71.5 2.5q-34 0 -51.5 -1t-36 -6t-26 -13t-15 -24.5t-9 -39t-1.5 -57.5v-242z" />
<glyph unicode="&#xf6;" horiz-adv-x="1200" d="M61 313v385q0 55 10 101t26.5 80t44 61t55 45t68 31t75.5 20t84.5 11t87 5t90.5 1t90.5 -1t86.5 -5t83.5 -11t75 -20t68 -31t54.5 -45t43 -61t26 -80t10 -101v-385q0 -66 -16 -117.5t-41.5 -86.5t-68 -59.5t-83.5 -38t-102 -20.5t-108.5 -9t-117.5 -2t-118 2t-109 9 t-102.5 20.5t-84.5 38t-68.5 59.5t-42 86.5t-16.5 117.5zM236 1163v250h319v-250h-319zM463 395q0 -35 1.5 -57.5t9 -39t15 -24.5t26 -13t36 -6t51.5 -1q50 0 71.5 2.5t39 17.5t21 41.5t3.5 79.5v242q0 53 -3.5 79.5t-21 41.5t-39 17.5t-71.5 2.5q-34 0 -51.5 -1t-36 -6 t-26 -13t-15 -24.5t-9 -39t-1.5 -57.5v-242zM645 1163v250h320v-250h-320z" />
<glyph unicode="&#xf7;" d="M154 475v275h921v-275h-921zM424 35v344h381v-344h-381zM424 846v344h381v-344h-381z" />
<glyph unicode="&#xf8;" horiz-adv-x="1200" d="M61 313v385q0 55 10 101t26.5 80t44 61t55 45t68 31t75.5 20t84.5 11t87 5t90.5 1t90.5 -1t86.5 -5t83.5 -11t75 -20t68 -31t54.5 -45t43 -61t26 -80t10 -101v-385q0 -66 -16 -117.5t-41.5 -86.5t-68 -59.5t-83.5 -38t-102 -20.5t-108.5 -9t-117.5 -2t-118 2t-109 9 t-102.5 20.5t-84.5 38t-68.5 59.5t-42 86.5t-16.5 117.5zM463 465l227 305q-27 8 -88 8q-34 0 -51.5 -1t-36 -6t-26 -13t-15 -24.5t-9 -39t-1.5 -57.5v-172zM510 260q20 -6 92 -6q50 0 71.5 2.5t39 17.5t21 41.5t3.5 79.5v170z" />
<glyph unicode="&#xf9;" horiz-adv-x="1308" d="M41 758v274h508v-612q0 -103 17.5 -133.5t82.5 -30.5q81 0 100 27.5t19 136.5v338h-106v274h507v-758h119v-274h-516v121h-4q-16 -77 -91.5 -109t-203.5 -32q-102 0 -168 18.5t-100 58.5t-46 87.5t-12 119.5v494h-106zM414 1413h417l62 -250h-367z" />
<glyph unicode="&#xfa;" horiz-adv-x="1308" d="M41 758v274h508v-612q0 -103 17.5 -133.5t82.5 -30.5q81 0 100 27.5t19 136.5v338h-106v274h507v-758h119v-274h-516v121h-4q-16 -77 -91.5 -109t-203.5 -32q-102 0 -168 18.5t-100 58.5t-46 87.5t-12 119.5v494h-106zM414 1163l61 250h418l-113 -250h-366z" />
<glyph unicode="&#xfb;" horiz-adv-x="1308" d="M41 758v274h508v-612q0 -103 17.5 -133.5t82.5 -30.5q81 0 100 27.5t19 136.5v338h-106v274h507v-758h119v-274h-516v121h-4q-16 -77 -91.5 -109t-203.5 -32q-102 0 -168 18.5t-100 58.5t-46 87.5t-12 119.5v494h-106zM305 1163l144 250h409l143 -250h-241l-107 107 l-106 -107h-242z" />
<glyph unicode="&#xfc;" horiz-adv-x="1308" d="M41 758v274h508v-612q0 -103 17.5 -133.5t82.5 -30.5q81 0 100 27.5t19 136.5v338h-106v274h507v-758h119v-274h-516v121h-4q-16 -77 -91.5 -109t-203.5 -32q-102 0 -168 18.5t-100 58.5t-46 87.5t-12 119.5v494h-106zM289 1163v250h319v-250h-319zM698 1163v250h320 v-250h-320z" />
<glyph unicode="&#xfd;" horiz-adv-x="1294" d="M4 758v274h660v-274h-109l141 -422h21l145 422h-108v274h530v-274h-119l-280 -809q-31 -90 -64 -157.5t-69.5 -114.5t-74.5 -77.5t-84.5 -48t-93 -24t-106.5 -6.5q-71 0 -129.5 17.5t-111 57.5t-83.5 116.5t-34 183.5h295q0 -62 24 -85.5t66 -23.5q25 0 44 6.5t41 26 t42.5 61t40.5 105.5l4 14h-186l-281 758h-121zM408 1163l61 250h418l-113 -250h-366z" />
<glyph unicode="&#xfe;" horiz-adv-x="1290" d="M33 1188v274h520v-520q15 48 86.5 79.5t204.5 31.5q90 0 157.5 -19t120 -61.5t80 -117t27.5 -179.5v-334q0 -190 -94 -276t-301 -86q-250 0 -281 126v-290h156v-275h-656v275h99v1372h-119zM553 395q0 -35 1.5 -57.5t9 -39t15 -24.5t26 -13t36 -6t51.5 -1q50 0 71.5 2.5 t39 17.5t21 41.5t3.5 79.5v242q0 53 -3.5 79.5t-21 41.5t-39 17.5t-71.5 2.5q-34 0 -51.5 -1t-36 -6t-26 -13t-15 -24.5t-9 -39t-1.5 -57.5v-242z" />
<glyph unicode="&#xff;" horiz-adv-x="1294" d="M4 758v274h660v-274h-109l141 -422h21l145 422h-108v274h530v-274h-119l-280 -809q-31 -90 -64 -157.5t-69.5 -114.5t-74.5 -77.5t-84.5 -48t-93 -24t-106.5 -6.5q-71 0 -129.5 17.5t-111 57.5t-83.5 116.5t-34 183.5h295q0 -62 24 -85.5t66 -23.5q25 0 44 6.5t41 26 t42.5 61t40.5 105.5l4 14h-186l-281 758h-121zM283 1163v250h319v-250h-319zM692 1163v250h320v-250h-320z" />
<glyph unicode="&#x152;" horiz-adv-x="2017" d="M74 360v631q0 381 547 381h1333v-420h-301v146h-353v-269h291v-270h-291v-285h373v164h301v-438h-1356q-544 0 -544 360zM485 504q0 -74 11 -118t40.5 -69.5t72 -34t114.5 -8.5h166v824h-176q-74 0 -114 -8t-68 -35t-37 -72.5t-9 -126.5v-352z" />
<glyph unicode="&#x153;" horiz-adv-x="1830" d="M61 313v385q0 55 10 101t26.5 80t44 61t55 45t68 31t75.5 20t84.5 11t87 5t90.5 1q216 0 316 -80q96 80 319 80q157 0 259.5 -22.5t162.5 -73t84 -122.5t24 -182v-227h-653v-47q0 -78 24.5 -101.5t116.5 -23.5h17q71 0 92.5 21t24.5 77h380q-4 -78 -17 -132.5 t-45.5 -102.5t-86 -76.5t-138.5 -44.5t-204 -16h-33q-224 0 -323 77q-100 -77 -320 -77q-70 0 -118 2t-109 9t-102.5 20.5t-84.5 38t-68.5 59.5t-42 86.5t-16.5 117.5zM463 395q0 -35 1.5 -57.5t9 -39t15 -24.5t26 -13t36 -6t51.5 -1q50 0 71.5 2.5t39 17.5t21 41.5 t3.5 79.5v242q0 53 -3.5 79.5t-21 41.5t-39 17.5t-71.5 2.5q-34 0 -51.5 -1t-36 -6t-26 -13t-15 -24.5t-9 -39t-1.5 -57.5v-242zM1114 633h252v45q0 65 -26 82.5t-107 17.5q-69 0 -94 -18t-25 -82v-45z" />
<glyph unicode="&#x178;" horiz-adv-x="1415" d="M12 1098v274h682v-274h-119l185 -297l186 297h-121v274h590v-274h-117l-378 -576v-248h163v-274h-735v274h160v242l-381 582h-115zM342 1503v250h320v-250h-320zM752 1503v250h319v-250h-319z" />
<glyph unicode="&#x2c6;" horiz-adv-x="737" d="M20 1163l144 250h409l144 -250h-242l-106 107l-107 -107h-242z" />
<glyph unicode="&#x2dc;" horiz-adv-x="686" d="M61 1087v256q21 26 63 43t91 17q50 0 133.5 -35t122.5 -35q95 0 154 88v-247q-21 -36 -64 -58t-90 -22q-52 0 -134.5 36.5t-121.5 36.5q-47 0 -90.5 -24t-63.5 -56z" />
<glyph unicode="&#x2000;" horiz-adv-x="880" />
<glyph unicode="&#x2001;" horiz-adv-x="1761" />
<glyph unicode="&#x2002;" horiz-adv-x="880" />
<glyph unicode="&#x2003;" horiz-adv-x="1761" />
<glyph unicode="&#x2004;" horiz-adv-x="587" />
<glyph unicode="&#x2005;" horiz-adv-x="440" />
<glyph unicode="&#x2006;" horiz-adv-x="293" />
<glyph unicode="&#x2007;" horiz-adv-x="293" />
<glyph unicode="&#x2008;" horiz-adv-x="220" />
<glyph unicode="&#x2009;" horiz-adv-x="352" />
<glyph unicode="&#x200a;" horiz-adv-x="97" />
<glyph unicode="&#x2010;" horiz-adv-x="651" d="M41 475v275h567v-275h-567z" />
<glyph unicode="&#x2011;" horiz-adv-x="651" d="M41 475v275h567v-275h-567z" />
<glyph unicode="&#x2012;" horiz-adv-x="651" d="M41 475v275h567v-275h-567z" />
<glyph unicode="&#x2013;" horiz-adv-x="1024" d="M0 475v275h1024v-275h-1024z" />
<glyph unicode="&#x2014;" horiz-adv-x="2048" d="M0 475v275h2048v-275h-2048z" />
<glyph unicode="&#x2018;" horiz-adv-x="503" d="M23 881l192 491h274l-94 -491h-372z" />
<glyph unicode="&#x2019;" horiz-adv-x="503" d="M23 881l94 491h372l-192 -491h-274z" />
<glyph unicode="&#x201a;" horiz-adv-x="503" d="M4 -215l94 491h373l-192 -491h-275z" />
<glyph unicode="&#x201c;" horiz-adv-x="933" d="M23 881l192 491h274l-94 -491h-372zM453 881l192 491h275l-95 -491h-372z" />
<glyph unicode="&#x201d;" horiz-adv-x="933" d="M23 881l94 491h372l-192 -491h-274zM453 881l94 491h373l-193 -491h-274z" />
<glyph unicode="&#x201e;" horiz-adv-x="933" d="M4 -215l94 491h373l-192 -491h-275zM434 -215l94 491h373l-192 -491h-275z" />
<glyph unicode="&#x2022;" horiz-adv-x="980" d="M98 592q0 163 114 277t277 114q164 0 279 -114t115 -277t-114 -278t-277 -115q-164 0 -279 115t-115 278z" />
<glyph unicode="&#x2026;" horiz-adv-x="1634" d="M61 0v385h422v-385h-422zM606 0v385h422v-385h-422zM1151 0v385h422v-385h-422z" />
<glyph unicode="&#x202f;" horiz-adv-x="352" />
<glyph unicode="&#x2039;" horiz-adv-x="598" d="M41 567l184 394h320l-189 -394l189 -393h-320z" />
<glyph unicode="&#x203a;" horiz-adv-x="598" d="M53 174l189 393l-189 394h320l184 -394l-184 -393h-320z" />
<glyph unicode="&#x205f;" horiz-adv-x="440" />
<glyph unicode="&#x20ac;" d="M104 428v193h123v94h-123v192h123v111q0 77 19.5 135.5t58.5 96.5t86 63t114.5 37.5t129.5 17t145 4.5q70 0 194.5 -9.5t178.5 -19.5l-45 -280q-136 35 -246 35q-58 0 -88.5 -1t-61.5 -8t-43.5 -17.5t-23.5 -33t-13.5 -51.5t-2.5 -76v-4h446l-24 -192h-422v-94h407 l-26 -193h-381q0 -32 2.5 -55t10.5 -42t16.5 -31t26.5 -21t35 -13.5t48.5 -7.5t59.5 -3.5t75 -0.5q139 0 217 12v-280q-82 -6 -319 -6q-61 0 -104 1t-96 5t-90 10.5t-79 18.5t-70.5 29.5t-56 42.5t-43.5 57t-25.5 74.5t-9.5 94.5v115h-123z" />
<glyph unicode="&#x2122;" horiz-adv-x="1304" d="M14 1260v92h486v-92h-178v-449h-127v449h-181zM569 811v541h166l158 -391l145 391h160v-541h-113v363l-143 -363h-108l-150 367v-367h-115z" />
<glyph unicode="&#xe000;" horiz-adv-x="1034" d="M0 0v1034h1034v-1034h-1034z" />
</font>
</defs>
</svg>
